SplineFontDB: 3.2
FontName: Krub-MediumItalic
FullName: Krub Medium Italic
FamilyName: Krub Medium
Weight: Medium
Copyright: Copyright 2018 The Krub Project Authors (https://github.com/cadsondemak/Krub)
Version: 1.000; ttfautohint (v1.6)
ItalicAngle: -8
UnderlinePosition: -100
UnderlineWidth: 50
Ascent: 800
Descent: 200
InvalidEm: 0
sfntRevision: 0x00010000
LayerCount: 2
Layer: 0 1 "Back" 1
Layer: 1 1 "Fore" 0
XUID: [1021 226 -1497385041 2938138]
StyleMap: 0x0001
FSType: 0
OS2Version: 3
OS2_WeightWidthSlopeOnly: 0
OS2_UseTypoMetrics: 0
CreationTime: 1534948280
ModificationTime: 1627863093
PfmFamily: 81
TTFWeight: 500
TTFWidth: 5
LineGap: 0
VLineGap: 0
Panose: 0 0 6 0 0 0 0 0 0 0
OS2TypoAscent: 1007
OS2TypoAOffset: 0
OS2TypoDescent: -293
OS2TypoDOffset: 0
OS2TypoLinegap: 0
OS2WinAscent: 1232
OS2WinAOffset: 0
OS2WinDescent: 507
OS2WinDOffset: 0
HheadAscent: 1007
HheadAOffset: 0
HheadDescent: -293
HheadDOffset: 0
OS2SubXSize: 650
OS2SubYSize: 600
OS2SubXOff: -11
OS2SubYOff: 75
OS2SupXSize: 650
OS2SupYSize: 600
OS2SupXOff: 49
OS2SupYOff: 350
OS2StrikeYSize: 50
OS2StrikeYPos: 330
OS2CapHeight: 700
OS2XHeight: 550
OS2Vendor: 'CDK '
OS2CodePages: 20010193.00000000
OS2UnicodeRanges: 21000007.00000001.00000000.00000000
Lookup: 1 0 0 "'aalt' Access All Alternates lookup 0" { "'aalt' Access All Alternates lookup 0 subtable"  } ['aalt' ('DFLT' <'dflt' > 'latn' <'CAT ' 'MOL ' 'ROM ' 'dflt' > 'thai' <'dflt' > ) ]
Lookup: 3 0 0 "'aalt' Access All Alternates lookup 1" { "'aalt' Access All Alternates lookup 1 subtable"  } ['aalt' ('DFLT' <'dflt' > 'latn' <'CAT ' 'MOL ' 'ROM ' 'dflt' > 'thai' <'dflt' > ) ]
Lookup: 6 0 0 "'ccmp' Glyph Composition/Decomposition in Latin lookup 2" { "'ccmp' Glyph Composition/Decomposition in Latin lookup 2 contextual 0"  "'ccmp' Glyph Composition/Decomposition in Latin lookup 2 contextual 1"  } ['ccmp' ('latn' <'dflt' > ) ]

StartChar: A
Encoding: 65 65 4
Width: 633
GlyphClass: 2
Flags: W
AnchorPoint: "Anchor-10" 0 0 basechar 0
AnchorPoint: "Anchor-9" 352 660 basechar 0
AnchorPoint: "Anchor-8" 561 0 basechar 0
AnchorPoint: "Anchor-7" 260 0 basechar 0
LayerCount: 2
Fore
SplineSet
446 193 m 1,1,-1
 125 193 l 1,2,3
 96 118 96 118 57 0 c 1,4,-1
 -42 0 l 1,5,6
 27 209 27 209 111 378 c 128,-1,7
 195 547 195 547 307 700 c 1,8,-1
 409 700 l 1,9,10
 475 542 475 542 512 372.5 c 128,-1,11
 549 203 549 203 561 0 c 1,12,-1
 462 0 l 1,13,0
 456 112 456 112 446 193 c 1,1,-1
436 270 m 1,14,15
 409 454 409 454 345 614 c 1,16,17
 233 451 233 451 157 270 c 1,18,-1
 436 270 l 1,14,15
EndSplineSet
Substitution2: "Single Substitution lookup 20 subtable" ordfeminine
Substitution2: "'aalt' Access All Alternates lookup 0 subtable" ordfeminine
EndChar

StartChar: AE
Encoding: 198 198 28
Width: 943
GlyphClass: 2
Flags: W
AnchorPoint: "Anchor-10" 0 0 basechar 0
AnchorPoint: "Anchor-9" 576 700 basechar 0
AnchorPoint: "Anchor-8" 0 0 basechar 0
AnchorPoint: "Anchor-7" 418 0 basechar 0
LayerCount: 2
Fore
SplineSet
594 627 m 1,0,-1
 562 403 l 1,1,-1
 845 403 l 1,2,-1
 835 330 l 1,3,-1
 552 330 l 1,4,-1
 516 73 l 1,5,-1
 841 73 l 1,6,7
 835 31 835 31 821.5 15.5 c 128,-1,8
 808 0 808 0 772 0 c 2,9,-1
 415 0 l 1,10,-1
 444 206 l 1,11,-1
 148 206 l 1,12,13
 91 97 91 97 59 0 c 1,14,-1
 -42 0 l 1,15,16
 24 194 24 194 150 378 c 128,-1,17
 276 562 276 562 454 700 c 1,18,-1
 930 700 l 1,19,-1
 920 627 l 1,20,-1
 594 627 l 1,0,-1
454 279 m 1,21,-1
 503 627 l 1,22,-1
 494 627 l 1,23,24
 409 562 409 562 331 472.5 c 128,-1,25
 253 383 253 383 190 279 c 1,26,-1
 454 279 l 1,21,-1
EndSplineSet
EndChar

StartChar: B
Encoding: 66 66 30
Width: 618
GlyphClass: 2
Flags: W
AnchorPoint: "Anchor-10" 0 0 basechar 0
AnchorPoint: "Anchor-9" 343 660 basechar 0
AnchorPoint: "Anchor-8" 0 0 basechar 0
AnchorPoint: "Anchor-7" 251 0 basechar 0
LayerCount: 2
Fore
SplineSet
524 302 m 128,-1,1
 551 262 551 262 551 212 c 0,2,3
 551 111 551 111 480.5 55.5 c 128,-1,4
 410 0 410 0 282 0 c 2,5,-1
 26 0 l 1,6,-1
 124 700 l 1,7,-1
 357 700 l 2,8,9
 453 700 453 700 508 655.5 c 128,-1,10
 563 611 563 611 563 532 c 0,11,12
 563 471 563 471 532.5 424 c 128,-1,13
 502 377 502 377 454 359 c 1,14,0
 497 342 497 342 524 302 c 128,-1,1
431.5 602 m 128,-1,16
 401 625 401 625 337 625 c 2,17,-1
 212 625 l 1,18,-1
 180 393 l 1,19,-1
 308 393 l 2,20,21
 387 393 387 393 424.5 427 c 128,-1,22
 462 461 462 461 462 532 c 0,23,15
 462 579 462 579 431.5 602 c 128,-1,16
410 107.5 m 128,-1,25
 451 140 451 140 451 217 c 0,26,27
 451 272 451 272 416.5 296 c 128,-1,28
 382 320 382 320 305 320 c 2,29,-1
 170 320 l 1,30,-1
 135 75 l 1,31,-1
 273 75 l 2,32,24
 369 75 369 75 410 107.5 c 128,-1,25
EndSplineSet
EndChar

StartChar: C
Encoding: 67 67 31
Width: 609
GlyphClass: 2
Flags: W
AnchorPoint: "Anchor-10" 0 0 basechar 0
AnchorPoint: "Anchor-9" 394 660 basechar 0
AnchorPoint: "Anchor-8" 0 0 basechar 0
AnchorPoint: "Anchor-7" 302 0 basechar 0
LayerCount: 2
Fore
SplineSet
108 65 m 128,-1,1
 37 140 37 140 37 277 c 0,2,3
 37 409 37 409 79.5 507 c 128,-1,4
 122 605 122 605 200.5 657.5 c 128,-1,5
 279 710 279 710 386 710 c 0,6,7
 450 710 450 710 505 688.5 c 128,-1,8
 560 667 560 667 593 629 c 1,9,10
 583 607 583 607 567.5 591 c 128,-1,11
 552 575 552 575 539 575 c 256,12,13
 526 575 526 575 512 584 c 0,14,15
 478 609 478 609 447.5 619.5 c 128,-1,16
 417 630 417 630 383 630 c 0,17,18
 308 630 308 630 253 587.5 c 128,-1,19
 198 545 198 545 169 464.5 c 128,-1,20
 140 384 140 384 140 274 c 0,21,22
 140 71 140 71 320 71 c 0,23,24
 365 71 365 71 402 84 c 128,-1,25
 439 97 439 97 476 127 c 1,26,27
 492 126 492 126 502 114 c 128,-1,28
 512 102 512 102 511 85 c 0,29,30
 509 60 509 60 480 38 c 128,-1,31
 451 16 451 16 405.5 3 c 128,-1,32
 360 -10 360 -10 310 -10 c 0,33,0
 179 -10 179 -10 108 65 c 128,-1,1
EndSplineSet
EndChar

StartChar: Ccedilla
Encoding: 199 199 34
Width: 609
GlyphClass: 2
Flags: W
AnchorPoint: "Anchor-10" 0 0 basechar 0
AnchorPoint: "Anchor-9" 0 0 basechar 0
AnchorPoint: "Anchor-8" 0 0 basechar 0
AnchorPoint: "Anchor-7" 272 -214 basechar 0
LayerCount: 2
Fore
SplineSet
505 688.5 m 128,-1,1
 560 667 560 667 593 629 c 1,2,3
 583 607 583 607 567.5 591 c 128,-1,4
 552 575 552 575 539 575 c 256,5,6
 526 575 526 575 512 584 c 0,7,8
 478 609 478 609 447.5 619.5 c 128,-1,9
 417 630 417 630 383 630 c 0,10,11
 308 630 308 630 253 587.5 c 128,-1,12
 198 545 198 545 169 464.5 c 128,-1,13
 140 384 140 384 140 274 c 0,14,15
 140 71 140 71 320 71 c 0,16,17
 365 71 365 71 402 84 c 128,-1,18
 439 97 439 97 476 127 c 1,19,20
 492 126 492 126 502 114 c 128,-1,21
 512 102 512 102 511 85 c 0,22,23
 507 50 507 50 455 23 c 128,-1,24
 403 -4 403 -4 333 -9 c 1,25,-1
 288 -54 l 1,26,-1
 297 -54 l 2,27,28
 336 -54 336 -54 360 -72.5 c 128,-1,29
 384 -91 384 -91 384 -123 c 0,30,31
 384 -175 384 -175 343 -203.5 c 128,-1,32
 302 -232 302 -232 241 -232 c 0,33,34
 196 -232 196 -232 173 -221.5 c 128,-1,35
 150 -211 150 -211 150 -192 c 0,36,37
 150 -186 150 -186 156 -170 c 1,38,39
 197 -181 197 -181 239 -181 c 0,40,41
 270 -181 270 -181 287.5 -168 c 128,-1,42
 305 -155 305 -155 305 -134 c 0,43,44
 305 -121 305 -121 295 -112.5 c 128,-1,45
 285 -104 285 -104 266 -104 c 0,46,47
 250 -104 250 -104 229 -110 c 1,48,-1
 210 -75 l 1,49,-1
 267 -8 l 1,50,51
 157 4 157 4 97 78 c 128,-1,52
 37 152 37 152 37 277 c 0,53,54
 37 409 37 409 79.5 507 c 128,-1,55
 122 605 122 605 200.5 657.5 c 128,-1,56
 279 710 279 710 386 710 c 0,57,0
 450 710 450 710 505 688.5 c 128,-1,1
EndSplineSet
EndChar

StartChar: D
Encoding: 68 68 37
Width: 675
GlyphClass: 2
Flags: W
AnchorPoint: "Anchor-10" 0 0 basechar 0
AnchorPoint: "Anchor-9" 370 653 basechar 0
AnchorPoint: "Anchor-8" 0 0 basechar 0
AnchorPoint: "Anchor-7" 279 0 basechar 0
LayerCount: 2
Fore
SplineSet
546.5 624.5 m 128,-1,1
 623 549 623 549 623 416 c 0,2,3
 623 291 623 291 577 197 c 128,-1,4
 531 103 531 103 446 51.5 c 128,-1,5
 361 0 361 0 249 0 c 2,6,-1
 22 0 l 1,7,-1
 120 700 l 1,8,-1
 334 700 l 2,9,0
 470 700 470 700 546.5 624.5 c 128,-1,1
393 115.5 m 128,-1,11
 456 156 456 156 489 232 c 128,-1,12
 522 308 522 308 522 413 c 0,13,14
 522 517 522 517 470.5 571 c 128,-1,15
 419 625 419 625 320 625 c 2,16,-1
 209 625 l 1,17,-1
 132 75 l 1,18,-1
 243 75 l 2,19,10
 330 75 330 75 393 115.5 c 128,-1,11
EndSplineSet
EndChar

StartChar: Eth
Encoding: 208 208 38
Width: 672
GlyphClass: 2
Flags: W
AnchorPoint: "Anchor-10" 0 0 basechar 0
AnchorPoint: "Anchor-9" 370 653 basechar 0
AnchorPoint: "Anchor-8" 0 0 basechar 0
AnchorPoint: "Anchor-7" 279 0 basechar 0
LayerCount: 2
Fore
SplineSet
546.5 624.5 m 128,-1,1
 623 549 623 549 623 416 c 0,2,3
 623 291 623 291 577 197 c 128,-1,4
 531 103 531 103 446 51.5 c 128,-1,5
 361 0 361 0 249 0 c 2,6,-1
 22 0 l 1,7,-1
 67 320 l 1,8,-1
 -11 320 l 1,9,-1
 -1 391 l 1,10,-1
 77 391 l 1,11,-1
 120 700 l 1,12,-1
 334 700 l 2,13,0
 470 700 470 700 546.5 624.5 c 128,-1,1
393 115.5 m 128,-1,15
 456 156 456 156 489 232 c 128,-1,16
 522 308 522 308 522 413 c 0,17,18
 522 517 522 517 470.5 571 c 128,-1,19
 419 625 419 625 320 625 c 2,20,-1
 209 625 l 1,21,-1
 176 391 l 1,22,-1
 344 391 l 1,23,-1
 334 320 l 1,24,-1
 166 320 l 1,25,-1
 132 75 l 1,26,-1
 243 75 l 2,27,14
 330 75 330 75 393 115.5 c 128,-1,15
EndSplineSet
EndChar

StartChar: Dcroat
Encoding: 272 272 40
Width: 672
GlyphClass: 2
Flags: W
AnchorPoint: "Anchor-10" 0 0 basechar 0
AnchorPoint: "Anchor-9" 370 653 basechar 0
AnchorPoint: "Anchor-8" 0 0 basechar 0
AnchorPoint: "Anchor-7" 279 0 basechar 0
LayerCount: 2
Fore
SplineSet
546.5 624.5 m 128,-1,1
 623 549 623 549 623 416 c 0,2,3
 623 291 623 291 577 197 c 128,-1,4
 531 103 531 103 446 51.5 c 128,-1,5
 361 0 361 0 249 0 c 2,6,-1
 22 0 l 1,7,-1
 67 320 l 1,8,-1
 -11 320 l 1,9,-1
 -1 391 l 1,10,-1
 77 391 l 1,11,-1
 120 700 l 1,12,-1
 334 700 l 2,13,0
 470 700 470 700 546.5 624.5 c 128,-1,1
393 115.5 m 128,-1,15
 456 156 456 156 489 232 c 128,-1,16
 522 308 522 308 522 413 c 0,17,18
 522 517 522 517 470.5 571 c 128,-1,19
 419 625 419 625 320 625 c 2,20,-1
 209 625 l 1,21,-1
 176 391 l 1,22,-1
 344 391 l 1,23,-1
 334 320 l 1,24,-1
 166 320 l 1,25,-1
 132 75 l 1,26,-1
 243 75 l 2,27,14
 330 75 330 75 393 115.5 c 128,-1,15
EndSplineSet
EndChar

StartChar: E
Encoding: 69 69 43
Width: 560
GlyphClass: 2
Flags: W
AnchorPoint: "Anchor-10" 0 0 basechar 0
AnchorPoint: "Anchor-9" 317 667 basechar 0
AnchorPoint: "Anchor-8" 437 10 basechar 0
AnchorPoint: "Anchor-7" 223 0 basechar 0
LayerCount: 2
Fore
SplineSet
209 625 m 1,0,-1
 177 397 l 1,1,-1
 454 397 l 1,2,-1
 444 321 l 1,3,-1
 166 321 l 1,4,-1
 132 75 l 1,5,-1
 462 75 l 1,6,7
 455 31 455 31 442.5 15.5 c 128,-1,8
 430 0 430 0 399 0 c 2,9,-1
 22 0 l 1,10,-1
 120 700 l 1,11,-1
 545 700 l 1,12,-1
 535 625 l 1,13,-1
 209 625 l 1,0,-1
EndSplineSet
EndChar

StartChar: Eogonek
Encoding: 280 280 59
Width: 560
GlyphClass: 2
Flags: W
AnchorPoint: "Anchor-10" 0 0 basechar 0
AnchorPoint: "Anchor-9" 317 667 basechar 0
AnchorPoint: "Anchor-8" 437 10 basechar 0
AnchorPoint: "Anchor-7" 223 0 basechar 0
LayerCount: 2
Fore
SplineSet
209 625 m 1,0,-1
 177 397 l 1,1,-1
 454 397 l 1,2,-1
 444 321 l 1,3,-1
 166 321 l 1,4,-1
 132 75 l 1,5,-1
 462 75 l 1,6,7
 457 45 457 45 451 29.5 c 128,-1,8
 445 14 445 14 433 7 c 0,9,10
 400 -17 400 -17 379 -46.5 c 128,-1,11
 358 -76 358 -76 358 -102 c 0,12,13
 358 -146 358 -146 397 -146 c 0,14,15
 424 -146 424 -146 444 -136 c 1,16,17
 452 -145 452 -145 452 -159 c 0,18,19
 450 -177 450 -177 429.5 -188.5 c 128,-1,20
 409 -200 409 -200 374 -200 c 0,21,22
 328 -200 328 -200 303 -181 c 128,-1,23
 278 -162 278 -162 278 -127 c 0,24,25
 278 -52 278 -52 370 0 c 1,26,-1
 22 0 l 1,27,-1
 120 700 l 1,28,-1
 545 700 l 1,29,-1
 535 625 l 1,30,-1
 209 625 l 1,0,-1
EndSplineSet
EndChar

StartChar: F
Encoding: 70 70 61
Width: 530
GlyphClass: 2
Flags: W
AnchorPoint: "Anchor-10" 0 0 basechar 0
AnchorPoint: "Anchor-9" 327 660 basechar 0
AnchorPoint: "Anchor-8" 0 0 basechar 0
AnchorPoint: "Anchor-7" 65 0 basechar 0
LayerCount: 2
Fore
SplineSet
209 625 m 1,0,-1
 177 398 l 1,1,-1
 454 398 l 1,2,-1
 443 323 l 1,3,-1
 167 323 l 1,4,-1
 122 0 l 1,5,-1
 22 0 l 1,6,-1
 120 700 l 1,7,-1
 539 700 l 1,8,-1
 529 625 l 1,9,-1
 209 625 l 1,0,-1
EndSplineSet
EndChar

StartChar: G
Encoding: 71 71 62
Width: 673
GlyphClass: 2
Flags: W
AnchorPoint: "Anchor-10" 0 0 basechar 0
AnchorPoint: "Anchor-9" 412 660 basechar 0
AnchorPoint: "Anchor-8" 0 0 basechar 0
AnchorPoint: "Anchor-7" 320 0 basechar 0
LayerCount: 2
Fore
SplineSet
214.5 538 m 128,-1,1
 146 445 146 445 146 279 c 0,2,3
 146 176 146 176 192.5 122.5 c 128,-1,4
 239 69 239 69 330 69 c 0,5,6
 377 69 377 69 414 79.5 c 128,-1,7
 451 90 451 90 473 109 c 1,8,-1
 500 300 l 1,9,-1
 386 300 l 2,10,11
 367 300 367 300 358.5 310 c 128,-1,12
 350 320 350 320 350 343 c 0,13,14
 350 355 350 355 353 377 c 1,15,-1
 610 377 l 1,16,-1
 567 73 l 1,17,18
 479 -10 479 -10 330 -10 c 0,19,20
 195 -10 195 -10 119.5 66.5 c 128,-1,21
 44 143 44 143 44 280 c 0,22,23
 44 413 44 413 88 510 c 128,-1,24
 132 607 132 607 214.5 658.5 c 128,-1,25
 297 710 297 710 411 710 c 0,26,27
 485 710 485 710 548 685 c 128,-1,28
 611 660 611 660 640 619 c 1,29,30
 626 596 626 596 610.5 581 c 128,-1,31
 595 566 595 566 583 566 c 0,32,33
 574 566 574 566 568.5 568.5 c 128,-1,34
 563 571 563 571 555 578 c 0,35,36
 490 631 490 631 406 631 c 0,37,0
 283 631 283 631 214.5 538 c 128,-1,1
EndSplineSet
EndChar

StartChar: H
Encoding: 72 72 69
Width: 687
GlyphClass: 2
Flags: W
AnchorPoint: "Anchor-10" 0 0 basechar 0
AnchorPoint: "Anchor-9" 378 653 basechar 0
AnchorPoint: "Anchor-8" 0 0 basechar 0
AnchorPoint: "Anchor-7" 286 0 basechar 0
LayerCount: 2
Fore
SplineSet
648 700 m 1,0,-1
 550 0 l 1,1,-1
 451 0 l 1,2,-1
 496 320 l 1,3,-1
 167 320 l 1,4,-1
 122 0 l 1,5,-1
 22 0 l 1,6,-1
 120 700 l 1,7,-1
 220 700 l 1,8,-1
 178 397 l 1,9,-1
 507 397 l 1,10,-1
 549 700 l 1,11,-1
 648 700 l 1,0,-1
EndSplineSet
EndChar

StartChar: Hbar
Encoding: 294 294 70
Width: 687
GlyphClass: 2
Flags: W
AnchorPoint: "Anchor-10" 0 0 basechar 0
AnchorPoint: "Anchor-9" 381 653 basechar 0
AnchorPoint: "Anchor-8" 0 0 basechar 0
AnchorPoint: "Anchor-7" 290 0 basechar 0
LayerCount: 2
Fore
SplineSet
696 524 m 1,0,-1
 627 524 l 1,1,-1
 554 0 l 1,2,-1
 454 0 l 1,3,-1
 499 320 l 1,4,-1
 170 320 l 1,5,-1
 125 0 l 1,6,-1
 26 0 l 1,7,-1
 99 524 l 1,8,-1
 29 524 l 1,9,-1
 38 584 l 1,10,-1
 108 584 l 1,11,-1
 124 700 l 1,12,-1
 223 700 l 1,13,-1
 207 584 l 1,14,-1
 536 584 l 1,15,-1
 552 700 l 1,16,-1
 652 700 l 1,17,-1
 636 584 l 1,18,-1
 705 584 l 1,19,-1
 696 524 l 1,0,-1
527 524 m 1,20,-1
 198 524 l 1,21,-1
 181 397 l 1,22,-1
 510 397 l 1,23,-1
 527 524 l 1,20,-1
EndSplineSet
EndChar

StartChar: I
Encoding: 73 73 74
Width: 350
GlyphClass: 2
Flags: W
AnchorPoint: "Anchor-10" 0 0 basechar 0
AnchorPoint: "Anchor-9" 210 660 basechar 0
AnchorPoint: "Anchor-8" 168 0 basechar 0
AnchorPoint: "Anchor-7" 118 0 basechar 0
LayerCount: 2
Fore
SplineSet
166 700 m 1,0,-1
 266 700 l 1,1,-1
 168 0 l 1,2,-1
 68 0 l 1,3,-1
 166 700 l 1,0,-1
EndSplineSet
EndChar

StartChar: J
Encoding: 74 74 88
Width: 434
GlyphClass: 2
Flags: W
AnchorPoint: "Anchor-10" 0 0 basechar 0
AnchorPoint: "Anchor-9" 340 660 basechar 0
AnchorPoint: "Anchor-8" 0 0 basechar 0
AnchorPoint: "Anchor-7" 160 0 basechar 0
LayerCount: 2
Fore
SplineSet
20 -1.5 m 128,-1,1
 -18 7 -18 7 -34 17 c 1,2,3
 -29 53 -29 53 -18.5 69 c 128,-1,4
 -8 85 -8 85 6 85 c 0,5,6
 13 85 13 85 30 80 c 0,7,8
 50 74 50 74 65 71 c 128,-1,9
 80 68 80 68 101 68 c 0,10,11
 154 68 154 68 185.5 98 c 128,-1,12
 217 128 217 128 224 186 c 2,13,-1
 297 700 l 1,14,-1
 396 700 l 1,15,-1
 324 186 l 2,16,17
 311 97 311 97 249 43.5 c 128,-1,18
 187 -10 187 -10 95 -10 c 0,19,0
 58 -10 58 -10 20 -1.5 c 128,-1,1
EndSplineSet
EndChar

StartChar: K
Encoding: 75 75 90
Width: 630
GlyphClass: 2
Flags: W
AnchorPoint: "Anchor-10" 0 0 basechar 0
AnchorPoint: "Anchor-9" 347 660 basechar 0
AnchorPoint: "Anchor-8" 0 0 basechar 0
AnchorPoint: "Anchor-7" 288 0 basechar 0
LayerCount: 2
Fore
SplineSet
415 286 m 2,1,-1
 551 4 l 1,2,3
 525 -9 525 -9 488 -9 c 0,4,5
 466 -9 466 -9 454 -2 c 128,-1,6
 442 5 442 5 434 22 c 2,7,-1
 321 258 l 2,8,9
 303 296 303 296 282 308 c 128,-1,10
 261 320 261 320 212 320 c 2,11,-1
 184 320 l 1,12,-1
 139 0 l 1,13,-1
 40 0 l 1,14,-1
 138 700 l 1,15,-1
 237 700 l 1,16,-1
 194 395 l 1,17,-1
 249 395 l 2,18,19
 261 395 261 395 266 394 c 1,20,-1
 532 700 l 1,21,-1
 641 700 l 1,22,-1
 349 369 l 1,23,0
 386 343 386 343 415 286 c 2,1,-1
EndSplineSet
EndChar

StartChar: L
Encoding: 76 76 92
Width: 513
GlyphClass: 2
Flags: W
AnchorPoint: "Anchor-10" 534 700 basechar 0
AnchorPoint: "Anchor-9" 175 687 basechar 0
AnchorPoint: "Anchor-8" 0 0 basechar 0
AnchorPoint: "Anchor-7" 235 0 basechar 0
LayerCount: 2
Fore
SplineSet
451 75 m 1,0,-1
 441 0 l 1,1,-1
 29 0 l 1,2,-1
 127 700 l 1,3,-1
 226 700 l 1,4,-1
 138 75 l 1,5,-1
 451 75 l 1,0,-1
EndSplineSet
EndChar

StartChar: Lslash
Encoding: 321 321 100
Width: 547
GlyphClass: 2
Flags: W
AnchorPoint: "Anchor-10" 554 700 basechar 0
AnchorPoint: "Anchor-9" 195 687 basechar 0
AnchorPoint: "Anchor-8" 0 0 basechar 0
AnchorPoint: "Anchor-7" 255 0 basechar 0
LayerCount: 2
Fore
SplineSet
471 75 m 1,0,-1
 461 0 l 1,1,-1
 49 0 l 1,2,-1
 97 340 l 1,3,-1
 2 304 l 1,4,-1
 14 386 l 1,5,-1
 108 422 l 1,6,-1
 147 700 l 1,7,-1
 246 700 l 1,8,-1
 213 461 l 1,9,-1
 386 527 l 1,10,-1
 374 445 l 1,11,-1
 201 379 l 1,12,-1
 158 75 l 1,13,-1
 471 75 l 1,0,-1
EndSplineSet
EndChar

StartChar: M
Encoding: 77 77 101
Width: 835
GlyphClass: 2
Flags: W
AnchorPoint: "Anchor-10" 0 0 basechar 0
AnchorPoint: "Anchor-9" 447 660 basechar 0
AnchorPoint: "Anchor-8" 0 0 basechar 0
AnchorPoint: "Anchor-7" 361 0 basechar 0
LayerCount: 2
Fore
SplineSet
735 448 m 0,1,2
 735 247 735 247 710 0 c 1,3,-1
 610 0 l 1,4,5
 641 309 641 309 641 513 c 2,6,-1
 640 573 l 1,7,8
 585 471 585 471 536 366 c 128,-1,9
 487 261 487 261 410 83 c 1,10,-1
 335 83 l 1,11,12
 314 232 314 232 293 342 c 128,-1,13
 272 452 272 452 241 576 c 1,14,15
 159 315 159 315 109 0 c 1,16,-1
 10 0 l 1,17,18
 75 399 75 399 189 700 c 1,19,-1
 299 700 l 1,20,21
 341 543 341 543 361 454 c 128,-1,22
 381 365 381 365 396 265 c 1,23,24
 443 378 443 378 489 470 c 128,-1,25
 535 562 535 562 613 700 c 1,26,-1
 724 700 l 1,27,0
 735 590 735 590 735 448 c 0,1,2
EndSplineSet
EndChar

StartChar: N
Encoding: 78 78 103
Width: 693
GlyphClass: 2
Flags: W
AnchorPoint: "Anchor-10" 0 0 basechar 0
AnchorPoint: "Anchor-9" 381 660 basechar 0
AnchorPoint: "Anchor-8" 0 0 basechar 0
AnchorPoint: "Anchor-7" 289 0 basechar 0
LayerCount: 2
Fore
SplineSet
651 700 m 1,0,-1
 572 137 l 2,1,2
 561 66 561 66 560 27 c 0,3,4
 559 14 559 14 551 7 c 128,-1,5
 543 0 543 0 531 0 c 2,6,-1
 454 0 l 1,7,-1
 461 48 l 2,8,9
 462 55 462 55 462 70 c 0,10,11
 462 118 462 118 438 159 c 2,12,-1
 200 562 l 1,13,-1
 121 0 l 1,14,-1
 22 0 l 1,15,-1
 120 700 l 1,16,-1
 205 700 l 2,17,18
 218 700 218 700 225.5 696 c 128,-1,19
 233 692 233 692 240 680 c 2,20,-1
 491 256 l 1,21,-1
 552 700 l 1,22,-1
 651 700 l 1,0,-1
EndSplineSet
EndChar

StartChar: Eng
Encoding: 330 330 109
Width: 685
Flags: W
LayerCount: 2
Fore
SplineSet
647 700 m 1,0,-1
 543 -40 l 2,1,2
 532 -114 532 -114 483 -156.5 c 128,-1,3
 434 -199 434 -199 358 -199 c 0,4,5
 322 -199 322 -199 292 -187.5 c 128,-1,6
 262 -176 262 -176 266 -153 c 0,7,8
 267 -142 267 -142 274 -131.5 c 128,-1,9
 281 -121 281 -121 287 -119 c 1,10,11
 317 -134 317 -134 360 -134 c 0,12,13
 394 -134 394 -134 415.5 -112.5 c 128,-1,14
 437 -91 437 -91 443 -49 c 2,15,-1
 456 44 l 2,16,17
 458 58 458 58 458 66 c 0,18,19
 458 109 458 109 433 155 c 2,20,-1
 199 559 l 1,21,-1
 121 0 l 1,22,-1
 22 0 l 1,23,-1
 120 700 l 1,24,-1
 205 700 l 2,25,26
 218 700 218 700 225.5 696.5 c 128,-1,27
 233 693 233 693 240 680 c 2,28,-1
 486 257 l 1,29,-1
 548 700 l 1,30,-1
 647 700 l 1,0,-1
EndSplineSet
EndChar

StartChar: O
Encoding: 79 79 112
Width: 687
GlyphClass: 2
Flags: W
AnchorPoint: "Anchor-10" 518 639 basechar 0
AnchorPoint: "Anchor-9" 376 660 basechar 0
AnchorPoint: "Anchor-8" 389 31 basechar 0
AnchorPoint: "Anchor-7" 286 0 basechar 0
LayerCount: 2
Fore
SplineSet
100.5 67 m 128,-1,1
 30 144 30 144 30 280 c 0,2,3
 30 410 30 410 72.5 507.5 c 128,-1,4
 115 605 115 605 193 657.5 c 128,-1,5
 271 710 271 710 376 710 c 0,6,7
 501 710 501 710 571 636.5 c 128,-1,8
 641 563 641 563 641 430 c 0,9,10
 641 293 641 293 600 194 c 128,-1,11
 559 95 559 95 481 42.5 c 128,-1,12
 403 -10 403 -10 296 -10 c 0,13,0
 171 -10 171 -10 100.5 67 c 128,-1,1
476.5 162.5 m 128,-1,15
 539 256 539 256 539 427 c 0,16,17
 539 525 539 525 496 578 c 128,-1,18
 453 631 453 631 372 631 c 0,19,20
 297 631 297 631 243 589 c 128,-1,21
 189 547 189 547 160 468 c 128,-1,22
 131 389 131 389 131 280 c 0,23,24
 131 179 131 179 175 124 c 128,-1,25
 219 69 219 69 299 69 c 0,26,14
 414 69 414 69 476.5 162.5 c 128,-1,15
EndSplineSet
Substitution2: "Single Substitution lookup 20 subtable" ordmasculine
Substitution2: "'aalt' Access All Alternates lookup 0 subtable" ordmasculine
EndChar

StartChar: Ohorn
Encoding: 416 416 126
Width: 687
GlyphClass: 2
Flags: W
AnchorPoint: "Anchor-10" 518 639 basechar 0
AnchorPoint: "Anchor-9" 376 660 basechar 0
AnchorPoint: "Anchor-8" 389 31 basechar 0
AnchorPoint: "Anchor-7" 286 0 basechar 0
LayerCount: 2
Fore
SplineSet
669.5 805 m 128,-1,1
 685 789 685 789 685 760 c 0,2,3
 685 749 685 749 684 743 c 0,4,5
 678 699 678 699 652.5 668 c 128,-1,6
 627 637 627 637 584 622 c 1,7,8
 641 550 641 550 641 430 c 0,9,10
 641 293 641 293 600 194 c 128,-1,11
 559 95 559 95 481 42.5 c 128,-1,12
 403 -10 403 -10 296 -10 c 0,13,14
 171 -10 171 -10 100.5 67 c 128,-1,15
 30 144 30 144 30 280 c 0,16,17
 30 410 30 410 72.5 507.5 c 128,-1,18
 115 605 115 605 193 657.5 c 128,-1,19
 271 710 271 710 376 710 c 0,20,21
 470 710 470 710 535 667 c 1,22,23
 560 671 560 671 576 688 c 128,-1,24
 592 705 592 705 596 733 c 0,25,26
 600 764 600 764 574 785 c 1,27,28
 579 800 579 800 593.5 810.5 c 128,-1,29
 608 821 608 821 627 821 c 0,30,0
 654 821 654 821 669.5 805 c 128,-1,1
476.5 162.5 m 128,-1,32
 539 256 539 256 539 427 c 0,33,34
 539 525 539 525 496 578 c 128,-1,35
 453 631 453 631 372 631 c 0,36,37
 297 631 297 631 243 589 c 128,-1,38
 189 547 189 547 160 468 c 128,-1,39
 131 389 131 389 131 280 c 0,40,41
 131 179 131 179 175 124 c 128,-1,42
 219 69 219 69 299 69 c 0,43,31
 414 69 414 69 476.5 162.5 c 128,-1,32
EndSplineSet
EndChar

StartChar: Oslash
Encoding: 216 216 134
Width: 680
GlyphClass: 2
Flags: W
AnchorPoint: "Anchor-10" 518 639 basechar 0
AnchorPoint: "Anchor-9" 376 660 basechar 0
AnchorPoint: "Anchor-8" 389 31 basechar 0
AnchorPoint: "Anchor-7" 286 0 basechar 0
LayerCount: 2
Fore
SplineSet
589 615 m 1,0,1
 641 543 641 543 641 430 c 0,2,3
 641 293 641 293 600 194 c 128,-1,4
 559 95 559 95 481 42.5 c 128,-1,5
 403 -10 403 -10 296 -10 c 0,6,7
 184 -10 184 -10 114 54 c 1,8,-1
 68 0 l 1,9,-1
 -4 0 l 1,10,-1
 78 97 l 1,11,12
 30 170 30 170 30 280 c 0,13,14
 30 410 30 410 72.5 507.5 c 128,-1,15
 115 605 115 605 193 657.5 c 128,-1,16
 271 710 271 710 376 710 c 0,17,18
 484 710 484 710 551 655 c 1,19,-1
 590 701 l 1,20,-1
 662 701 l 1,21,-1
 589 615 l 1,0,1
146 177 m 1,23,-1
 491 584 l 1,24,25
 449 631 449 631 372 631 c 0,26,27
 297 631 297 631 243 589 c 128,-1,28
 189 547 189 547 160 468 c 128,-1,29
 131 389 131 389 131 280 c 0,30,22
 131 221 131 221 146 177 c 1,23,-1
521 535 m 1,32,-1
 174 125 l 1,33,34
 219 69 219 69 299 69 c 0,35,36
 414 69 414 69 476.5 162.5 c 128,-1,37
 539 256 539 256 539 427 c 0,38,31
 539 490 539 490 521 535 c 1,32,-1
EndSplineSet
EndChar

StartChar: OE
Encoding: 338 338 137
Width: 1035
GlyphClass: 2
Flags: W
AnchorPoint: "Anchor-10" 518 639 basechar 0
AnchorPoint: "Anchor-9" 792 667 basechar 0
AnchorPoint: "Anchor-8" 912 10 basechar 0
AnchorPoint: "Anchor-7" 698 0 basechar 0
LayerCount: 2
Fore
SplineSet
684 625 m 1,0,-1
 652 397 l 1,1,-1
 929 397 l 1,2,-1
 919 321 l 1,3,-1
 641 321 l 1,4,-1
 607 75 l 1,5,-1
 937 75 l 1,6,7
 930 31 930 31 917.5 15.5 c 128,-1,8
 905 0 905 0 874 0 c 2,9,-1
 497 0 l 1,10,-1
 506 61 l 1,11,12
 420 -10 420 -10 296 -10 c 0,13,14
 171 -10 171 -10 100.5 67 c 128,-1,15
 30 144 30 144 30 280 c 0,16,17
 30 410 30 410 72.5 507.5 c 128,-1,18
 115 605 115 605 193 657.5 c 128,-1,19
 271 710 271 710 376 710 c 0,20,21
 445 710 445 710 497.5 687.5 c 128,-1,22
 550 665 550 665 584 621 c 1,23,-1
 595 700 l 1,24,-1
 1020 700 l 1,25,-1
 1010 625 l 1,26,-1
 684 625 l 1,0,-1
476.5 162.5 m 128,-1,28
 539 256 539 256 539 427 c 0,29,30
 539 525 539 525 496 578 c 128,-1,31
 453 631 453 631 372 631 c 0,32,33
 297 631 297 631 243 589 c 128,-1,34
 189 547 189 547 160 468 c 128,-1,35
 131 389 131 389 131 280 c 0,36,37
 131 179 131 179 175 124 c 128,-1,38
 219 69 219 69 299 69 c 0,39,27
 414 69 414 69 476.5 162.5 c 128,-1,28
EndSplineSet
EndChar

StartChar: P
Encoding: 80 80 138
Width: 615
GlyphClass: 2
Flags: W
AnchorPoint: "Anchor-10" 0 0 basechar 0
AnchorPoint: "Anchor-9" 343 660 basechar 0
AnchorPoint: "Anchor-8" 0 0 basechar 0
AnchorPoint: "Anchor-7" 251 0 basechar 0
LayerCount: 2
Fore
SplineSet
521.5 650 m 128,-1,1
 585 600 585 600 585 503 c 0,2,3
 585 378 585 378 507.5 311 c 128,-1,4
 430 244 430 244 286 244 c 2,5,-1
 159 244 l 1,6,-1
 125 0 l 1,7,-1
 26 0 l 1,8,-1
 124 700 l 1,9,-1
 335 700 l 2,10,0
 458 700 458 700 521.5 650 c 128,-1,1
435 367 m 128,-1,12
 484 410 484 410 484 503 c 0,13,14
 484 564 484 564 444 594 c 128,-1,15
 404 624 404 624 321 624 c 2,16,-1
 212 624 l 1,17,-1
 170 324 l 1,18,-1
 281 324 l 2,19,11
 386 324 386 324 435 367 c 128,-1,12
EndSplineSet
EndChar

StartChar: Thorn
Encoding: 222 222 139
Width: 641
GlyphClass: 2
Flags: W
AnchorPoint: "Anchor-10" 0 0 basechar 0
AnchorPoint: "Anchor-9" 362 700 basechar 0
AnchorPoint: "Anchor-8" 0 0 basechar 0
AnchorPoint: "Anchor-7" 260 0 basechar 0
LayerCount: 2
Fore
SplineSet
517.5 545.5 m 128,-1,1
 580 492 580 492 580 398 c 0,2,3
 580 271 580 271 503 200 c 128,-1,4
 426 129 426 129 287 129 c 2,5,-1
 157 129 l 1,6,-1
 139 0 l 1,7,-1
 41 0 l 1,8,-1
 139 700 l 1,9,-1
 237 700 l 1,10,-1
 223 599 l 1,11,-1
 333 599 l 2,12,0
 455 599 455 599 517.5 545.5 c 128,-1,1
430 255.5 m 128,-1,14
 480 305 480 305 480 398 c 0,15,16
 480 521 480 521 328 521 c 2,17,-1
 212 521 l 1,18,-1
 168 206 l 1,19,-1
 284 206 l 2,20,13
 380 206 380 206 430 255.5 c 128,-1,14
EndSplineSet
EndChar

StartChar: Q
Encoding: 81 81 140
Width: 680
GlyphClass: 2
Flags: W
AnchorPoint: "Anchor-10" 518 639 basechar 0
AnchorPoint: "Anchor-9" 387 660 basechar 0
AnchorPoint: "Anchor-8" 389 31 basechar 0
AnchorPoint: "Anchor-7" 301 0 basechar 0
LayerCount: 2
Fore
SplineSet
588 168 m 128,-1,1
 535 62 535 62 437 18 c 1,2,3
 466 -24 466 -24 490 -55 c 1,4,5
 478 -69 478 -69 460 -77 c 128,-1,6
 442 -85 442 -85 421 -85 c 0,7,8
 384 -85 384 -85 365 -53 c 0,9,10
 350 -26 350 -26 342 -7 c 1,11,12
 320 -10 320 -10 296 -10 c 0,13,14
 171 -10 171 -10 100.5 67 c 128,-1,15
 30 144 30 144 30 280 c 0,16,17
 30 410 30 410 72.5 507.5 c 128,-1,18
 115 605 115 605 193 657.5 c 128,-1,19
 271 710 271 710 376 710 c 0,20,21
 501 710 501 710 571 636.5 c 128,-1,22
 641 563 641 563 641 430 c 0,23,0
 641 274 641 274 588 168 c 128,-1,1
501.5 208.5 m 128,-1,25
 539 295 539 295 539 427 c 0,26,27
 539 525 539 525 496 578 c 128,-1,28
 453 631 453 631 372 631 c 0,29,30
 297 631 297 631 243 589 c 128,-1,31
 189 547 189 547 160 468 c 128,-1,32
 131 389 131 389 131 280 c 0,33,34
 131 179 131 179 175 124 c 128,-1,35
 219 69 219 69 299 69 c 2,36,-1
 306 69 l 1,37,-1
 266 159 l 1,38,-1
 357 159 l 1,39,40
 374 121 374 121 393 89 c 1,41,24
 464 122 464 122 501.5 208.5 c 128,-1,25
EndSplineSet
EndChar

StartChar: R
Encoding: 82 82 141
Width: 633
GlyphClass: 2
Flags: W
AnchorPoint: "Anchor-10" 0 0 basechar 0
AnchorPoint: "Anchor-9" 348 660 basechar 0
AnchorPoint: "Anchor-8" 0 0 basechar 0
AnchorPoint: "Anchor-7" 258 0 basechar 0
LayerCount: 2
Fore
SplineSet
443 237 m 2,1,-1
 539 6 l 1,2,3
 513 -8 513 -8 479 -8 c 0,4,5
 456 -8 456 -8 443 0 c 128,-1,6
 430 8 430 8 424 25 c 2,7,-1
 349 211 l 2,8,9
 333 251 333 251 306 267.5 c 128,-1,10
 279 284 279 284 227 284 c 2,11,-1
 165 284 l 1,12,-1
 125 0 l 1,13,-1
 26 0 l 1,14,-1
 124 700 l 1,15,-1
 354 700 l 2,16,17
 469 700 469 700 531 654.5 c 128,-1,18
 593 609 593 609 593 524 c 0,19,20
 593 442 593 442 541 381 c 128,-1,21
 489 320 489 320 404 298 c 1,22,0
 428 272 428 272 443 237 c 2,1,-1
300 361 m 2,23,24
 392 361 392 361 441.5 401.5 c 128,-1,25
 491 442 491 442 491 518 c 0,26,27
 491 623 491 623 340 623 c 2,28,-1
 212 623 l 1,29,-1
 176 361 l 1,30,-1
 300 361 l 2,23,24
EndSplineSet
EndChar

StartChar: S
Encoding: 83 83 148
Width: 642
GlyphClass: 2
Flags: W
AnchorPoint: "Anchor-10" 0 0 basechar 0
AnchorPoint: "Anchor-9" 356 660 basechar 0
AnchorPoint: "Anchor-8" 0 0 basechar 0
AnchorPoint: "Anchor-7" 267 0 basechar 0
LayerCount: 2
Fore
SplineSet
153 8.5 m 128,-1,1
 96 27 96 27 64 60 c 128,-1,2
 32 93 32 93 32 135 c 0,3,4
 32 168 32 168 53.5 186.5 c 128,-1,5
 75 205 75 205 114 206 c 1,6,7
 117 140 117 140 161 104 c 128,-1,8
 205 68 205 68 284 68 c 0,9,10
 370 68 370 68 417 102.5 c 128,-1,11
 464 137 464 137 464 201 c 0,12,13
 464 235 464 235 450 256.5 c 128,-1,14
 436 278 436 278 402 295 c 128,-1,15
 368 312 368 312 302 331 c 0,16,17
 193 362 193 362 146.5 406 c 128,-1,18
 100 450 100 450 100 523 c 0,19,20
 100 578 100 578 132 620.5 c 128,-1,21
 164 663 164 663 221.5 686.5 c 128,-1,22
 279 710 279 710 354 710 c 0,23,24
 454 710 454 710 521 666.5 c 128,-1,25
 588 623 588 623 601 550 c 1,26,27
 588 538 588 538 571 530 c 128,-1,28
 554 522 554 522 541 522 c 0,29,30
 527 522 527 522 518.5 528 c 128,-1,31
 510 534 510 534 502 551 c 0,32,33
 482 591 482 591 442 612 c 128,-1,34
 402 633 402 633 346 633 c 0,35,36
 279 633 279 633 240.5 605.5 c 128,-1,37
 202 578 202 578 202 531 c 0,38,39
 202 501 202 501 214 481.5 c 128,-1,40
 226 462 226 462 256 446 c 128,-1,41
 286 430 286 430 343 413 c 0,42,43
 431 385 431 385 479.5 359.5 c 128,-1,44
 528 334 528 334 548.5 302 c 128,-1,45
 569 270 569 270 569 223 c 0,46,47
 569 114 569 114 493 52 c 128,-1,48
 417 -10 417 -10 283 -10 c 0,49,0
 210 -10 210 -10 153 8.5 c 128,-1,1
EndSplineSet
EndChar

StartChar: Scedilla
Encoding: 350 350 151
Width: 642
GlyphClass: 2
Flags: W
AnchorPoint: "Anchor-10" 0 0 basechar 0
AnchorPoint: "Anchor-9" 0 0 basechar 0
AnchorPoint: "Anchor-8" 0 0 basechar 0
AnchorPoint: "Anchor-7" 237 -214 basechar 0
LayerCount: 2
Fore
SplineSet
479.5 359.5 m 128,-1,1
 528 334 528 334 548.5 302 c 128,-1,2
 569 270 569 270 569 223 c 0,3,4
 569 117 569 117 497.5 55.5 c 128,-1,5
 426 -6 426 -6 298 -10 c 1,6,-1
 254 -54 l 1,7,-1
 263 -54 l 2,8,9
 301 -54 301 -54 325 -72.5 c 128,-1,10
 349 -91 349 -91 349 -123 c 0,11,12
 349 -175 349 -175 308.5 -203.5 c 128,-1,13
 268 -232 268 -232 207 -232 c 0,14,15
 161 -232 161 -232 138.5 -221.5 c 128,-1,16
 116 -211 116 -211 116 -192 c 0,17,18
 116 -182 116 -182 122 -170 c 1,19,20
 163 -181 163 -181 205 -181 c 0,21,22
 236 -181 236 -181 253.5 -168 c 128,-1,23
 271 -155 271 -155 271 -134 c 0,24,25
 271 -121 271 -121 261 -112.5 c 128,-1,26
 251 -104 251 -104 231 -104 c 0,27,28
 217 -104 217 -104 194 -110 c 1,29,-1
 175 -75 l 1,30,-1
 233 -8 l 1,31,32
 143 1 143 1 87.5 40 c 128,-1,33
 32 79 32 79 32 135 c 0,34,35
 32 168 32 168 53.5 186.5 c 128,-1,36
 75 205 75 205 114 206 c 1,37,38
 117 140 117 140 161 104 c 128,-1,39
 205 68 205 68 284 68 c 0,40,41
 370 68 370 68 417 102.5 c 128,-1,42
 464 137 464 137 464 201 c 0,43,44
 464 235 464 235 450 256.5 c 128,-1,45
 436 278 436 278 402 295 c 128,-1,46
 368 312 368 312 302 331 c 0,47,48
 193 362 193 362 146.5 406 c 128,-1,49
 100 450 100 450 100 523 c 0,50,51
 100 578 100 578 132 620.5 c 128,-1,52
 164 663 164 663 221.5 686.5 c 128,-1,53
 279 710 279 710 354 710 c 0,54,55
 454 710 454 710 521 666.5 c 128,-1,56
 588 623 588 623 601 550 c 1,57,58
 588 538 588 538 571 530 c 128,-1,59
 554 522 554 522 541 522 c 0,60,61
 527 522 527 522 518.5 528 c 128,-1,62
 510 534 510 534 502 551 c 0,63,64
 482 591 482 591 442 612 c 128,-1,65
 402 633 402 633 346 633 c 0,66,67
 279 633 279 633 240.5 605.5 c 128,-1,68
 202 578 202 578 202 531 c 0,69,70
 202 501 202 501 214 481.5 c 128,-1,71
 226 462 226 462 256 446 c 128,-1,72
 286 430 286 430 343 413 c 0,73,0
 431 385 431 385 479.5 359.5 c 128,-1,1
EndSplineSet
Substitution2: "'locl' Localized Forms in Latin lookup 7 subtable" uni0218
Substitution2: "'locl' Localized Forms in Latin lookup 6 subtable" uni0218
Substitution2: "'aalt' Access All Alternates lookup 0 subtable" uni0218
EndChar

StartChar: uni1E9E
Encoding: 7838 7838 156
Width: 710
Flags: W
LayerCount: 2
Fore
SplineSet
577 336 m 128,-1,1
 621 294 621 294 621 223 c 256,2,3
 621 152 621 152 589.5 99.5 c 128,-1,4
 558 47 558 47 500.5 18.5 c 128,-1,5
 443 -10 443 -10 366 -10 c 0,6,7
 303 -10 303 -10 251 9.5 c 128,-1,8
 199 29 199 29 199 67 c 0,9,10
 199 84 199 84 209 98.5 c 128,-1,11
 219 113 219 113 236 115 c 1,12,13
 289 65 289 65 367 65 c 0,14,15
 438 65 438 65 479.5 107.5 c 128,-1,16
 521 150 521 150 521 221 c 0,17,18
 521 329 521 329 383 329 c 0,19,20
 358 329 358 329 345.5 344 c 128,-1,21
 333 359 333 359 335 381 c 1,22,-1
 515 547 l 1,23,24
 493 633 493 633 367 633 c 0,25,26
 294 633 294 633 245 590.5 c 128,-1,27
 196 548 196 548 184 466 c 2,28,-1
 119 0 l 1,29,-1
 20 0 l 1,30,-1
 86 466 l 2,31,32
 102 580 102 580 177.5 644 c 128,-1,33
 253 708 253 708 371 708 c 0,34,35
 446 708 446 708 501 683.5 c 128,-1,36
 556 659 556 659 585.5 618 c 128,-1,37
 615 577 615 577 619 529 c 1,38,-1
 464 391 l 1,39,0
 533 378 533 378 577 336 c 128,-1,1
EndSplineSet
EndChar

StartChar: uni018F
Encoding: 399 399 157
Width: 702
Flags: W
LayerCount: 2
Fore
SplineSet
508.5 679 m 128,-1,1
 570 648 570 648 606 585 c 128,-1,2
 642 522 642 522 642 429 c 0,3,4
 642 302 642 302 603.5 203 c 128,-1,5
 565 104 565 104 485.5 47 c 128,-1,6
 406 -10 406 -10 288 -10 c 256,7,8
 170 -10 170 -10 98 53 c 128,-1,9
 26 116 26 116 26 241 c 0,10,11
 26 280 26 280 40 370 c 1,12,-1
 540 370 l 1,13,14
 542 408 542 408 542 428 c 0,15,16
 542 530 542 530 496 582 c 128,-1,17
 450 634 450 634 366 634 c 0,18,19
 309 634 309 634 267 616 c 128,-1,20
 225 598 225 598 188 569 c 0,21,22
 174 557 174 557 159 557 c 256,23,24
 144 557 144 557 129.5 571 c 128,-1,25
 115 585 115 585 106 610 c 1,26,27
 147 656 147 656 214.5 683 c 128,-1,28
 282 710 282 710 371 710 c 0,29,0
 447 710 447 710 508.5 679 c 128,-1,1
445 128 m 128,-1,31
 505 190 505 190 528 294 c 1,32,-1
 128 294 l 1,33,34
 124 269 124 269 124 241 c 0,35,36
 124 156 124 156 167 111 c 128,-1,37
 210 66 210 66 290 66 c 0,38,30
 385 66 385 66 445 128 c 128,-1,31
EndSplineSet
EndChar

StartChar: T
Encoding: 84 84 158
Width: 534
GlyphClass: 2
Flags: W
AnchorPoint: "Anchor-10" 0 0 basechar 0
AnchorPoint: "Anchor-9" 303 660 basechar 0
AnchorPoint: "Anchor-8" 0 0 basechar 0
AnchorPoint: "Anchor-7" 211 0 basechar 0
LayerCount: 2
Fore
SplineSet
561 685 m 256,1,2
 561 674 561 674 560 669 c 0,3,4
 553 623 553 623 514 623 c 2,5,-1
 346 623 l 1,6,-1
 259 0 l 1,7,-1
 161 0 l 1,8,-1
 248 623 l 1,9,-1
 46 623 l 1,10,-1
 56 700 l 1,11,-1
 560 700 l 1,12,0
 561 696 561 696 561 685 c 256,1,2
EndSplineSet
EndChar

StartChar: Tbar
Encoding: 358 358 159
Width: 533
GlyphClass: 2
Flags: W
AnchorPoint: "Anchor-10" 0 0 basechar 0
AnchorPoint: "Anchor-9" 303 660 basechar 0
AnchorPoint: "Anchor-8" 0 0 basechar 0
AnchorPoint: "Anchor-7" 211 0 basechar 0
LayerCount: 2
Fore
SplineSet
561 685 m 256,1,2
 561 674 561 674 560 669 c 0,3,4
 553 623 553 623 514 623 c 2,5,-1
 346 623 l 1,6,-1
 310 363 l 1,7,-1
 431 363 l 1,8,-1
 421 292 l 1,9,-1
 300 292 l 1,10,-1
 259 0 l 1,11,-1
 161 0 l 1,12,-1
 202 292 l 1,13,-1
 83 292 l 1,14,-1
 93 363 l 1,15,-1
 212 363 l 1,16,-1
 248 623 l 1,17,-1
 46 623 l 1,18,-1
 56 700 l 1,19,-1
 560 700 l 1,20,0
 561 696 561 696 561 685 c 256,1,2
EndSplineSet
EndChar

StartChar: U
Encoding: 85 85 165
Width: 709
GlyphClass: 2
Flags: W
AnchorPoint: "Anchor-10" 662 673 basechar 0
AnchorPoint: "Anchor-9" 389 657 basechar 0
AnchorPoint: "Anchor-8" 389 10 basechar 0
AnchorPoint: "Anchor-7" 298 0 basechar 0
LayerCount: 2
Fore
SplineSet
56 191 m 0,1,2
 56 216 56 216 61 251 c 2,3,-1
 124 700 l 1,4,-1
 223 700 l 1,5,-1
 158 237 l 2,6,7
 155 218 155 218 155 199 c 0,8,9
 155 133 155 133 193 100.5 c 128,-1,10
 231 68 231 68 308 68 c 0,11,12
 397 68 397 68 445 109.5 c 128,-1,13
 493 151 493 151 505 237 c 2,14,-1
 570 700 l 1,15,-1
 669 700 l 1,16,-1
 606 251 l 2,17,18
 588 118 588 118 512.5 54 c 128,-1,19
 437 -10 437 -10 297 -10 c 0,20,0
 56 -10 56 -10 56 191 c 0,1,2
EndSplineSet
EndChar

StartChar: Uhorn
Encoding: 431 431 178
Width: 709
GlyphClass: 2
Flags: W
AnchorPoint: "Anchor-10" 662 673 basechar 0
AnchorPoint: "Anchor-9" 389 657 basechar 0
AnchorPoint: "Anchor-8" 389 10 basechar 0
AnchorPoint: "Anchor-7" 298 0 basechar 0
LayerCount: 2
Fore
SplineSet
813.5 839 m 128,-1,1
 829 823 829 823 829 794 c 0,2,3
 829 783 829 783 828 777 c 0,4,5
 820 718 820 718 777 682.5 c 128,-1,6
 734 647 734 647 661 643 c 1,7,-1
 606 251 l 2,8,9
 588 118 588 118 512.5 54 c 128,-1,10
 437 -10 437 -10 297 -10 c 0,11,12
 56 -10 56 -10 56 191 c 0,13,14
 56 216 56 216 61 251 c 2,15,-1
 124 700 l 1,16,-1
 223 700 l 1,17,-1
 158 237 l 2,18,19
 155 218 155 218 155 199 c 0,20,21
 155 133 155 133 193 100.5 c 128,-1,22
 231 68 231 68 308 68 c 0,23,24
 397 68 397 68 445 109.5 c 128,-1,25
 493 151 493 151 505 237 c 2,26,-1
 570 700 l 1,27,-1
 666 700 l 2,28,29
 696 700 696 700 715.5 718 c 128,-1,30
 735 736 735 736 740 767 c 0,31,32
 744 798 744 798 718 819 c 1,33,34
 723 834 723 834 737.5 844.5 c 128,-1,35
 752 855 752 855 771 855 c 0,36,0
 798 855 798 855 813.5 839 c 128,-1,1
EndSplineSet
EndChar

StartChar: Uogonek
Encoding: 370 370 186
Width: 709
GlyphClass: 2
Flags: W
AnchorPoint: "Anchor-10" 662 673 basechar 0
AnchorPoint: "Anchor-9" 389 657 basechar 0
AnchorPoint: "Anchor-8" 389 10 basechar 0
AnchorPoint: "Anchor-7" 298 0 basechar 0
LayerCount: 2
Fore
SplineSet
669 700 m 1,0,-1
 606 251 l 2,1,2
 590 136 590 136 532 73 c 128,-1,3
 474 10 474 10 370 -5 c 1,4,5
 344 -28 344 -28 327.5 -53.5 c 128,-1,6
 311 -79 311 -79 311 -102 c 0,7,8
 311 -124 311 -124 320 -135 c 128,-1,9
 329 -146 329 -146 349 -146 c 0,10,11
 375 -146 375 -146 397 -136 c 1,12,13
 405 -147 405 -147 405 -159 c 0,14,15
 403 -177 403 -177 382.5 -188.5 c 128,-1,16
 362 -200 362 -200 326 -200 c 0,17,18
 280 -200 280 -200 255 -181 c 128,-1,19
 230 -162 230 -162 230 -127 c 0,20,21
 230 -58 230 -58 305 -10 c 1,22,-1
 297 -10 l 2,23,24
 56 -10 56 -10 56 191 c 0,25,26
 56 216 56 216 61 251 c 2,27,-1
 124 700 l 1,28,-1
 223 700 l 1,29,-1
 158 237 l 2,30,31
 155 218 155 218 155 199 c 0,32,33
 155 133 155 133 193 100.5 c 128,-1,34
 231 68 231 68 308 68 c 0,35,36
 397 68 397 68 445 109.5 c 128,-1,37
 493 151 493 151 505 237 c 2,38,-1
 570 700 l 1,39,-1
 669 700 l 1,0,-1
EndSplineSet
EndChar

StartChar: V
Encoding: 86 86 189
Width: 638
GlyphClass: 2
Flags: W
AnchorPoint: "Anchor-10" 0 0 basechar 0
AnchorPoint: "Anchor-9" 354 660 basechar 0
AnchorPoint: "Anchor-8" 0 0 basechar 0
AnchorPoint: "Anchor-7" 262 0 basechar 0
LayerCount: 2
Fore
SplineSet
652 700 m 1,0,1
 598 509 598 509 514 337 c 128,-1,2
 430 165 430 165 310 0 c 1,3,-1
 215 0 l 1,4,5
 142 164 142 164 106 335.5 c 128,-1,6
 70 507 70 507 68 700 c 1,7,-1
 171 700 l 1,8,9
 171 366 171 366 277 106 c 1,10,11
 455 366 455 366 549 700 c 1,12,-1
 652 700 l 1,0,1
EndSplineSet
EndChar

StartChar: W
Encoding: 87 87 190
Width: 869
GlyphClass: 2
Flags: W
AnchorPoint: "Anchor-10" 0 0 basechar 0
AnchorPoint: "Anchor-9" 475 663 basechar 0
AnchorPoint: "Anchor-8" 0 0 basechar 0
AnchorPoint: "Anchor-7" 383 0 basechar 0
LayerCount: 2
Fore
SplineSet
895 700 m 1,0,1
 850 532 850 532 791.5 378 c 128,-1,2
 733 224 733 224 629 0 c 1,3,-1
 520 0 l 1,4,5
 488 189 488 189 474 297 c 128,-1,6
 460 405 460 405 453 508 c 1,7,8
 416 399 416 399 371 289.5 c 128,-1,9
 326 180 326 180 245 0 c 1,10,-1
 136 0 l 1,11,12
 94 210 94 210 75.5 369.5 c 128,-1,13
 57 529 57 529 56 700 c 1,14,-1
 155 700 l 1,15,-1
 155 644 l 2,16,17
 155 514 155 514 166 399 c 128,-1,18
 177 284 177 284 206 114 c 1,19,20
 262 234 262 234 309 349.5 c 128,-1,21
 356 465 356 465 444 700 c 1,22,-1
 513 700 l 1,23,24
 546 419 546 419 559.5 319 c 128,-1,25
 573 219 573 219 591 117 c 1,26,27
 670 294 670 294 715 419.5 c 128,-1,28
 760 545 760 545 801 700 c 1,29,-1
 895 700 l 1,0,1
EndSplineSet
EndChar

StartChar: X
Encoding: 88 88 195
Width: 589
GlyphClass: 2
Flags: W
AnchorPoint: "Anchor-10" 0 0 basechar 0
AnchorPoint: "Anchor-9" 333 660 basechar 0
AnchorPoint: "Anchor-8" 0 0 basechar 0
AnchorPoint: "Anchor-7" 241 0 basechar 0
LayerCount: 2
Fore
SplineSet
536.5 574.5 m 128,-1,1
 499 517 499 517 455.5 472 c 128,-1,2
 412 427 412 427 349 370 c 1,3,4
 398 313 398 313 431.5 263 c 128,-1,5
 465 213 465 213 488 147.5 c 128,-1,6
 511 82 511 82 514 0 c 1,7,-1
 411 0 l 1,8,9
 409 91 409 91 375 161.5 c 128,-1,10
 341 232 341 232 280 308 c 1,11,12
 198 233 198 233 145 162 c 128,-1,13
 92 91 92 91 64 0 c 1,14,-1
 -40 0 l 1,15,16
 -14 82 -14 82 27.5 147.5 c 128,-1,17
 69 213 69 213 116.5 263 c 128,-1,18
 164 313 164 313 229 370 c 1,19,20
 182 427 182 427 151 472 c 128,-1,21
 120 517 120 517 98.5 574.5 c 128,-1,22
 77 632 77 632 73 700 c 1,23,-1
 175 700 l 1,24,25
 181 620 181 620 212 558.5 c 128,-1,26
 243 497 243 497 298 431 c 1,27,28
 372 498 372 498 420 559.5 c 128,-1,29
 468 621 468 621 496 700 c 1,30,-1
 597 700 l 1,31,0
 574 632 574 632 536.5 574.5 c 128,-1,1
EndSplineSet
EndChar

StartChar: Y
Encoding: 89 89 196
Width: 590
GlyphClass: 2
Flags: W
AnchorPoint: "Anchor-10" 0 0 basechar 0
AnchorPoint: "Anchor-9" 330 660 basechar 0
AnchorPoint: "Anchor-8" 0 0 basechar 0
AnchorPoint: "Anchor-7" 238 0 basechar 0
LayerCount: 2
Fore
SplineSet
614 700 m 1,0,-1
 328 294 l 1,1,-1
 287 0 l 1,2,-1
 189 0 l 1,3,-1
 230 294 l 1,4,-1
 58 700 l 1,5,-1
 162 700 l 1,6,-1
 292 383 l 1,7,-1
 511 700 l 1,8,-1
 614 700 l 1,0,-1
EndSplineSet
EndChar

StartChar: Z
Encoding: 90 90 205
Width: 580
GlyphClass: 2
Flags: W
AnchorPoint: "Anchor-10" 0 0 basechar 0
AnchorPoint: "Anchor-9" 322 660 basechar 0
AnchorPoint: "Anchor-8" 0 0 basechar 0
AnchorPoint: "Anchor-7" 230 0 basechar 0
LayerCount: 2
Fore
SplineSet
553 623 m 1,0,-1
 117 73 l 1,1,-1
 484 73 l 1,2,-1
 474 0 l 1,3,-1
 -6 0 l 1,4,-1
 4 73 l 1,5,-1
 447 627 l 1,6,-1
 80 627 l 1,7,-1
 90 700 l 1,8,-1
 564 700 l 1,9,-1
 553 623 l 1,0,-1
EndSplineSet
EndChar

StartChar: a
Encoding: 97 97 210
Width: 561
GlyphClass: 2
Flags: W
AnchorPoint: "Anchor-10" 0 0 basechar 0
AnchorPoint: "Anchor-9" 297 550 basechar 0
AnchorPoint: "Anchor-8" 446 10 basechar 0
AnchorPoint: "Anchor-7" 222 0 basechar 0
LayerCount: 2
Fore
SplineSet
451 160 m 2,0,1
 445 118 445 118 445 92 c 0,2,3
 445 68 445 68 450 51.5 c 128,-1,4
 455 35 455 35 465 20 c 1,5,6
 449 9 449 9 428.5 1.5 c 128,-1,7
 408 -6 408 -6 391 -6 c 0,8,9
 345 -6 345 -6 348 77 c 1,10,11
 275 -10 275 -10 161 -10 c 0,12,13
 93 -10 93 -10 50.5 27.5 c 128,-1,14
 8 65 8 65 8 133 c 0,15,16
 8 230 8 230 103 278 c 128,-1,17
 198 326 198 326 381 334 c 1,18,-1
 386 373 l 2,19,20
 388 393 388 393 388 401 c 0,21,22
 388 444 388 444 362.5 465.5 c 128,-1,23
 337 487 337 487 284 487 c 0,24,25
 236 487 236 487 198.5 468.5 c 128,-1,26
 161 450 161 450 118 415 c 0,27,28
 112 410 112 410 104 410 c 0,29,30
 91 410 91 410 77.5 424 c 128,-1,31
 64 438 64 438 55 461 c 1,32,33
 101 505 101 505 165 532.5 c 128,-1,34
 229 560 229 560 302 560 c 0,35,36
 388 560 388 560 435.5 519 c 128,-1,37
 483 478 483 478 483 406 c 0,38,39
 483 384 483 384 481 373 c 2,40,-1
 451 160 l 2,0,1
279 87 m 128,-1,42
 321 115 321 115 357 165 c 1,43,-1
 372 272 l 1,44,45
 230 267 230 267 168 234.5 c 128,-1,46
 106 202 106 202 106 139 c 0,47,48
 106 59 106 59 192 59 c 0,49,41
 237 59 237 59 279 87 c 128,-1,42
EndSplineSet
Substitution2: "Single Substitution lookup 20 subtable" ordfeminine
Substitution2: "'aalt' Access All Alternates lookup 0 subtable" ordfeminine
EndChar

StartChar: uni0251
Encoding: 593 593 229
Width: 604
Flags: W
LayerCount: 2
Fore
SplineSet
509 342 m 2,0,1
 488 194 488 194 482.5 149 c 128,-1,2
 477 104 477 104 477 68 c 0,3,4
 477 38 477 38 488 14 c 1,5,6
 448 -5 448 -5 413 -5 c 0,7,8
 396 -5 396 -5 388 9 c 128,-1,9
 380 23 380 23 379 52 c 1,10,11
 347 21 347 21 308 5.5 c 128,-1,12
 269 -10 269 -10 218 -10 c 0,13,14
 129 -10 129 -10 71.5 46 c 128,-1,15
 14 102 14 102 14 218 c 0,16,17
 14 319 14 319 48 396.5 c 128,-1,18
 82 474 82 474 149 517 c 128,-1,19
 216 560 216 560 310 560 c 0,20,21
 349 560 349 560 383.5 548 c 128,-1,22
 418 536 418 536 440 519 c 1,23,-1
 444 550 l 1,24,-1
 539 550 l 1,25,-1
 509 342 l 2,0,1
416 349 m 2,27,-1
 429 443 l 1,28,29
 410 465 410 465 377 479 c 128,-1,30
 344 493 344 493 308 493 c 0,31,32
 242 493 242 493 198 455 c 128,-1,33
 154 417 154 417 132.5 355.5 c 128,-1,34
 111 294 111 294 111 222 c 0,35,36
 111 59 111 59 234 59 c 0,37,38
 324 59 324 59 386 135 c 1,39,26
 393 192 393 192 416 349 c 2,27,-1
EndSplineSet
EndChar

StartChar: aogonek
Encoding: 261 261 231
Width: 561
GlyphClass: 2
Flags: W
AnchorPoint: "Anchor-10" 0 0 basechar 0
AnchorPoint: "Anchor-9" 297 550 basechar 0
AnchorPoint: "Anchor-8" 446 10 basechar 0
AnchorPoint: "Anchor-7" 222 0 basechar 0
LayerCount: 2
Fore
SplineSet
451 160 m 2,0,1
 445 118 445 118 445 92 c 0,2,3
 445 68 445 68 450 51.5 c 128,-1,4
 455 35 455 35 465 20 c 1,5,6
 458 15 458 15 442 7 c 0,7,8
 410 -18 410 -18 389 -47 c 128,-1,9
 368 -76 368 -76 368 -102 c 0,10,11
 368 -124 368 -124 377 -135 c 128,-1,12
 386 -146 386 -146 406 -146 c 0,13,14
 432 -146 432 -146 454 -136 c 1,15,16
 462 -147 462 -147 462 -159 c 0,17,18
 460 -177 460 -177 439.5 -188.5 c 128,-1,19
 419 -200 419 -200 383 -200 c 0,20,21
 337 -200 337 -200 312 -181 c 128,-1,22
 287 -162 287 -162 287 -127 c 0,23,24
 287 -53 287 -53 374 -2 c 1,25,26
 347 10 347 10 348 77 c 1,27,28
 275 -10 275 -10 161 -10 c 0,29,30
 93 -10 93 -10 50.5 27.5 c 128,-1,31
 8 65 8 65 8 133 c 0,32,33
 8 230 8 230 103 278 c 128,-1,34
 198 326 198 326 381 334 c 1,35,-1
 386 373 l 2,36,37
 388 393 388 393 388 401 c 0,38,39
 388 444 388 444 362.5 465.5 c 128,-1,40
 337 487 337 487 284 487 c 0,41,42
 236 487 236 487 198.5 468.5 c 128,-1,43
 161 450 161 450 118 415 c 0,44,45
 112 410 112 410 104 410 c 0,46,47
 91 410 91 410 77.5 424 c 128,-1,48
 64 438 64 438 55 461 c 1,49,50
 101 505 101 505 165 532.5 c 128,-1,51
 229 560 229 560 302 560 c 0,52,53
 388 560 388 560 435.5 519 c 128,-1,54
 483 478 483 478 483 406 c 0,55,56
 483 384 483 384 481 373 c 2,57,-1
 451 160 l 2,0,1
279 87 m 128,-1,59
 321 115 321 115 357 165 c 1,60,-1
 372 272 l 1,61,62
 230 267 230 267 168 234.5 c 128,-1,63
 106 202 106 202 106 139 c 0,64,65
 106 59 106 59 192 59 c 0,66,58
 237 59 237 59 279 87 c 128,-1,59
EndSplineSet
EndChar

StartChar: ae
Encoding: 230 230 235
Width: 909
GlyphClass: 2
Flags: W
AnchorPoint: "Anchor-10" 0 0 basechar 0
AnchorPoint: "Anchor-9" 470 550 basechar 0
AnchorPoint: "Anchor-8" 0 0 basechar 0
AnchorPoint: "Anchor-7" 393 0 basechar 0
LayerCount: 2
Fore
SplineSet
468 261 m 1,0,1
 466 227 466 227 466 209 c 0,2,3
 466 134 466 134 499.5 96.5 c 128,-1,4
 533 59 533 59 593 59 c 0,5,6
 643 59 643 59 678.5 80.5 c 128,-1,7
 714 102 714 102 748 144 c 0,8,9
 759 156 759 156 770 156 c 0,10,11
 793 156 793 156 828 128 c 1,12,13
 796 63 796 63 735.5 25.5 c 128,-1,14
 675 -12 675 -12 585 -12 c 0,15,16
 524 -12 524 -12 476.5 10.5 c 128,-1,17
 429 33 429 33 402 77 c 1,18,19
 359 33 359 33 305 10.5 c 128,-1,20
 251 -12 251 -12 176 -12 c 0,21,22
 102 -12 102 -12 55.5 29.5 c 128,-1,23
 9 71 9 71 9 136 c 0,24,25
 9 212 9 212 56.5 253.5 c 128,-1,26
 104 295 104 295 184.5 310 c 128,-1,27
 265 325 265 325 381 325 c 1,28,29
 389 385 389 385 389 399 c 0,30,31
 389 487 389 487 284 487 c 0,32,33
 235 487 235 487 197.5 470 c 128,-1,34
 160 453 160 453 117 420 c 0,35,36
 110 415 110 415 101 415 c 0,37,38
 77 415 77 415 56 470 c 1,39,40
 162 560 162 560 295 560 c 0,41,42
 355 560 355 560 399 539.5 c 128,-1,43
 443 519 443 519 465 481 c 1,44,45
 542 560 542 560 659 560 c 0,46,47
 759 560 759 560 808.5 509 c 128,-1,48
 858 458 858 458 858 354 c 0,49,50
 858 307 858 307 845 261 c 1,51,-1
 468 261 l 1,0,1
539 447 m 128,-1,53
 497 401 497 401 479 325 c 1,54,-1
 765 325 l 1,55,56
 768 348 768 348 768 367 c 0,57,58
 768 426 768 426 738 459.5 c 128,-1,59
 708 493 708 493 647 493 c 0,60,52
 581 493 581 493 539 447 c 128,-1,53
298 82 m 128,-1,62
 341 107 341 107 373 155 c 1,63,64
 369 178 369 178 369 208 c 0,65,66
 369 225 369 225 371 259 c 1,67,68
 242 257 242 257 174.5 232 c 128,-1,69
 107 207 107 207 107 141 c 0,70,71
 107 105 107 105 130.5 81 c 128,-1,72
 154 57 154 57 194 57 c 0,73,61
 255 57 255 57 298 82 c 128,-1,62
EndSplineSet
EndChar

StartChar: b
Encoding: 98 98 237
Width: 610
Flags: W
LayerCount: 2
Fore
SplineSet
501 500 m 128,-1,1
 557 440 557 440 557 337 c 0,2,3
 557 238 557 238 526 159 c 128,-1,4
 495 80 495 80 434.5 35 c 128,-1,5
 374 -10 374 -10 289 -10 c 0,6,7
 238 -10 238 -10 197 8 c 128,-1,8
 156 26 156 26 131 58 c 1,9,10
 112 -2 112 -2 80 -2 c 0,11,12
 41 -2 41 -2 9 17 c 1,13,14
 24 37 24 37 34 67.5 c 128,-1,15
 44 98 44 98 53 157 c 2,16,-1
 142 791 l 1,17,-1
 238 791 l 1,18,-1
 199 514 l 1,19,20
 268 560 268 560 352 560 c 0,21,0
 445 560 445 560 501 500 c 128,-1,1
413.5 138.5 m 128,-1,23
 460 216 460 216 460 335 c 0,24,25
 460 410 460 410 424.5 450.5 c 128,-1,26
 389 491 389 491 331 491 c 0,27,28
 258 491 258 491 188 437 c 1,29,-1
 146 136 l 1,30,31
 190 61 190 61 281 61 c 0,32,22
 367 61 367 61 413.5 138.5 c 128,-1,23
EndSplineSet
EndChar

StartChar: c
Encoding: 99 99 238
Width: 557
GlyphClass: 2
Flags: W
AnchorPoint: "Anchor-10" 0 0 basechar 0
AnchorPoint: "Anchor-9" 314 550 basechar 0
AnchorPoint: "Anchor-8" 0 0 basechar 0
AnchorPoint: "Anchor-7" 237 0 basechar 0
LayerCount: 2
Fore
SplineSet
77.5 53 m 128,-1,1
 14 116 14 116 14 226 c 0,2,3
 14 327 14 327 49.5 402.5 c 128,-1,4
 85 478 85 478 150.5 519 c 128,-1,5
 216 560 216 560 304 560 c 0,6,7
 400 560 400 560 455.5 512 c 128,-1,8
 511 464 511 464 509 381 c 1,9,10
 470 363 470 363 446 363 c 0,11,12
 423 363 423 363 420 396 c 0,13,14
 418 442 418 442 386 467 c 128,-1,15
 354 492 354 492 298 492 c 0,16,17
 211 492 211 492 161 422.5 c 128,-1,18
 111 353 111 353 111 232 c 0,19,20
 111 153 111 153 149 107 c 128,-1,21
 187 61 187 61 252 61 c 0,22,23
 308 61 308 61 344 87 c 128,-1,24
 380 113 380 113 410 176 c 1,25,26
 436 176 436 176 450.5 162.5 c 128,-1,27
 465 149 465 149 465 125 c 0,28,29
 465 87 465 87 437.5 56 c 128,-1,30
 410 25 410 25 361 7.5 c 128,-1,31
 312 -10 312 -10 252 -10 c 0,32,0
 141 -10 141 -10 77.5 53 c 128,-1,1
EndSplineSet
EndChar

StartChar: ccedilla
Encoding: 231 231 241
Width: 557
GlyphClass: 2
Flags: W
AnchorPoint: "Anchor-10" 0 0 basechar 0
AnchorPoint: "Anchor-9" 0 0 basechar 0
AnchorPoint: "Anchor-8" 0 0 basechar 0
AnchorPoint: "Anchor-7" 207 -214 basechar 0
LayerCount: 2
Fore
SplineSet
161 422.5 m 128,-1,1
 111 353 111 353 111 232 c 0,2,3
 111 153 111 153 149 107 c 128,-1,4
 187 61 187 61 252 61 c 0,5,6
 308 61 308 61 344 87 c 128,-1,7
 380 113 380 113 410 176 c 1,8,9
 436 176 436 176 450.5 162.5 c 128,-1,10
 465 149 465 149 465 125 c 0,11,12
 465 88 465 88 439.5 58 c 128,-1,13
 414 28 414 28 369 10 c 128,-1,14
 324 -8 324 -8 267 -10 c 1,15,-1
 223 -54 l 1,16,-1
 232 -54 l 2,17,18
 271 -54 271 -54 295 -72.5 c 128,-1,19
 319 -91 319 -91 319 -123 c 0,20,21
 319 -175 319 -175 278 -203.5 c 128,-1,22
 237 -232 237 -232 176 -232 c 0,23,24
 131 -232 131 -232 108 -221.5 c 128,-1,25
 85 -211 85 -211 85 -192 c 0,26,27
 85 -186 85 -186 91 -170 c 1,28,29
 132 -181 132 -181 174 -181 c 0,30,31
 205 -181 205 -181 222.5 -168 c 128,-1,32
 240 -155 240 -155 240 -134 c 0,33,34
 240 -121 240 -121 230 -112.5 c 128,-1,35
 220 -104 220 -104 201 -104 c 0,36,37
 185 -104 185 -104 164 -110 c 1,38,-1
 145 -75 l 1,39,-1
 203 -7 l 1,40,41
 114 7 114 7 64 68.5 c 128,-1,42
 14 130 14 130 14 226 c 0,43,44
 14 327 14 327 49.5 402.5 c 128,-1,45
 85 478 85 478 150.5 519 c 128,-1,46
 216 560 216 560 304 560 c 0,47,48
 400 560 400 560 455.5 512 c 128,-1,49
 511 464 511 464 509 381 c 1,50,51
 470 363 470 363 446 363 c 0,52,53
 423 363 423 363 420 396 c 0,54,55
 418 442 418 442 386 467 c 128,-1,56
 354 492 354 492 298 492 c 0,57,0
 211 492 211 492 161 422.5 c 128,-1,1
EndSplineSet
EndChar

StartChar: d
Encoding: 100 100 244
Width: 598
GlyphClass: 2
Flags: W
AnchorPoint: "Anchor-10" 598 550 basechar 0
AnchorPoint: "Anchor-9" 347 750 basechar 0
AnchorPoint: "Anchor-8" 0 0 basechar 0
AnchorPoint: "Anchor-7" 242 0 basechar 0
LayerCount: 2
Fore
SplineSet
482 154 m 2,0,1
 474 98 474 98 474 67 c 0,2,3
 474 42 474 42 482 14 c 1,4,5
 442 -5 442 -5 409 -5 c 0,6,7
 377 -5 377 -5 377 57 c 2,8,-1
 377 61 l 1,9,10
 307 -10 307 -10 207 -10 c 0,11,12
 116 -10 116 -10 64.5 47 c 128,-1,13
 13 104 13 104 13 205 c 0,14,15
 13 310 13 310 50 390.5 c 128,-1,16
 87 471 87 471 154.5 515.5 c 128,-1,17
 222 560 222 560 310 560 c 0,18,19
 344 560 344 560 379.5 548.5 c 128,-1,20
 415 537 415 537 438 520 c 1,21,-1
 476 791 l 1,22,-1
 571 791 l 1,23,-1
 482 154 l 2,0,1
427 443 m 1,24,25
 409 465 409 465 375.5 479 c 128,-1,26
 342 493 342 493 306 493 c 0,27,28
 248 493 248 493 203 457.5 c 128,-1,29
 158 422 158 422 133.5 357.5 c 128,-1,30
 109 293 109 293 109 208 c 0,31,32
 109 59 109 59 225 59 c 0,33,34
 272 59 272 59 311.5 80 c 128,-1,35
 351 101 351 101 385 144 c 1,36,-1
 427 443 l 1,24,25
EndSplineSet
EndChar

StartChar: eth
Encoding: 240 240 245
Width: 567
Flags: W
LayerCount: 2
Fore
SplineSet
490 536 m 128,-1,1
 517 454 517 454 517 364 c 0,2,3
 517 -12 517 -12 242 -12 c 0,4,5
 168 -12 168 -12 117 18 c 128,-1,6
 66 48 66 48 41 99 c 128,-1,7
 16 150 16 150 16 214 c 0,8,9
 16 312 16 312 48 388.5 c 128,-1,10
 80 465 80 465 143.5 509 c 128,-1,11
 207 553 207 553 300 553 c 0,12,13
 352 553 352 553 389 533 c 1,14,15
 364 593 364 593 327 641 c 1,16,-1
 229 585 l 1,17,-1
 198 639 l 1,18,-1
 283 688 l 1,19,20
 258 713 258 713 219 740 c 1,21,-1
 293 797 l 1,22,23
 330 771 330 771 366 735 c 1,24,-1
 470 795 l 1,25,-1
 500 740 l 1,26,-1
 408 687 l 1,27,0
 463 618 463 618 490 536 c 128,-1,1
374.5 131 m 128,-1,29
 416 207 416 207 416 330 c 0,30,31
 416 403 416 403 386.5 444.5 c 128,-1,32
 357 486 357 486 295 486 c 0,33,34
 200 486 200 486 155.5 410.5 c 128,-1,35
 111 335 111 335 111 212 c 0,36,37
 111 138 111 138 144.5 96.5 c 128,-1,38
 178 55 178 55 241 55 c 0,39,28
 333 55 333 55 374.5 131 c 128,-1,29
EndSplineSet
EndChar

StartChar: dcroat
Encoding: 273 273 247
Width: 602
GlyphClass: 2
Flags: W
AnchorPoint: "Anchor-10" 598 550 basechar 0
AnchorPoint: "Anchor-9" 347 750 basechar 0
AnchorPoint: "Anchor-8" 0 0 basechar 0
AnchorPoint: "Anchor-7" 242 0 basechar 0
LayerCount: 2
Fore
SplineSet
635 643 m 1,0,-1
 550 643 l 1,1,-1
 482 154 l 2,2,3
 474 98 474 98 474 67 c 0,4,5
 474 42 474 42 482 14 c 1,6,7
 442 -5 442 -5 409 -5 c 0,8,9
 377 -5 377 -5 377 57 c 2,10,-1
 377 61 l 1,11,12
 307 -10 307 -10 207 -10 c 0,13,14
 116 -10 116 -10 64.5 47 c 128,-1,15
 13 104 13 104 13 205 c 0,16,17
 13 310 13 310 50 390.5 c 128,-1,18
 87 471 87 471 154.5 515.5 c 128,-1,19
 222 560 222 560 310 560 c 0,20,21
 344 560 344 560 379.5 548.5 c 128,-1,22
 415 537 415 537 438 520 c 1,23,-1
 455 643 l 1,24,-1
 324 643 l 1,25,-1
 333 707 l 1,26,-1
 464 707 l 1,27,-1
 476 791 l 1,28,-1
 571 791 l 1,29,-1
 559 707 l 1,30,-1
 644 707 l 1,31,-1
 635 643 l 1,0,-1
427 443 m 1,32,33
 409 465 409 465 375.5 479 c 128,-1,34
 342 493 342 493 306 493 c 0,35,36
 248 493 248 493 203 457.5 c 128,-1,37
 158 422 158 422 133.5 357.5 c 128,-1,38
 109 293 109 293 109 208 c 0,39,40
 109 59 109 59 225 59 c 0,41,42
 272 59 272 59 311.5 80 c 128,-1,43
 351 101 351 101 385 144 c 1,44,-1
 427 443 l 1,32,33
EndSplineSet
EndChar

StartChar: e
Encoding: 101 101 250
Width: 567
GlyphClass: 2
Flags: W
AnchorPoint: "Anchor-10" 0 0 basechar 0
AnchorPoint: "Anchor-9" 309 550 basechar 0
AnchorPoint: "Anchor-8" 338 10 basechar 0
AnchorPoint: "Anchor-7" 236 0 basechar 0
LayerCount: 2
Fore
SplineSet
121 261 m 1,0,1
 120 249 120 249 120 224 c 0,2,3
 120 146 120 146 155.5 103.5 c 128,-1,4
 191 61 191 61 254 61 c 0,5,6
 308 61 308 61 343.5 79 c 128,-1,7
 379 97 379 97 407 140 c 0,8,9
 416 153 416 153 429 153 c 0,10,11
 451 153 451 153 487 125 c 1,12,13
 454 58 454 58 393.5 24 c 128,-1,14
 333 -10 333 -10 248 -10 c 0,15,16
 145 -10 145 -10 84 52.5 c 128,-1,17
 23 115 23 115 23 221 c 0,18,19
 23 326 23 326 57.5 402.5 c 128,-1,20
 92 479 92 479 156.5 519.5 c 128,-1,21
 221 560 221 560 310 560 c 0,22,23
 412 560 412 560 463.5 509 c 128,-1,24
 515 458 515 458 515 359 c 0,25,26
 515 319 515 319 507 261 c 1,27,-1
 121 261 l 1,0,1
191 449.5 m 128,-1,29
 146 406 146 406 129 325 c 1,30,-1
 422 325 l 1,31,32
 425 346 425 346 425 371 c 0,33,34
 425 431 425 431 394.5 462 c 128,-1,35
 364 493 364 493 305 493 c 0,36,28
 236 493 236 493 191 449.5 c 128,-1,29
EndSplineSet
EndChar

StartChar: eogonek
Encoding: 281 281 266
Width: 567
GlyphClass: 2
Flags: W
AnchorPoint: "Anchor-10" 0 0 basechar 0
AnchorPoint: "Anchor-9" 309 550 basechar 0
AnchorPoint: "Anchor-8" 338 10 basechar 0
AnchorPoint: "Anchor-7" 236 0 basechar 0
LayerCount: 2
Fore
SplineSet
121 261 m 1,0,1
 120 249 120 249 120 224 c 0,2,3
 120 146 120 146 155.5 103.5 c 128,-1,4
 191 61 191 61 254 61 c 0,5,6
 308 61 308 61 343.5 79 c 128,-1,7
 379 97 379 97 407 140 c 0,8,9
 416 153 416 153 429 153 c 0,10,11
 451 153 451 153 487 125 c 1,12,13
 436 23 436 23 322 -3 c 1,14,15
 294 -26 294 -26 277 -52.5 c 128,-1,16
 260 -79 260 -79 260 -102 c 0,17,18
 260 -146 260 -146 299 -146 c 0,19,20
 324 -146 324 -146 346 -136 c 1,21,22
 354 -145 354 -145 354 -159 c 0,23,24
 352 -177 352 -177 331.5 -188.5 c 128,-1,25
 311 -200 311 -200 275 -200 c 0,26,27
 230 -200 230 -200 204.5 -180.5 c 128,-1,28
 179 -161 179 -161 179 -127 c 0,29,30
 179 -59 179 -59 255 -10 c 1,31,-1
 248 -10 l 2,32,33
 145 -10 145 -10 84 52.5 c 128,-1,34
 23 115 23 115 23 221 c 0,35,36
 23 326 23 326 57.5 402.5 c 128,-1,37
 92 479 92 479 156.5 519.5 c 128,-1,38
 221 560 221 560 310 560 c 0,39,40
 412 560 412 560 463.5 509 c 128,-1,41
 515 458 515 458 515 359 c 0,42,43
 515 319 515 319 507 261 c 1,44,-1
 121 261 l 1,0,1
191 449.5 m 128,-1,46
 146 406 146 406 129 325 c 1,47,-1
 422 325 l 1,48,49
 425 346 425 346 425 371 c 0,50,51
 425 431 425 431 394.5 462 c 128,-1,52
 364 493 364 493 305 493 c 0,53,45
 236 493 236 493 191 449.5 c 128,-1,46
EndSplineSet
EndChar

StartChar: uni0259
Encoding: 601 601 268
Width: 567
GlyphClass: 2
Flags: W
AnchorPoint: "Anchor-10" 0 0 basechar 0
AnchorPoint: "Anchor-9" 330 550 basechar 0
AnchorPoint: "Anchor-8" 228 540 basechar 0
AnchorPoint: "Anchor-7" 257 0 basechar 0
LayerCount: 2
Fore
SplineSet
483 497.5 m 128,-1,1
 544 435 544 435 544 329 c 0,2,3
 544 224 544 224 509.5 147.5 c 128,-1,4
 475 71 475 71 410 30.5 c 128,-1,5
 345 -10 345 -10 256 -10 c 0,6,7
 155 -10 155 -10 103 41 c 128,-1,8
 51 92 51 92 51 191 c 0,9,10
 51 237 51 237 60 289 c 1,11,-1
 445 289 l 1,12,13
 446 301 446 301 446 326 c 0,14,15
 446 404 446 404 411 446.5 c 128,-1,16
 376 489 376 489 312 489 c 0,17,18
 259 489 259 489 223.5 471 c 128,-1,19
 188 453 188 453 159 410 c 0,20,21
 150 397 150 397 137 397 c 0,22,23
 116 397 116 397 80 425 c 1,24,25
 113 492 113 492 173.5 526 c 128,-1,26
 234 560 234 560 319 560 c 0,27,0
 422 560 422 560 483 497.5 c 128,-1,1
375 100.5 m 128,-1,29
 420 144 420 144 437 225 c 1,30,-1
 145 225 l 1,31,32
 142 204 142 204 142 179 c 0,33,34
 142 119 142 119 172 88 c 128,-1,35
 202 57 202 57 261 57 c 0,36,28
 330 57 330 57 375 100.5 c 128,-1,29
EndSplineSet
EndChar

StartChar: f
Encoding: 102 102 269
Width: 345
Flags: W
LayerCount: 2
Fore
SplineSet
382.5 771.5 m 128,-1,1
 407 758 407 758 407 734 c 0,2,3
 407 722 407 722 401.5 711.5 c 128,-1,4
 396 701 396 701 389 699 c 1,5,6
 359 714 359 714 318 714 c 0,7,8
 244 714 244 714 229 620 c 2,9,-1
 219 550 l 1,10,-1
 337 550 l 1,11,-1
 328 485 l 1,12,-1
 210 485 l 1,13,-1
 143 0 l 1,14,-1
 48 0 l 1,15,-1
 116 485 l 1,16,-1
 20 485 l 1,17,-1
 29 550 l 1,18,-1
 125 550 l 1,19,-1
 135 621 l 2,20,21
 145 697 145 697 192 741 c 128,-1,22
 239 785 239 785 310 785 c 0,23,0
 358 785 358 785 382.5 771.5 c 128,-1,1
EndSplineSet
EndChar

StartChar: g
Encoding: 103 103 270
Width: 585
GlyphClass: 2
Flags: W
AnchorPoint: "Anchor-10" 0 0 basechar 0
AnchorPoint: "Anchor-9" 313 550 basechar 0
AnchorPoint: "Anchor-8" 0 0 basechar 0
AnchorPoint: "Anchor-7" 208 -190 basechar 0
LayerCount: 2
Fore
SplineSet
584 508 m 1,1,2
 507 508 507 508 476 487 c 1,3,4
 505 449 505 449 505 399 c 0,5,6
 505 184 505 184 255 184 c 0,7,8
 189 184 189 184 158.5 174.5 c 128,-1,9
 128 165 128 165 128 144 c 0,10,11
 128 125 128 125 160 116.5 c 128,-1,12
 192 108 192 108 267 108 c 0,13,14
 374 108 374 108 430.5 73.5 c 128,-1,15
 487 39 487 39 487 -25 c 0,16,17
 487 -110 487 -110 414.5 -157 c 128,-1,18
 342 -204 342 -204 211 -204 c 0,19,20
 98 -204 98 -204 37.5 -169 c 128,-1,21
 -23 -134 -23 -134 -23 -70 c 0,22,23
 -23 -20 -23 -20 12 13.5 c 128,-1,24
 47 47 47 47 108 55 c 1,25,-1
 108 58 l 1,26,27
 79 65 79 65 62.5 83 c 128,-1,28
 46 101 46 101 46 127 c 0,29,30
 46 158 46 158 70.5 181 c 128,-1,31
 95 204 95 204 137 213 c 1,32,33
 99 234 99 234 78 268.5 c 128,-1,34
 57 303 57 303 57 346 c 0,35,36
 57 450 57 450 120.5 505 c 128,-1,37
 184 560 184 560 304 560 c 0,38,39
 377 560 377 560 428 529 c 1,40,41
 458 556 458 556 491 572.5 c 128,-1,42
 524 589 524 589 552 589 c 0,43,44
 572 589 572 589 581 579 c 128,-1,45
 590 569 590 569 590 548 c 0,46,0
 590 526 590 526 584 508 c 1,1,2
371.5 289.5 m 128,-1,48
 407 326 407 326 407 401 c 0,49,50
 407 448 407 448 379.5 470.5 c 128,-1,51
 352 493 352 493 296 493 c 0,52,53
 155 493 155 493 155 349 c 0,54,55
 155 253 155 253 263 253 c 0,56,47
 336 253 336 253 371.5 289.5 c 128,-1,48
118 11.5 m 128,-1,58
 76 -13 76 -13 76 -60 c 0,59,60
 76 -98 76 -98 109.5 -116 c 128,-1,61
 143 -134 143 -134 214 -134 c 0,62,63
 301 -134 301 -134 346.5 -108.5 c 128,-1,64
 392 -83 392 -83 392 -34 c 0,65,66
 392 3 392 3 356 19.5 c 128,-1,67
 320 36 320 36 241 36 c 0,68,57
 160 36 160 36 118 11.5 c 128,-1,58
EndSplineSet
EndChar

StartChar: h
Encoding: 104 104 277
Width: 630
GlyphClass: 2
Flags: W
AnchorPoint: "Anchor-10" 0 0 basechar 0
AnchorPoint: "Anchor-9" 169 723 basechar 0
AnchorPoint: "Anchor-8" 0 0 basechar 0
AnchorPoint: "Anchor-7" 258 0 basechar 0
LayerCount: 2
Fore
SplineSet
500 521.5 m 128,-1,1
 541 483 541 483 541 415 c 0,2,3
 541 394 541 394 539 383 c 2,4,-1
 485 0 l 1,5,-1
 391 0 l 1,6,-1
 443 372 l 2,7,8
 445 392 445 392 445 399 c 0,9,10
 445 487 445 487 355 487 c 0,11,12
 315 487 315 487 266.5 468.5 c 128,-1,13
 218 450 218 450 174 418 c 1,14,-1
 115 0 l 1,15,-1
 21 0 l 1,16,-1
 132 791 l 1,17,-1
 226 791 l 1,18,-1
 184 489 l 1,19,20
 229 522 229 522 282.5 541 c 128,-1,21
 336 560 336 560 387 560 c 0,22,0
 459 560 459 560 500 521.5 c 128,-1,1
EndSplineSet
EndChar

StartChar: hbar
Encoding: 295 295 278
Width: 650
GlyphClass: 2
Flags: W
AnchorPoint: "Anchor-10" 0 0 basechar 0
AnchorPoint: "Anchor-9" 189 723 basechar 0
AnchorPoint: "Anchor-8" 0 0 basechar 0
AnchorPoint: "Anchor-7" 278 0 basechar 0
LayerCount: 2
Fore
SplineSet
520.5 521 m 128,-1,1
 561 482 561 482 561 414 c 0,2,3
 561 405 561 405 559 383 c 2,4,-1
 505 0 l 1,5,-1
 410 0 l 1,6,-1
 463 372 l 2,7,8
 465 392 465 392 465 399 c 0,9,10
 465 442 465 442 442 464.5 c 128,-1,11
 419 487 419 487 375 487 c 0,12,13
 334 487 334 487 286 468.5 c 128,-1,14
 238 450 238 450 194 418 c 1,15,-1
 135 0 l 1,16,-1
 40 0 l 1,17,-1
 130 642 l 1,18,-1
 53 642 l 1,19,-1
 62 704 l 1,20,-1
 139 704 l 1,21,-1
 151 791 l 1,22,-1
 246 791 l 1,23,-1
 234 704 l 1,24,-1
 361 704 l 1,25,-1
 352 642 l 1,26,-1
 225 642 l 1,27,-1
 204 489 l 1,28,29
 249 522 249 522 302.5 541 c 128,-1,30
 356 560 356 560 407 560 c 0,31,0
 480 560 480 560 520.5 521 c 128,-1,1
EndSplineSet
EndChar

StartChar: dotlessi
Encoding: 305 305 283
Width: 288
GlyphClass: 2
Flags: W
AnchorPoint: "Anchor-10" 0 0 basechar 0
AnchorPoint: "Anchor-9" 164 550 basechar 0
AnchorPoint: "Anchor-8" 134 0 basechar 0
AnchorPoint: "Anchor-7" 87 0 basechar 0
LayerCount: 2
Fore
SplineSet
117 550 m 1,0,-1
 211 550 l 1,1,-1
 134 0 l 1,2,-1
 40 0 l 1,3,-1
 117 550 l 1,0,-1
EndSplineSet
EndChar

StartChar: uni0237
Encoding: 567 567 297
Width: 270
GlyphClass: 2
Flags: W
AnchorPoint: "Anchor-10" 0 0 basechar 0
AnchorPoint: "Anchor-9" 154 550 basechar 0
AnchorPoint: "Anchor-8" 0 0 basechar 0
AnchorPoint: "Anchor-7" -51 -199 basechar 0
LayerCount: 2
Fore
SplineSet
-102.5 -192 m 128,-1,1
 -128 -185 -128 -185 -138 -174 c 0,2,3
 -144 -167 -144 -167 -144 -157 c 0,4,5
 -144 -145 -144 -145 -136 -132.5 c 128,-1,6
 -128 -120 -128 -120 -122 -119 c 0,7,8
 -94 -134 -94 -134 -52 -134 c 0,9,10
 -22 -134 -22 -134 -3 -116 c 128,-1,11
 16 -98 16 -98 21 -62 c 2,12,-1
 107 550 l 1,13,-1
 201 550 l 1,14,-1
 116 -53 l 2,15,16
 106 -123 106 -123 63 -161 c 128,-1,17
 20 -199 20 -199 -51 -199 c 0,18,0
 -77 -199 -77 -199 -102.5 -192 c 128,-1,1
EndSplineSet
EndChar

StartChar: k
Encoding: 107 107 299
Width: 570
Flags: W
LayerCount: 2
Fore
SplineSet
378 246 m 2,1,-1
 498 0 l 1,2,3
 469 0 469 0 446 -3 c 2,4,-1
 420 -4 l 2,5,6
 404 -4 404 -4 394.5 2 c 128,-1,7
 385 8 385 8 380 20 c 2,8,-1
 295 205 l 2,9,10
 283 230 283 230 260 241 c 128,-1,11
 237 252 237 252 196 251 c 2,12,-1
 157 249 l 1,13,-1
 122 0 l 1,14,-1
 27 0 l 1,15,-1
 138 791 l 1,16,-1
 233 791 l 1,17,-1
 168 324 l 1,18,-1
 200 325 l 2,19,20
 227 326 227 326 244.5 335 c 128,-1,21
 262 344 262 344 279 367 c 2,22,-1
 431 550 l 1,23,-1
 542 550 l 1,24,-1
 356 339 l 2,25,26
 353 336 353 336 345.5 326.5 c 128,-1,27
 338 317 338 317 329.5 310 c 128,-1,28
 321 303 321 303 311 298 c 1,29,0
 359 286 359 286 378 246 c 2,1,-1
EndSplineSet
EndChar

StartChar: kgreenlandic
Encoding: 312 312 301
Width: 600
Flags: W
LayerCount: 2
Fore
SplineSet
369 232 m 2,1,-1
 493 15 l 1,2,3
 445 -1 445 -1 421 -1 c 0,4,5
 405 -1 405 -1 395.5 4.5 c 128,-1,6
 386 10 386 10 380 22 c 2,7,-1
 285 192 l 2,8,9
 271 216 271 216 251 227.5 c 128,-1,10
 231 239 231 239 191 238 c 2,11,-1
 155 235 l 1,12,-1
 122 0 l 1,13,-1
 27 0 l 1,14,-1
 104 550 l 1,15,-1
 199 550 l 1,16,-1
 166 311 l 1,17,-1
 195 312 l 2,18,19
 221 313 221 313 236.5 322 c 128,-1,20
 252 331 252 331 270 354 c 2,21,-1
 431 550 l 1,22,-1
 542 550 l 1,23,-1
 340 317 l 2,24,25
 326 301 326 301 309 285 c 1,26,0
 348 269 348 269 369 232 c 2,1,-1
EndSplineSet
EndChar

StartChar: l
Encoding: 108 108 302
Width: 268
GlyphClass: 2
Flags: W
AnchorPoint: "Anchor-10" 268 550 basechar 0
AnchorPoint: "Anchor-9" 182 750 basechar 0
AnchorPoint: "Anchor-8" 0 0 basechar 0
AnchorPoint: "Anchor-7" 77 0 basechar 0
LayerCount: 2
Fore
SplineSet
141 791 m 1,0,-1
 235 791 l 1,1,-1
 124 0 l 1,2,-1
 30 0 l 1,3,-1
 141 791 l 1,0,-1
EndSplineSet
EndChar

StartChar: lslash
Encoding: 322 322 310
Width: 268
GlyphClass: 2
Flags: W
AnchorPoint: "Anchor-10" 268 550 basechar 0
AnchorPoint: "Anchor-9" 182 750 basechar 0
AnchorPoint: "Anchor-8" 0 0 basechar 0
AnchorPoint: "Anchor-7" 77 0 basechar 0
LayerCount: 2
Fore
SplineSet
271 432 m 1,0,-1
 179 392 l 1,1,-1
 124 0 l 1,2,-1
 30 0 l 1,3,-1
 79 348 l 1,4,-1
 -14 307 l 1,5,-1
 -2 390 l 1,6,-1
 90 430 l 1,7,-1
 141 791 l 1,8,-1
 235 791 l 1,9,-1
 190 474 l 1,10,-1
 283 514 l 1,11,-1
 271 432 l 1,0,-1
EndSplineSet
EndChar

StartChar: m
Encoding: 109 109 311
Width: 912
GlyphClass: 2
Flags: W
AnchorPoint: "Anchor-10" 0 0 basechar 0
AnchorPoint: "Anchor-9" 476 550 basechar 0
AnchorPoint: "Anchor-8" 0 0 basechar 0
AnchorPoint: "Anchor-7" 399 0 basechar 0
LayerCount: 2
Fore
SplineSet
789 523 m 128,-1,1
 827 486 827 486 827 423 c 0,2,3
 827 403 827 403 825 392 c 2,4,-1
 771 0 l 1,5,-1
 675 0 l 1,6,-1
 729 389 l 2,7,8
 732 406 732 406 732 420 c 0,9,10
 732 457 732 457 712.5 475 c 128,-1,11
 693 493 693 493 652 493 c 0,12,13
 577 493 577 493 505 423 c 1,14,-1
 503 404 l 1,15,-1
 447 0 l 1,16,-1
 353 0 l 1,17,-1
 408 399 l 2,18,19
 410 413 410 413 410 420 c 0,20,21
 410 455 410 455 390 474 c 128,-1,22
 370 493 370 493 334 493 c 0,23,24
 296 493 296 493 259 475 c 128,-1,25
 222 457 222 457 182 418 c 1,26,-1
 123 0 l 1,27,-1
 28 0 l 1,28,-1
 79 360 l 2,29,30
 93 455 93 455 93 513 c 0,31,32
 93 530 93 530 92 535 c 1,33,34
 110 543 110 543 129 548.5 c 128,-1,35
 148 554 148 554 162 554 c 0,36,37
 193 554 193 554 193 510 c 0,38,39
 193 497 193 497 192 490 c 1,40,41
 234 527 234 527 276 543.5 c 128,-1,42
 318 560 318 560 369 560 c 0,43,44
 416 560 416 560 449 539.5 c 128,-1,45
 482 519 482 519 496 482 c 1,46,47
 539 522 539 522 584.5 541 c 128,-1,48
 630 560 630 560 685 560 c 0,49,0
 751 560 751 560 789 523 c 128,-1,1
EndSplineSet
EndChar

StartChar: n
Encoding: 110 110 313
Width: 610
GlyphClass: 2
Flags: W
AnchorPoint: "Anchor-10" 0 0 basechar 0
AnchorPoint: "Anchor-9" 325 550 basechar 0
AnchorPoint: "Anchor-8" 0 0 basechar 0
AnchorPoint: "Anchor-7" 248 0 basechar 0
LayerCount: 2
Fore
SplineSet
526 420 m 0,1,2
 526 406 526 406 522 372 c 2,3,-1
 488 131 l 2,4,5
 479 65 479 65 479 43 c 0,6,7
 479 23 479 23 483 10 c 1,8,9
 446 -5 446 -5 406 -5 c 0,10,11
 394 -5 394 -5 388 4 c 128,-1,12
 382 13 382 13 382 35 c 0,13,14
 382 51 382 51 389 102 c 2,15,-1
 427 370 l 2,16,17
 430 391 430 391 430 408 c 0,18,19
 430 450 430 450 410 469.5 c 128,-1,20
 390 489 390 489 347 489 c 0,21,22
 271 489 271 489 175 413 c 1,23,-1
 118 0 l 1,24,-1
 23 0 l 1,25,-1
 74 365 l 2,26,27
 88 468 88 468 88 509 c 0,28,29
 88 524 88 524 86 536 c 1,30,31
 137 554 137 554 163 554 c 256,32,33
 189 554 189 554 189 518 c 0,34,35
 189 512 189 512 187 496 c 2,36,-1
 186 486 l 1,37,38
 240 526 240 526 284.5 543 c 128,-1,39
 329 560 329 560 377 560 c 0,40,0
 526 560 526 560 526 420 c 0,1,2
EndSplineSet
EndChar

StartChar: eng
Encoding: 331 331 320
Width: 609
Flags: W
LayerCount: 2
Fore
SplineSet
526 420 m 0,1,2
 526 406 526 406 522 372 c 2,3,-1
 470 0 l 1,4,-1
 464 -40 l 2,5,6
 453 -114 453 -114 405 -156.5 c 128,-1,7
 357 -199 357 -199 281 -199 c 0,8,9
 245 -199 245 -199 215 -187.5 c 128,-1,10
 185 -176 185 -176 189 -153 c 0,11,12
 190 -142 190 -142 197 -131.5 c 128,-1,13
 204 -121 204 -121 210 -119 c 1,14,15
 240 -134 240 -134 283 -134 c 0,16,17
 317 -134 317 -134 339.5 -112 c 128,-1,18
 362 -90 362 -90 368 -49 c 2,19,-1
 375 0 l 1,20,-1
 427 370 l 2,21,22
 430 391 430 391 430 407 c 0,23,24
 430 450 430 450 410 469.5 c 128,-1,25
 390 489 390 489 347 489 c 0,26,27
 269 489 269 489 176 414 c 1,28,-1
 118 0 l 1,29,-1
 23 0 l 1,30,-1
 74 365 l 2,31,32
 88 457 88 457 88 506 c 0,33,34
 88 519 88 519 86 533 c 1,35,36
 132 551 132 551 163 551 c 0,37,38
 189 551 189 551 189 515 c 0,39,40
 189 509 189 509 187 493 c 2,41,-1
 186 486 l 1,42,43
 233 521 233 521 279 540.5 c 128,-1,44
 325 560 325 560 377 560 c 0,45,0
 526 560 526 560 526 420 c 0,1,2
EndSplineSet
EndChar

StartChar: o
Encoding: 111 111 323
Width: 555
GlyphClass: 2
Flags: W
AnchorPoint: "Anchor-10" 425 474 basechar 0
AnchorPoint: "Anchor-9" 297 550 basechar 0
AnchorPoint: "Anchor-8" 306 10 basechar 0
AnchorPoint: "Anchor-7" 220 0 basechar 0
LayerCount: 2
Fore
SplineSet
65.5 44.5 m 128,-1,1
 12 99 12 99 12 205 c 0,2,3
 12 314 12 314 46 394 c 128,-1,4
 80 474 80 474 144 517 c 128,-1,5
 208 560 208 560 295 560 c 0,6,7
 398 560 398 560 451.5 506.5 c 128,-1,8
 505 453 505 453 505 349 c 0,9,10
 505 239 505 239 470.5 158 c 128,-1,11
 436 77 436 77 372 33.5 c 128,-1,12
 308 -10 308 -10 222 -10 c 0,13,0
 119 -10 119 -10 65.5 44.5 c 128,-1,1
360.5 135.5 m 128,-1,15
 408 212 408 212 408 349 c 0,16,17
 408 421 408 421 378.5 456 c 128,-1,18
 349 491 349 491 289 491 c 0,19,20
 204 491 204 491 156 415 c 128,-1,21
 108 339 108 339 108 203 c 0,22,23
 108 130 108 130 137.5 94.5 c 128,-1,24
 167 59 167 59 228 59 c 0,25,14
 313 59 313 59 360.5 135.5 c 128,-1,15
EndSplineSet
Substitution2: "Single Substitution lookup 20 subtable" ordmasculine
Substitution2: "'aalt' Access All Alternates lookup 0 subtable" ordmasculine
EndChar

StartChar: ohorn
Encoding: 417 417 337
Width: 555
GlyphClass: 2
Flags: W
AnchorPoint: "Anchor-10" 425 474 basechar 0
AnchorPoint: "Anchor-9" 294 550 basechar 0
AnchorPoint: "Anchor-8" 306 10 basechar 0
AnchorPoint: "Anchor-7" 217 0 basechar 0
LayerCount: 2
Fore
SplineSet
576.5 640 m 128,-1,1
 592 624 592 624 592 595 c 0,2,3
 592 584 592 584 591 578 c 0,4,5
 585 533 585 533 558 501 c 128,-1,6
 531 469 531 469 486 455 c 1,7,8
 505 413 505 413 505 349 c 0,9,10
 505 239 505 239 470.5 158 c 128,-1,11
 436 77 436 77 372 33.5 c 128,-1,12
 308 -10 308 -10 222 -10 c 0,13,14
 119 -10 119 -10 65.5 44.5 c 128,-1,15
 12 99 12 99 12 205 c 0,16,17
 12 314 12 314 46 394 c 128,-1,18
 80 474 80 474 144 517 c 128,-1,19
 208 560 208 560 295 560 c 0,20,21
 400 560 400 560 454 504 c 1,22,23
 474 511 474 511 486.5 527.5 c 128,-1,24
 499 544 499 544 503 568 c 0,25,26
 507 599 507 599 481 620 c 1,27,28
 486 635 486 635 500.5 645.5 c 128,-1,29
 515 656 515 656 534 656 c 0,30,0
 561 656 561 656 576.5 640 c 128,-1,1
360.5 135.5 m 128,-1,32
 408 212 408 212 408 349 c 0,33,34
 408 421 408 421 378.5 456 c 128,-1,35
 349 491 349 491 289 491 c 0,36,37
 204 491 204 491 156 415 c 128,-1,38
 108 339 108 339 108 203 c 0,39,40
 108 130 108 130 137.5 94.5 c 128,-1,41
 167 59 167 59 228 59 c 0,42,31
 313 59 313 59 360.5 135.5 c 128,-1,32
EndSplineSet
EndChar

StartChar: oslash
Encoding: 248 248 345
Width: 555
GlyphClass: 2
Flags: W
AnchorPoint: "Anchor-10" 425 474 basechar 0
AnchorPoint: "Anchor-9" 297 550 basechar 0
AnchorPoint: "Anchor-8" 306 10 basechar 0
AnchorPoint: "Anchor-7" 220 0 basechar 0
LayerCount: 2
Fore
SplineSet
474 478 m 1,0,1
 505 427 505 427 505 349 c 0,2,3
 505 239 505 239 470.5 158 c 128,-1,4
 436 77 436 77 372 33.5 c 128,-1,5
 308 -10 308 -10 222 -10 c 0,6,7
 128 -10 128 -10 75 35 c 1,8,-1
 44 0 l 1,9,-1
 -27 0 l 1,10,-1
 41 76 l 1,11,12
 12 128 12 128 12 205 c 0,13,14
 12 314 12 314 46 394 c 128,-1,15
 80 474 80 474 144 517 c 128,-1,16
 208 560 208 560 295 560 c 0,17,18
 387 560 387 560 438 518 c 1,19,-1
 467 550 l 1,20,-1
 538 550 l 1,21,-1
 474 478 l 1,0,1
112 155 m 1,23,-1
 380 454 l 1,24,25
 352 491 352 491 289 491 c 0,26,27
 204 491 204 491 156 415 c 128,-1,28
 108 339 108 339 108 203 c 0,29,22
 108 174 108 174 112 155 c 1,23,-1
403 400 m 1,31,-1
 134 100 l 1,32,33
 162 59 162 59 228 59 c 0,34,35
 313 59 313 59 360.5 135.5 c 128,-1,36
 408 212 408 212 408 349 c 0,37,30
 408 375 408 375 403 400 c 1,31,-1
EndSplineSet
EndChar

StartChar: oe
Encoding: 339 339 348
Width: 943
GlyphClass: 2
Flags: W
AnchorPoint: "Anchor-10" 425 474 basechar 0
AnchorPoint: "Anchor-9" 686 550 basechar 0
AnchorPoint: "Anchor-8" 715 10 basechar 0
AnchorPoint: "Anchor-7" 613 0 basechar 0
LayerCount: 2
Fore
SplineSet
498 255 m 0,1,2
 497 245 497 245 497 224 c 0,3,4
 497 146 497 146 532 103.5 c 128,-1,5
 567 61 567 61 631 61 c 0,6,7
 684 61 684 61 719.5 79 c 128,-1,8
 755 97 755 97 784 140 c 0,9,10
 793 153 793 153 806 153 c 0,11,12
 827 153 827 153 863 125 c 1,13,14
 830 58 830 58 770 24 c 128,-1,15
 710 -10 710 -10 625 -10 c 0,16,17
 559 -10 559 -10 509.5 16 c 128,-1,18
 460 42 460 42 432 90 c 1,19,20
 395 41 395 41 341.5 15.5 c 128,-1,21
 288 -10 288 -10 222 -10 c 0,22,23
 119 -10 119 -10 65.5 44.5 c 128,-1,24
 12 99 12 99 12 205 c 0,25,26
 12 314 12 314 46 394 c 128,-1,27
 80 474 80 474 144 517 c 128,-1,28
 208 560 208 560 295 560 c 0,29,30
 428 560 428 560 478 472 c 1,31,32
 554 560 554 560 687 560 c 0,33,34
 789 560 789 560 840.5 509 c 128,-1,35
 892 458 892 458 892 359 c 0,36,37
 892 313 892 313 883 261 c 1,38,-1
 499 261 l 2,39,0
 498 259 498 259 498 255 c 0,1,2
568 449.5 m 128,-1,41
 523 406 523 406 506 325 c 1,42,-1
 798 325 l 1,43,44
 801 346 801 346 801 371 c 0,45,46
 801 431 801 431 771 462 c 128,-1,47
 741 493 741 493 682 493 c 0,48,40
 613 493 613 493 568 449.5 c 128,-1,41
341.5 109.5 m 128,-1,50
 386 160 386 160 401 253 c 0,51,52
 403 282 403 282 407 309 c 0,53,54
 408 322 408 322 408 349 c 0,55,56
 408 421 408 421 378.5 456 c 128,-1,57
 349 491 349 491 289 491 c 0,58,59
 204 491 204 491 156 415 c 128,-1,60
 108 339 108 339 108 203 c 0,61,62
 108 130 108 130 137.5 94.5 c 128,-1,63
 167 59 167 59 228 59 c 0,64,49
 297 59 297 59 341.5 109.5 c 128,-1,50
EndSplineSet
EndChar

StartChar: p
Encoding: 112 112 349
Width: 598
Flags: W
LayerCount: 2
Fore
SplineSet
497.5 501.5 m 128,-1,1
 549 443 549 443 549 336 c 0,2,3
 549 231 549 231 513 153 c 128,-1,4
 477 75 477 75 411 32.5 c 128,-1,5
 345 -10 345 -10 257 -10 c 0,6,7
 220 -10 220 -10 184 -3.5 c 128,-1,8
 148 3 148 3 122 14 c 1,9,-1
 89 -223 l 1,10,-1
 -6 -223 l 1,11,-1
 75 357 l 2,12,13
 88 448 88 448 88 493 c 0,14,15
 88 516 88 516 81 533 c 1,16,17
 125 554 125 554 157 554 c 0,18,19
 188 554 188 554 188 504 c 2,20,-1
 188 499 l 1,21,22
 257 560 257 560 352 560 c 0,23,0
 446 560 446 560 497.5 501.5 c 128,-1,1
397.5 133 m 128,-1,25
 451 207 451 207 451 335 c 0,26,27
 451 412 451 412 420.5 451.5 c 128,-1,28
 390 491 390 491 331 491 c 0,29,30
 249 491 249 491 178 418 c 1,31,-1
 132 85 l 1,32,33
 184 59 184 59 252 59 c 0,34,24
 344 59 344 59 397.5 133 c 128,-1,25
EndSplineSet
EndChar

StartChar: thorn
Encoding: 254 254 350
Width: 609
Flags: W
LayerCount: 2
Fore
SplineSet
497 510.5 m 128,-1,1
 550 461 550 461 550 352 c 0,2,3
 550 319 550 319 544 281 c 0,4,5
 531 187 531 187 489.5 121 c 128,-1,6
 448 55 448 55 386 21.5 c 128,-1,7
 324 -12 324 -12 250 -12 c 0,8,9
 183 -12 183 -12 123 13 c 1,10,-1
 90 -223 l 1,11,-1
 -6 -223 l 1,12,-1
 136 787 l 1,13,-1
 232 787 l 1,14,-1
 192 502 l 1,15,16
 261 560 261 560 352 560 c 0,17,0
 444 560 444 560 497 510.5 c 128,-1,1
452 352 m 0,19,20
 452 425 452 425 422 458 c 128,-1,21
 392 491 392 491 335 491 c 0,22,23
 253 491 253 491 181 423 c 1,24,-1
 133 85 l 1,25,26
 186 57 186 57 252 57 c 0,27,28
 328 57 328 57 379.5 112.5 c 128,-1,29
 431 168 431 168 446 281 c 0,30,18
 452 320 452 320 452 352 c 0,19,20
EndSplineSet
EndChar

StartChar: q
Encoding: 113 113 351
Width: 608
Flags: W
LayerCount: 2
Fore
SplineSet
559 533 m 1,1,2
 545 512 545 512 531.5 464 c 128,-1,3
 518 416 518 416 510 355 c 2,4,-1
 429 -223 l 1,5,-1
 334 -223 l 1,6,-1
 370 31 l 1,7,8
 306 -10 306 -10 227 -10 c 0,9,10
 163 -10 163 -10 114.5 18.5 c 128,-1,11
 66 47 66 47 39.5 99.5 c 128,-1,12
 13 152 13 152 13 222 c 0,13,14
 13 324 13 324 47 400.5 c 128,-1,15
 81 477 81 477 143 518.5 c 128,-1,16
 205 560 205 560 287 560 c 0,17,18
 391 560 391 560 442 503 c 1,19,20
 460 554 460 554 490 554 c 0,21,0
 527 554 527 554 559 533 c 1,1,2
424 420 m 1,22,-1
 425 427 l 1,23,24
 403 459 403 459 369.5 476 c 128,-1,25
 336 493 336 493 293 493 c 0,26,27
 238 493 238 493 196.5 460 c 128,-1,28
 155 427 155 427 132.5 365.5 c 128,-1,29
 110 304 110 304 110 221 c 0,30,31
 110 144 110 144 146 100.5 c 128,-1,32
 182 57 182 57 245 57 c 0,33,34
 282 57 282 57 317 70.5 c 128,-1,35
 352 84 352 84 381 110 c 1,36,-1
 424 420 l 1,22,-1
EndSplineSet
EndChar

StartChar: r
Encoding: 114 114 352
Width: 413
GlyphClass: 2
Flags: W
AnchorPoint: "Anchor-10" 0 0 basechar 0
AnchorPoint: "Anchor-9" 227 550 basechar 0
AnchorPoint: "Anchor-8" 0 0 basechar 0
AnchorPoint: "Anchor-7" 69 0 basechar 0
LayerCount: 2
Fore
SplineSet
409 508 m 1,1,-1
 408 498 l 2,2,3
 403 473 403 473 389 459 c 1,4,5
 365 472 365 472 323 472 c 0,6,7
 258 472 258 472 213.5 423.5 c 128,-1,8
 169 375 169 375 156 290 c 2,9,-1
 116 0 l 1,10,-1
 21 0 l 1,11,-1
 98 550 l 1,12,-1
 193 550 l 1,13,-1
 180 459 l 1,14,15
 209 503 209 503 251 530 c 128,-1,16
 293 557 293 557 337 557 c 0,17,0
 409 557 409 557 409 508 c 1,1,-1
EndSplineSet
EndChar

StartChar: s
Encoding: 115 115 359
Width: 492
GlyphClass: 2
Flags: W
AnchorPoint: "Anchor-10" 0 0 basechar 0
AnchorPoint: "Anchor-9" 263 550 basechar 0
AnchorPoint: "Anchor-8" 0 0 basechar 0
AnchorPoint: "Anchor-7" 186 0 basechar 0
LayerCount: 2
Fore
SplineSet
91.5 3.5 m 128,-1,1
 46 17 46 17 20 40 c 128,-1,2
 -6 63 -6 63 -6 90 c 0,3,4
 -6 112 -6 112 7.5 127 c 128,-1,5
 21 142 21 142 47 146 c 1,6,7
 67 105 67 105 105.5 82 c 128,-1,8
 144 59 144 59 200 59 c 0,9,10
 260 59 260 59 294 83.5 c 128,-1,11
 328 108 328 108 328 153 c 0,12,13
 328 187 328 187 299.5 205.5 c 128,-1,14
 271 224 271 224 211 246 c 0,15,16
 159 264 159 264 126.5 280.5 c 128,-1,17
 94 297 94 297 71 326.5 c 128,-1,18
 48 356 48 356 48 402 c 0,19,20
 48 453 48 453 77 488.5 c 128,-1,21
 106 524 106 524 153.5 542 c 128,-1,22
 201 560 201 560 256 560 c 0,23,24
 327 560 327 560 377 534 c 128,-1,25
 427 508 427 508 451 460 c 1,26,27
 436 443 436 443 420.5 433 c 128,-1,28
 405 423 405 423 393 423 c 0,29,30
 379 423 379 423 368 437 c 0,31,32
 329 493 329 493 253 493 c 0,33,34
 202 493 202 493 171 472 c 128,-1,35
 140 451 140 451 140 414 c 256,36,37
 140 377 140 377 170 356.5 c 128,-1,38
 200 336 200 336 262 314 c 0,39,40
 314 295 314 295 345.5 279 c 128,-1,41
 377 263 377 263 399 234.5 c 128,-1,42
 421 206 421 206 421 162 c 0,43,44
 421 82 421 82 360 36 c 128,-1,45
 299 -10 299 -10 193 -10 c 0,46,0
 137 -10 137 -10 91.5 3.5 c 128,-1,1
EndSplineSet
EndChar

StartChar: scedilla
Encoding: 351 351 362
Width: 492
GlyphClass: 2
Flags: W
AnchorPoint: "Anchor-10" 0 0 basechar 0
AnchorPoint: "Anchor-9" 0 0 basechar 0
AnchorPoint: "Anchor-8" 0 0 basechar 0
AnchorPoint: "Anchor-7" 156 -214 basechar 0
LayerCount: 2
Fore
SplineSet
171 472 m 128,-1,1
 140 451 140 451 140 414 c 256,2,3
 140 377 140 377 170 356.5 c 128,-1,4
 200 336 200 336 262 314 c 0,5,6
 314 295 314 295 345.5 279 c 128,-1,7
 377 263 377 263 399 234.5 c 128,-1,8
 421 206 421 206 421 162 c 0,9,10
 421 86 421 86 367 41 c 128,-1,11
 313 -4 313 -4 218 -9 c 1,12,-1
 173 -54 l 1,13,-1
 181 -54 l 2,14,15
 220 -54 220 -54 244 -72.5 c 128,-1,16
 268 -91 268 -91 268 -123 c 0,17,18
 268 -175 268 -175 227 -203.5 c 128,-1,19
 186 -232 186 -232 126 -232 c 0,20,21
 80 -232 80 -232 57.5 -221.5 c 128,-1,22
 35 -211 35 -211 35 -192 c 0,23,24
 35 -182 35 -182 41 -170 c 1,25,26
 80 -181 80 -181 123 -181 c 0,27,28
 154 -181 154 -181 172 -168 c 128,-1,29
 190 -155 190 -155 190 -134 c 0,30,31
 190 -121 190 -121 179.5 -112.5 c 128,-1,32
 169 -104 169 -104 150 -104 c 0,33,34
 135 -104 135 -104 113 -110 c 1,35,-1
 94 -75 l 1,36,-1
 152 -8 l 1,37,38
 82 -1 82 -1 38 26.5 c 128,-1,39
 -6 54 -6 54 -6 90 c 0,40,41
 -6 112 -6 112 7.5 127 c 128,-1,42
 21 142 21 142 47 146 c 1,43,44
 67 105 67 105 105.5 82 c 128,-1,45
 144 59 144 59 200 59 c 0,46,47
 260 59 260 59 294 83.5 c 128,-1,48
 328 108 328 108 328 153 c 0,49,50
 328 187 328 187 299.5 205.5 c 128,-1,51
 271 224 271 224 211 246 c 0,52,53
 159 264 159 264 126.5 280.5 c 128,-1,54
 94 297 94 297 71 326.5 c 128,-1,55
 48 356 48 356 48 402 c 0,56,57
 48 453 48 453 77 488.5 c 128,-1,58
 106 524 106 524 153.5 542 c 128,-1,59
 201 560 201 560 256 560 c 0,60,61
 327 560 327 560 377 534 c 128,-1,62
 427 508 427 508 451 460 c 1,63,64
 436 443 436 443 420.5 433 c 128,-1,65
 405 423 405 423 393 423 c 0,66,67
 379 423 379 423 368 437 c 0,68,69
 329 493 329 493 253 493 c 0,70,0
 202 493 202 493 171 472 c 128,-1,1
EndSplineSet
Substitution2: "'locl' Localized Forms in Latin lookup 7 subtable" uni0219
Substitution2: "'locl' Localized Forms in Latin lookup 6 subtable" uni0219
Substitution2: "'aalt' Access All Alternates lookup 0 subtable" uni0219
EndChar

StartChar: germandbls
Encoding: 223 223 367
Width: 624
Flags: W
LayerCount: 2
Fore
SplineSet
509 306.5 m 128,-1,1
 536 268 536 268 536 213 c 0,2,3
 536 110 536 110 473 48 c 128,-1,4
 410 -14 410 -14 303 -14 c 0,5,6
 243 -14 243 -14 199 3.5 c 128,-1,7
 155 21 155 21 155 55 c 0,8,9
 155 72 155 72 162.5 82.5 c 128,-1,10
 170 93 170 93 183 96 c 1,11,12
 207 75 207 75 234.5 65 c 128,-1,13
 262 55 262 55 300 55 c 0,14,15
 371 55 371 55 410.5 97 c 128,-1,16
 450 139 450 139 450 210 c 0,17,18
 450 323 450 323 331 323 c 0,19,20
 323 323 323 323 303 321 c 2,21,-1
 279 320 l 2,22,23
 266 320 266 320 257 339.5 c 128,-1,24
 248 359 248 359 248 376 c 0,25,26
 248 390 248 390 257 390 c 2,27,-1
 325 390 l 2,28,29
 389 390 389 390 430 431.5 c 128,-1,30
 471 473 471 473 471 544 c 0,31,32
 471 600 471 600 437 632 c 128,-1,33
 403 664 403 664 342 664 c 0,34,35
 272 664 272 664 231.5 626 c 128,-1,36
 191 588 191 588 180 515 c 2,37,-1
 108 0 l 1,38,-1
 20 0 l 1,39,-1
 92 515 l 2,40,41
 107 619 107 619 175.5 675 c 128,-1,42
 244 731 244 731 350 731 c 0,43,44
 412 731 412 731 459 707.5 c 128,-1,45
 506 684 506 684 532 642.5 c 128,-1,46
 558 601 558 601 558 548 c 0,47,48
 558 481 558 481 525 431 c 128,-1,49
 492 381 492 381 434 359 c 1,50,0
 482 345 482 345 509 306.5 c 128,-1,1
EndSplineSet
EndChar

StartChar: t
Encoding: 116 116 368
Width: 384
GlyphClass: 2
Flags: W
AnchorPoint: "Anchor-10" 366 630 basechar 0
AnchorPoint: "Anchor-9" 192 660 basechar 0
AnchorPoint: "Anchor-8" 0 0 basechar 0
AnchorPoint: "Anchor-7" 192 0 basechar 0
LayerCount: 2
Fore
SplineSet
166 137 m 2,0,1
 164 121 164 121 164 115 c 0,2,3
 164 60 164 60 220 60 c 0,4,5
 260 60 260 60 305 77 c 1,6,7
 319 69 319 69 319 49 c 0,8,9
 319 36 319 36 314.5 28 c 128,-1,10
 310 20 310 20 299 13 c 0,11,12
 284 2 284 2 256.5 -4 c 128,-1,13
 229 -10 229 -10 197 -10 c 0,14,15
 137 -10 137 -10 102 20.5 c 128,-1,16
 67 51 67 51 67 102 c 0,17,18
 67 110 67 110 69 124 c 2,19,-1
 119 483 l 1,20,-1
 22 483 l 1,21,-1
 32 550 l 1,22,-1
 129 550 l 1,23,-1
 150 700 l 1,24,-1
 245 700 l 1,25,-1
 224 550 l 1,26,-1
 355 550 l 1,27,-1
 345 483 l 1,28,-1
 215 483 l 1,29,-1
 166 137 l 2,0,1
EndSplineSet
EndChar

StartChar: tbar
Encoding: 359 359 369
Width: 397
GlyphClass: 2
Flags: W
AnchorPoint: "Anchor-10" 366 630 basechar 0
AnchorPoint: "Anchor-9" 192 660 basechar 0
AnchorPoint: "Anchor-8" 0 0 basechar 0
AnchorPoint: "Anchor-7" 192 0 basechar 0
LayerCount: 2
Fore
SplineSet
215 483 m 1,0,-1
 195 347 l 1,1,-1
 322 347 l 1,2,-1
 313 279 l 1,3,-1
 186 279 l 1,4,-1
 166 137 l 2,5,6
 164 121 164 121 164 115 c 0,7,8
 164 60 164 60 220 60 c 0,9,10
 260 60 260 60 305 77 c 1,11,12
 319 69 319 69 319 49 c 0,13,14
 319 36 319 36 314.5 28 c 128,-1,15
 310 20 310 20 299 13 c 0,16,17
 284 2 284 2 256.5 -4 c 128,-1,18
 229 -10 229 -10 197 -10 c 0,19,20
 137 -10 137 -10 102 20.5 c 128,-1,21
 67 51 67 51 67 102 c 0,22,23
 67 110 67 110 69 124 c 2,24,-1
 91 279 l 1,25,-1
 -6 279 l 1,26,-1
 3 347 l 1,27,-1
 100 347 l 1,28,-1
 119 483 l 1,29,-1
 22 483 l 1,30,-1
 32 550 l 1,31,-1
 129 550 l 1,32,-1
 150 700 l 1,33,-1
 245 700 l 1,34,-1
 224 550 l 1,35,-1
 355 550 l 1,36,-1
 345 483 l 1,37,-1
 215 483 l 1,0,-1
EndSplineSet
EndChar

StartChar: uni0163
Encoding: 355 355 371
Width: 384
GlyphClass: 2
Flags: W
AnchorPoint: "Anchor-10" 366 630 basechar 0
AnchorPoint: "Anchor-9" 0 0 basechar 0
AnchorPoint: "Anchor-8" 0 0 basechar 0
AnchorPoint: "Anchor-7" 162 -214 basechar 0
LayerCount: 2
Fore
SplineSet
166 137 m 2,0,1
 164 121 164 121 164 115 c 0,2,3
 164 60 164 60 220 60 c 0,4,5
 260 60 260 60 305 77 c 1,6,7
 319 69 319 69 319 49 c 0,8,9
 319 36 319 36 314.5 28 c 128,-1,10
 310 20 310 20 299 13 c 0,11,12
 274 -4 274 -4 224 -9 c 1,13,-1
 179 -54 l 1,14,-1
 187 -54 l 2,15,16
 226 -54 226 -54 250 -72.5 c 128,-1,17
 274 -91 274 -91 274 -123 c 0,18,19
 274 -175 274 -175 233 -203.5 c 128,-1,20
 192 -232 192 -232 132 -232 c 0,21,22
 86 -232 86 -232 63.5 -221.5 c 128,-1,23
 41 -211 41 -211 41 -192 c 0,24,25
 41 -182 41 -182 47 -170 c 1,26,27
 85 -181 85 -181 129 -181 c 0,28,29
 160 -181 160 -181 178 -168 c 128,-1,30
 196 -155 196 -155 196 -134 c 0,31,32
 196 -121 196 -121 185.5 -112.5 c 128,-1,33
 175 -104 175 -104 156 -104 c 0,34,35
 142 -104 142 -104 119 -110 c 1,36,-1
 100 -75 l 1,37,-1
 159 -6 l 1,38,39
 115 3 115 3 91.5 31.5 c 128,-1,40
 68 60 68 60 68 103 c 0,41,42
 68 117 68 117 69 124 c 2,43,-1
 119 483 l 1,44,-1
 22 483 l 1,45,-1
 32 550 l 1,46,-1
 129 550 l 1,47,-1
 150 700 l 1,48,-1
 245 700 l 1,49,-1
 224 550 l 1,50,-1
 355 550 l 1,51,-1
 345 483 l 1,52,-1
 215 483 l 1,53,-1
 166 137 l 2,0,1
EndSplineSet
Substitution2: "'locl' Localized Forms in Latin lookup 7 subtable" uni021B
Substitution2: "'locl' Localized Forms in Latin lookup 6 subtable" uni021B
Substitution2: "'aalt' Access All Alternates lookup 0 subtable" uni021B
EndChar

StartChar: u
Encoding: 117 117 376
Width: 617
GlyphClass: 2
Flags: W
AnchorPoint: "Anchor-10" 533 523 basechar 0
AnchorPoint: "Anchor-9" 328 550 basechar 0
AnchorPoint: "Anchor-8" 490 10 basechar 0
AnchorPoint: "Anchor-7" 247 0 basechar 0
LayerCount: 2
Fore
SplineSet
490 120 m 2,0,1
 484 83 484 83 484 57 c 256,2,3
 484 31 484 31 490 10 c 1,4,5
 457 -5 457 -5 425 -5 c 0,6,7
 404 -5 404 -5 395 6 c 128,-1,8
 386 17 386 17 386 46 c 0,9,10
 386 58 386 58 387 65 c 1,11,12
 355 29 355 29 309 9.5 c 128,-1,13
 263 -10 263 -10 210 -10 c 0,14,15
 132 -10 132 -10 90 29 c 128,-1,16
 48 68 48 68 48 140 c 0,17,18
 48 159 48 159 51 180 c 2,19,-1
 103 550 l 1,20,-1
 198 550 l 1,21,-1
 146 182 l 2,22,23
 143 163 143 163 143 147 c 0,24,25
 143 101 143 101 165.5 79 c 128,-1,26
 188 57 188 57 235 57 c 0,27,28
 328 57 328 57 398 148 c 1,29,-1
 455 550 l 1,30,-1
 550 550 l 1,31,-1
 490 120 l 2,0,1
EndSplineSet
EndChar

StartChar: uhorn
Encoding: 432 432 389
Width: 616
GlyphClass: 2
Flags: W
AnchorPoint: "Anchor-10" 533 523 basechar 0
AnchorPoint: "Anchor-9" 328 550 basechar 0
AnchorPoint: "Anchor-8" 490 10 basechar 0
AnchorPoint: "Anchor-7" 247 0 basechar 0
LayerCount: 2
Fore
SplineSet
684.5 689 m 128,-1,1
 700 673 700 673 700 644 c 0,2,3
 700 633 700 633 699 627 c 0,4,5
 691 570 691 570 651 535 c 128,-1,6
 611 500 611 500 542 494 c 1,7,-1
 490 120 l 2,8,9
 484 83 484 83 484 57 c 256,10,11
 484 31 484 31 490 10 c 1,12,13
 457 -5 457 -5 425 -5 c 0,14,15
 404 -5 404 -5 395 6 c 128,-1,16
 386 17 386 17 386 46 c 0,17,18
 386 58 386 58 387 65 c 1,19,20
 355 29 355 29 309 9.5 c 128,-1,21
 263 -10 263 -10 210 -10 c 0,22,23
 132 -10 132 -10 90 29 c 128,-1,24
 48 68 48 68 48 140 c 0,25,26
 48 159 48 159 51 180 c 2,27,-1
 103 550 l 1,28,-1
 198 550 l 1,29,-1
 146 182 l 2,30,31
 143 163 143 163 143 147 c 0,32,33
 143 101 143 101 165.5 79 c 128,-1,34
 188 57 188 57 235 57 c 0,35,36
 328 57 328 57 398 148 c 1,37,-1
 455 550 l 1,38,-1
 537 550 l 2,39,40
 567 550 567 550 586.5 568 c 128,-1,41
 606 586 606 586 611 617 c 0,42,43
 615 648 615 648 589 669 c 1,44,45
 594 684 594 684 608.5 694.5 c 128,-1,46
 623 705 623 705 642 705 c 0,47,0
 669 705 669 705 684.5 689 c 128,-1,1
EndSplineSet
EndChar

StartChar: uogonek
Encoding: 371 371 397
Width: 616
GlyphClass: 2
Flags: W
AnchorPoint: "Anchor-10" 533 523 basechar 0
AnchorPoint: "Anchor-9" 328 550 basechar 0
AnchorPoint: "Anchor-8" 490 10 basechar 0
AnchorPoint: "Anchor-7" 247 0 basechar 0
LayerCount: 2
Fore
SplineSet
497 -136 m 1,1,2
 505 -144 505 -144 505 -158 c 0,3,4
 503 -177 503 -177 483 -188.5 c 128,-1,5
 463 -200 463 -200 427 -200 c 0,6,7
 382 -200 382 -200 356.5 -180.5 c 128,-1,8
 331 -161 331 -161 331 -127 c 0,9,10
 331 -54 331 -54 415 -4 c 1,11,12
 399 -2 399 -2 392.5 9.5 c 128,-1,13
 386 21 386 21 386 46 c 2,14,-1
 387 65 l 1,15,16
 355 29 355 29 309 9.5 c 128,-1,17
 263 -10 263 -10 210 -10 c 0,18,19
 132 -10 132 -10 90 29 c 128,-1,20
 48 68 48 68 48 140 c 0,21,22
 48 159 48 159 51 180 c 2,23,-1
 103 550 l 1,24,-1
 198 550 l 1,25,-1
 146 182 l 2,26,27
 143 163 143 163 143 147 c 0,28,29
 143 101 143 101 165.5 79 c 128,-1,30
 188 57 188 57 235 57 c 0,31,32
 328 57 328 57 398 148 c 1,33,-1
 455 550 l 1,34,-1
 550 550 l 1,35,-1
 490 120 l 2,36,37
 484 83 484 83 484 57 c 256,38,39
 484 31 484 31 490 10 c 1,40,41
 455 -14 455 -14 433 -44.5 c 128,-1,42
 411 -75 411 -75 411 -102 c 0,43,44
 411 -146 411 -146 450 -146 c 0,45,0
 473 -146 473 -146 497 -136 c 1,1,2
EndSplineSet
EndChar

StartChar: v
Encoding: 118 118 400
Width: 517
Flags: W
LayerCount: 2
Fore
SplineSet
519 550 m 1,0,1
 484 391 484 391 418 257 c 128,-1,2
 352 123 352 123 248 0 c 1,3,-1
 158 0 l 1,4,5
 96 108 96 108 66 223.5 c 128,-1,6
 36 339 36 339 36 472 c 0,7,8
 36 523 36 523 38 550 c 1,9,-1
 134 550 l 1,10,11
 131 508 131 508 131 469 c 0,12,13
 131 362 131 362 151.5 270.5 c 128,-1,14
 172 179 172 179 216 92 c 1,15,16
 294 194 294 194 343 303.5 c 128,-1,17
 392 413 392 413 421 550 c 1,18,-1
 519 550 l 1,0,1
EndSplineSet
EndChar

StartChar: w
Encoding: 119 119 401
Width: 773
GlyphClass: 2
Flags: W
AnchorPoint: "Anchor-10" 0 0 basechar 0
AnchorPoint: "Anchor-9" 410 550 basechar 0
AnchorPoint: "Anchor-8" 0 0 basechar 0
AnchorPoint: "Anchor-7" 330 0 basechar 0
LayerCount: 2
Fore
SplineSet
761 550 m 1,0,1
 688 244 688 244 534 0 c 1,2,-1
 458 0 l 1,3,4
 423 96 423 96 404.5 183 c 128,-1,5
 386 270 386 270 382 366 c 1,6,7
 350 272 350 272 307 185 c 128,-1,8
 264 98 264 98 202 0 c 1,9,-1
 125 0 l 1,10,11
 85 104 85 104 66.5 223 c 128,-1,12
 48 342 48 342 48 491 c 2,13,-1
 49 550 l 1,14,-1
 143 550 l 1,15,16
 141 511 141 511 141 440 c 0,17,18
 141 338 141 338 150.5 260.5 c 128,-1,19
 160 183 160 183 182 115 c 1,20,21
 298 301 298 301 364 550 c 1,22,-1
 450 550 l 1,23,-1
 450 516 l 2,24,25
 450 283 450 283 509 113 c 1,26,27
 560 203 560 203 596.5 309 c 128,-1,28
 633 415 633 415 660 550 c 1,29,-1
 761 550 l 1,0,1
EndSplineSet
EndChar

StartChar: x
Encoding: 120 120 406
Width: 496
Flags: W
LayerCount: 2
Fore
SplineSet
424.5 420.5 m 128,-1,1
 374 361 374 361 287 286 c 1,2,3
 356 209 356 209 392 144 c 128,-1,4
 428 79 428 79 423 0 c 1,5,-1
 328 0 l 1,6,7
 331 62 331 62 303.5 116 c 128,-1,8
 276 170 276 170 223 231 c 1,9,10
 154 170 154 170 111 116 c 128,-1,11
 68 62 68 62 54 0 c 1,12,-1
 -41 0 l 1,13,14
 -24 79 -24 79 30 144 c 128,-1,15
 84 209 84 209 175 286 c 1,16,17
 109 361 109 361 75 420.5 c 128,-1,18
 41 480 41 480 45 550 c 1,19,-1
 140 550 l 1,20,21
 137 497 137 497 162.5 448 c 128,-1,22
 188 399 188 399 238 341 c 1,23,24
 304 398 304 398 344 447 c 128,-1,25
 384 496 384 496 396 550 c 1,26,-1
 491 550 l 1,27,0
 475 480 475 480 424.5 420.5 c 128,-1,1
EndSplineSet
EndChar

StartChar: y
Encoding: 121 121 407
Width: 502
GlyphClass: 2
Flags: W
AnchorPoint: "Anchor-10" 0 0 basechar 0
AnchorPoint: "Anchor-9" 271 550 basechar 0
AnchorPoint: "Anchor-8" 0 0 basechar 0
AnchorPoint: "Anchor-7" 316 0 basechar 0
LayerCount: 2
Fore
SplineSet
516 550 m 1,0,-1
 220 -42 l 2,1,2
 176 -128 176 -128 129 -164.5 c 128,-1,3
 82 -201 82 -201 14 -201 c 0,4,5
 -27 -201 -27 -201 -50.5 -187 c 128,-1,6
 -74 -173 -74 -173 -74 -148 c 0,7,8
 -74 -121 -74 -121 -49 -107 c 1,9,10
 -39 -115 -39 -115 -21 -119.5 c 128,-1,11
 -3 -124 -3 -124 16 -124 c 0,12,13
 56 -124 56 -124 87.5 -92.5 c 128,-1,14
 119 -61 119 -61 149 9 c 1,15,-1
 29 550 l 1,16,-1
 126 550 l 1,17,-1
 213 131 l 1,18,-1
 415 550 l 1,19,-1
 516 550 l 1,0,-1
EndSplineSet
EndChar

StartChar: z
Encoding: 122 122 416
Width: 507
GlyphClass: 2
Flags: W
AnchorPoint: "Anchor-10" 0 0 basechar 0
AnchorPoint: "Anchor-9" 273 550 basechar 0
AnchorPoint: "Anchor-8" 0 0 basechar 0
AnchorPoint: "Anchor-7" 196 0 basechar 0
LayerCount: 2
Fore
SplineSet
480 490 m 1,0,-1
 108 71 l 1,1,-1
 429 71 l 1,2,-1
 420 0 l 1,3,-1
 -27 0 l 1,4,-1
 -19 61 l 1,5,-1
 354 479 l 1,6,-1
 66 479 l 1,7,-1
 76 550 l 1,8,-1
 489 550 l 1,9,-1
 480 490 l 1,0,-1
EndSplineSet
EndChar

StartChar: ordfeminine
Encoding: 170 170 423
Width: 380
Flags: W
LayerCount: 2
Fore
SplineSet
361 545 m 128,-1,1
 355 508 355 508 354 501 c 0,2,3
 342 431 342 431 342 405 c 0,4,5
 342 385 342 385 348 373 c 1,6,7
 328 360 328 360 297 360 c 0,8,9
 265 360 265 360 265 401 c 2,10,-1
 265 409 l 1,11,12
 222 359 222 359 149 359 c 0,13,14
 103 359 103 359 74 382.5 c 128,-1,15
 45 406 45 406 45 449 c 0,16,17
 45 524 45 524 109 549 c 128,-1,18
 173 574 173 574 290 575 c 1,19,-1
 291 601 l 2,20,21
 291 657 291 657 228 657 c 0,22,23
 183 657 183 657 144 631 c 0,24,25
 132 623 132 623 125 620.5 c 128,-1,26
 118 618 118 618 110 618 c 0,27,28
 98 618 98 618 90 629.5 c 128,-1,29
 82 641 82 641 80 658 c 1,30,31
 148 712 148 712 245 712 c 0,32,33
 298 712 298 712 332.5 685.5 c 128,-1,34
 367 659 367 659 367 608 c 0,35,0
 367 582 367 582 361 545 c 128,-1,1
226 428.5 m 128,-1,37
 255 444 255 444 273 469 c 1,38,-1
 283 526 l 1,39,40
 204 525 204 525 162 510.5 c 128,-1,41
 120 496 120 496 120 455 c 0,42,43
 120 436 120 436 132.5 424.5 c 128,-1,44
 145 413 145 413 168 413 c 0,45,36
 197 413 197 413 226 428.5 c 128,-1,37
EndSplineSet
EndChar

StartChar: ordmasculine
Encoding: 186 186 424
Width: 380
Flags: W
LayerCount: 2
Fore
SplineSet
79.5 394.5 m 128,-1,1
 44 432 44 432 44 495 c 0,2,3
 44 556 44 556 66.5 605 c 128,-1,4
 89 654 89 654 132 682 c 128,-1,5
 175 710 175 710 233 710 c 0,6,7
 301 710 301 710 336 672 c 128,-1,8
 371 634 371 634 371 569 c 0,9,10
 371 510 371 510 348 461.5 c 128,-1,11
 325 413 325 413 283 385 c 128,-1,12
 241 357 241 357 184 357 c 0,13,0
 115 357 115 357 79.5 394.5 c 128,-1,1
270.5 458.5 m 128,-1,15
 296 505 296 505 296 573 c 0,16,17
 296 655 296 655 226 655 c 0,18,19
 172 655 172 655 146 608 c 128,-1,20
 120 561 120 561 120 494 c 0,21,22
 120 451 120 451 138 431.5 c 128,-1,23
 156 412 156 412 191 412 c 0,24,14
 245 412 245 412 270.5 458.5 c 128,-1,15
EndSplineSet
EndChar

StartChar: uni207F
Encoding: 8319 8319 425
Width: 380
Flags: W
LayerCount: 2
Fore
SplineSet
346 439 m 2,0,1
 343 411 343 411 343 397 c 0,2,3
 343 385 343 385 347 371 c 1,4,5
 314 360 314 360 288 360 c 0,6,7
 277 360 277 360 271.5 367.5 c 128,-1,8
 266 375 266 375 266 392 c 0,9,10
 266 403 266 403 269 421 c 2,11,-1
 293 599 l 2,12,13
 294 605 294 605 294 615 c 0,14,15
 294 636 294 636 283 645.5 c 128,-1,16
 272 655 272 655 247 655 c 0,17,18
 197 655 197 655 138 604 c 1,19,-1
 105 363 l 1,20,-1
 30 363 l 1,21,-1
 62 593 l 2,22,23
 63 598 63 598 66.5 627.5 c 128,-1,24
 70 657 70 657 70 678 c 0,25,26
 70 691 70 691 69 695 c 1,27,28
 80 700 80 700 97 704.5 c 128,-1,29
 114 709 114 709 126 709 c 0,30,31
 149 709 149 709 149 684 c 0,32,33
 149 677 149 677 148 673 c 2,34,-1
 147 664 l 1,35,36
 210 716 210 716 276 716 c 0,37,38
 371 716 371 716 371 631 c 0,39,40
 371 623 371 623 369 605 c 2,41,-1
 346 439 l 2,0,1
EndSplineSet
EndChar

StartChar: uni0394
Encoding: 916 916 426
Width: 566
Flags: W
LayerCount: 2
Fore
SplineSet
515 43 m 1,0,-1
 509 0 l 1,1,-1
 -57 0 l 1,2,-1
 -51 43 l 1,3,-1
 284 700 l 1,4,-1
 364 700 l 1,5,-1
 515 43 l 1,0,-1
414 78 m 1,6,-1
 306 572 l 1,7,-1
 59 78 l 1,8,-1
 414 78 l 1,6,-1
EndSplineSet
EndChar

StartChar: uni03A9
Encoding: 937 937 427
Width: 689
Flags: W
LayerCount: 2
Fore
SplineSet
9 71 m 1,0,-1
 173 71 l 1,1,-1
 183 144 l 1,2,3
 117 165 117 165 77 230 c 128,-1,4
 37 295 37 295 37 381 c 0,5,6
 37 474 37 474 80 549 c 128,-1,7
 123 624 123 624 201.5 667 c 128,-1,8
 280 710 280 710 381 710 c 0,9,10
 466 710 466 710 527.5 676.5 c 128,-1,11
 589 643 589 643 621 584 c 128,-1,12
 653 525 653 525 653 448 c 0,13,14
 653 378 653 378 625 314.5 c 128,-1,15
 597 251 597 251 547 206 c 128,-1,16
 497 161 497 161 432 144 c 1,17,-1
 422 71 l 1,18,-1
 585 71 l 1,19,-1
 576 0 l 1,20,-1
 336 0 l 1,21,-1
 362 190 l 1,22,23
 454 208 454 208 508 277 c 128,-1,24
 562 346 562 346 562 445 c 0,25,26
 562 532 562 532 512.5 585 c 128,-1,27
 463 638 463 638 373 638 c 0,28,29
 300 638 300 638 244.5 607.5 c 128,-1,30
 189 577 189 577 159 520 c 128,-1,31
 129 463 129 463 129 385 c 0,32,33
 129 311 129 311 167 257 c 128,-1,34
 205 203 205 203 267 190 c 1,35,-1
 241 0 l 1,36,-1
 0 0 l 1,37,-1
 9 71 l 1,0,-1
EndSplineSet
EndChar

StartChar: uni03BC
Encoding: 956 956 428
Width: 617
GlyphClass: 2
Flags: W
AnchorPoint: "Anchor-6" 540 523 basechar 0
AnchorPoint: "Anchor-5" 328 550 basechar 0
AnchorPoint: "Anchor-4" 507 12 basechar 0
AnchorPoint: "Anchor-3" 248 0 basechar 0
LayerCount: 2
Fore
SplineSet
490 120 m 2,0,1
 485 86 485 86 485 56 c 0,2,3
 485 28 485 28 490 10 c 1,4,5
 455 -5 455 -5 425 -5 c 0,6,7
 405 -5 405 -5 396 6.5 c 128,-1,8
 387 18 387 18 387 44 c 0,9,10
 387 59 387 59 388 68 c 1,11,12
 359 29 359 29 317 8.5 c 128,-1,13
 275 -12 275 -12 223 -12 c 0,14,15
 160 -12 160 -12 121 16 c 1,16,-1
 89 -220 l 1,17,-1
 -5 -220 l 1,18,-1
 103 550 l 1,19,-1
 198 550 l 1,20,-1
 146 180 l 2,21,22
 144 168 144 168 144 148 c 0,23,24
 144 55 144 55 238 55 c 0,25,26
 334 55 334 55 399 154 c 1,27,-1
 455 550 l 1,28,-1
 550 550 l 1,29,-1
 490 120 l 2,0,1
EndSplineSet
EndChar

StartChar: pi
Encoding: 960 960 429
Width: 640
Flags: W
LayerCount: 2
Fore
SplineSet
383 15 m 128,-1,1
 359 40 359 40 359 82 c 0,2,3
 359 90 359 90 361 106 c 2,4,-1
 413 477 l 1,5,-1
 228 477 l 1,6,-1
 161 0 l 1,7,-1
 69 0 l 1,8,-1
 136 477 l 1,9,-1
 32 477 l 1,10,-1
 42 550 l 1,11,-1
 627 550 l 1,12,-1
 617 477 l 1,13,-1
 505 477 l 1,14,-1
 453 115 l 2,15,16
 452 109 452 109 452 99 c 0,17,18
 452 74 452 74 464.5 63.5 c 128,-1,19
 477 53 477 53 501 53 c 0,20,21
 519 53 519 53 539 58 c 128,-1,22
 559 63 559 63 573 71 c 1,23,-1
 565 13 l 1,24,25
 540 1 540 1 515 -4.5 c 128,-1,26
 490 -10 490 -10 458 -10 c 0,27,0
 407 -10 407 -10 383 15 c 128,-1,1
EndSplineSet
EndChar

StartChar: uni0E01
Encoding: 3585 3585 430
Width: 608
GlyphClass: 2
Flags: W
AnchorPoint: "Anchor-12" 558 550 basechar 0
AnchorPoint: "Anchor-11" 481 0 basechar 0
LayerCount: 2
Fore
SplineSet
475.5 543 m 128,-1,1
 537 500 537 500 537 418 c 0,2,3
 537 401 537 401 534 383 c 2,4,-1
 481 0 l 1,5,-1
 390 0 l 1,6,-1
 443 383 l 2,7,8
 445 405 445 405 445 412 c 0,9,10
 445 466 445 466 411 493.5 c 128,-1,11
 377 521 377 521 313 521 c 0,12,13
 267 521 267 521 227.5 508 c 128,-1,14
 188 495 188 495 164.5 476.5 c 128,-1,15
 141 458 141 458 141 442 c 0,16,17
 141 423 141 423 160.5 407 c 128,-1,18
 180 391 180 391 195 391 c 0,19,20
 206 391 206 391 228 399 c 0,21,22
 245 406 245 406 255 406 c 0,23,24
 264 406 264 406 274 388.5 c 128,-1,25
 284 371 284 371 284 358 c 0,26,27
 284 347 284 347 275 347 c 0,28,29
 214 347 214 347 187 317 c 128,-1,30
 160 287 160 287 151 220 c 2,31,-1
 120 0 l 1,32,-1
 28 0 l 1,33,-1
 59 220 l 2,34,35
 72 308 72 308 126 350 c 1,36,37
 99 363 99 363 76.5 387.5 c 128,-1,38
 54 412 54 412 54 439 c 0,39,40
 54 472 54 472 86.5 506.5 c 128,-1,41
 119 541 119 541 179 563.5 c 128,-1,42
 239 586 239 586 318 586 c 0,43,0
 414 586 414 586 475.5 543 c 128,-1,1
EndSplineSet
EndChar

StartChar: uni0E02
Encoding: 3586 3586 431
Width: 582
GlyphClass: 2
Flags: W
AnchorPoint: "Anchor-12" 528 550 basechar 0
AnchorPoint: "Anchor-11" 451 0 basechar 0
LayerCount: 2
Fore
SplineSet
124.5 24.5 m 128,-1,1
 77 58 77 58 77 124 c 0,2,3
 77 138 77 138 87 204 c 2,4,-1
 93 246 l 2,5,6
 96 264 96 264 113 275 c 0,7,8
 170 306 170 306 203 328.5 c 128,-1,9
 236 351 236 351 258 382.5 c 128,-1,10
 280 414 280 414 280 455 c 0,11,12
 280 492 280 492 257.5 511.5 c 128,-1,13
 235 531 235 531 199 531 c 0,14,15
 159 531 159 531 132 509.5 c 128,-1,16
 105 488 105 488 105 451 c 0,17,18
 105 429 105 429 116 417 c 128,-1,19
 127 405 127 405 145 405 c 0,20,21
 166 405 166 405 177 417 c 128,-1,22
 188 429 188 429 188 450 c 0,23,24
 188 463 188 463 182 473 c 128,-1,25
 176 483 176 483 168 487 c 1,26,27
 177 501 177 501 192 501 c 0,28,29
 210 501 210 501 224 487 c 128,-1,30
 238 473 238 473 238 448 c 0,31,32
 238 405 238 405 211 379.5 c 128,-1,33
 184 354 184 354 141 354 c 0,34,35
 103 354 103 354 77 380.5 c 128,-1,36
 51 407 51 407 51 449 c 0,37,38
 51 511 51 511 95 547 c 128,-1,39
 139 583 139 583 208 583 c 0,40,41
 271 583 271 583 310.5 551.5 c 128,-1,42
 350 520 350 520 350 461 c 0,43,44
 350 409 350 409 326.5 369 c 128,-1,45
 303 329 303 329 270 302 c 128,-1,46
 237 275 237 275 184 240 c 1,47,-1
 180 211 l 2,48,49
 170 140 170 140 170 134 c 0,50,51
 170 56 170 56 261 56 c 0,52,53
 304 56 304 56 328 66.5 c 128,-1,54
 352 77 352 77 364.5 100.5 c 128,-1,55
 377 124 377 124 383 166 c 2,56,-1
 441 576 l 1,57,-1
 532 576 l 1,58,-1
 474 163 l 2,59,60
 461 70 461 70 405.5 30.5 c 128,-1,61
 350 -9 350 -9 252 -9 c 0,62,0
 172 -9 172 -9 124.5 24.5 c 128,-1,1
EndSplineSet
EndChar

StartChar: uni0E03
Encoding: 3587 3587 432
Width: 613
GlyphClass: 2
Flags: W
AnchorPoint: "Anchor-12" 559 550 basechar 0
AnchorPoint: "Anchor-11" 482 0 basechar 0
LayerCount: 2
Fore
SplineSet
140.5 25 m 128,-1,1
 94 59 94 59 94 131 c 0,2,3
 94 157 94 157 104 222 c 0,4,5
 109 262 109 262 133 290.5 c 128,-1,6
 157 319 157 319 203 356 c 0,7,8
 248 392 248 392 270 419 c 128,-1,9
 292 446 292 446 292 485 c 0,10,11
 292 501 292 501 284 509.5 c 128,-1,12
 276 518 276 518 261 518 c 0,13,14
 232 518 232 518 203 480 c 1,15,16
 193 501 193 501 182.5 510.5 c 128,-1,17
 172 520 172 520 153 520 c 0,18,19
 132 520 132 520 117.5 506 c 128,-1,20
 103 492 103 492 103 467 c 0,21,22
 103 449 103 449 113.5 439.5 c 128,-1,23
 124 430 124 430 140 430 c 0,24,25
 172 430 172 430 193 462 c 1,26,27
 205 450 205 450 205 440 c 0,28,29
 205 415 205 415 181.5 397 c 128,-1,30
 158 379 158 379 126 379 c 0,31,32
 86 379 86 379 62.5 401 c 128,-1,33
 39 423 39 423 39 461 c 0,34,35
 39 496 39 496 54.5 523 c 128,-1,36
 70 550 70 550 95 565 c 128,-1,37
 120 580 120 580 147 580 c 0,38,39
 173 580 173 580 188.5 570.5 c 128,-1,40
 204 561 204 561 213 541 c 1,41,42
 242 580 242 580 295 580 c 0,43,44
 332 580 332 580 355 558 c 128,-1,45
 378 536 378 536 378 496 c 0,46,47
 378 445 378 445 353 409.5 c 128,-1,48
 328 374 328 374 279 330 c 0,49,50
 241 295 241 295 222 271.5 c 128,-1,51
 203 248 203 248 198 218 c 0,52,53
 189 148 189 148 189 137 c 0,54,55
 189 96 189 96 212.5 77 c 128,-1,56
 236 58 236 58 283 58 c 0,57,58
 346 58 346 58 376 83 c 128,-1,59
 406 108 406 108 414 166 c 2,60,-1
 472 576 l 1,61,-1
 563 576 l 1,62,-1
 505 162 l 2,63,64
 494 80 494 80 434 35.5 c 128,-1,65
 374 -9 374 -9 272 -9 c 0,66,0
 187 -9 187 -9 140.5 25 c 128,-1,1
EndSplineSet
EndChar

StartChar: uni0E04
Encoding: 3588 3588 433
Width: 627
GlyphClass: 2
Flags: W
AnchorPoint: "Anchor-12" 577 550 basechar 0
AnchorPoint: "Anchor-11" 500 0 basechar 0
LayerCount: 2
Fore
SplineSet
498 537.5 m 128,-1,1
 553 489 553 489 553 405 c 0,2,3
 553 381 553 381 550 357 c 2,4,-1
 500 0 l 1,5,-1
 409 0 l 1,6,-1
 458 352 l 2,7,8
 462 386 462 386 462 400 c 0,9,10
 462 521 462 521 330 521 c 0,11,12
 236 521 236 521 189.5 464 c 128,-1,13
 143 407 143 407 143 309 c 0,14,15
 143 286 143 286 146 266 c 1,16,17
 176 316 176 316 218.5 346.5 c 128,-1,18
 261 377 261 377 313 377 c 0,19,20
 353 377 353 377 377.5 355 c 128,-1,21
 402 333 402 333 402 295 c 0,22,23
 402 246 402 246 371.5 217.5 c 128,-1,24
 341 189 341 189 295 189 c 0,25,26
 270 189 270 189 252 201.5 c 128,-1,27
 234 214 234 214 234 234 c 0,28,29
 234 245 234 245 239.5 254.5 c 128,-1,30
 245 264 245 264 255 268 c 1,31,32
 262 251 262 251 272 243.5 c 128,-1,33
 282 236 282 236 299 236 c 0,34,35
 320 236 320 236 332.5 249.5 c 128,-1,36
 345 263 345 263 346 285 c 0,37,38
 346 302 346 302 335 311.5 c 128,-1,39
 324 321 324 321 304 321 c 0,40,41
 242 321 242 321 193 235.5 c 128,-1,42
 144 150 144 150 120 0 c 1,43,-1
 43 0 l 2,44,45
 27 0 27 0 30 17 c 0,46,47
 34 54 34 54 71 135 c 0,48,49
 85 168 85 168 85 172 c 0,50,51
 85 178 85 178 76 198 c 0,52,53
 65 225 65 225 58 251 c 128,-1,54
 51 277 51 277 51 312 c 0,55,56
 51 394 51 394 85 456 c 128,-1,57
 119 518 119 518 182.5 552 c 128,-1,58
 246 586 246 586 332 586 c 0,59,0
 443 586 443 586 498 537.5 c 128,-1,1
EndSplineSet
EndChar

StartChar: uni0E05
Encoding: 3589 3589 434
Width: 640
GlyphClass: 2
Flags: W
AnchorPoint: "Anchor-12" 590 550 basechar 0
AnchorPoint: "Anchor-11" 513 0 basechar 0
LayerCount: 2
Fore
SplineSet
535.5 526.5 m 128,-1,1
 569 487 569 487 569 421 c 0,2,3
 569 406 569 406 565 370 c 2,4,-1
 513 0 l 1,5,-1
 421 0 l 1,6,-1
 473 370 l 2,7,8
 477 391 477 391 477 414 c 0,9,10
 477 452 477 452 462 475 c 128,-1,11
 447 498 447 498 413 509 c 1,12,13
 385 487 385 487 326 453 c 1,14,15
 272 489 272 489 251 509 c 1,16,17
 193 484 193 484 168.5 434 c 128,-1,18
 144 384 144 384 144 313 c 0,19,20
 144 288 144 288 147 267 c 1,21,22
 178 317 178 317 220.5 347 c 128,-1,23
 263 377 263 377 315 377 c 0,24,25
 354 377 354 377 378.5 355 c 128,-1,26
 403 333 403 333 403 295 c 0,27,28
 403 246 403 246 373 217.5 c 128,-1,29
 343 189 343 189 297 189 c 0,30,31
 271 189 271 189 253.5 201.5 c 128,-1,32
 236 214 236 214 236 234 c 0,33,34
 236 246 236 246 241 255 c 128,-1,35
 246 264 246 264 257 268 c 1,36,37
 263 251 263 251 273.5 243.5 c 128,-1,38
 284 236 284 236 300 236 c 0,39,40
 322 236 322 236 334.5 249.5 c 128,-1,41
 347 263 347 263 347 285 c 0,42,43
 348 302 348 302 337 311.5 c 128,-1,44
 326 321 326 321 306 321 c 0,45,46
 244 321 244 321 194 235 c 128,-1,47
 144 149 144 149 120 0 c 1,48,-1
 43 0 l 2,49,50
 27 0 27 0 30 17 c 0,51,52
 34 54 34 54 71 135 c 0,53,54
 85 168 85 168 85 172 c 0,55,56
 85 178 85 178 76 200 c 0,57,58
 65 229 65 229 58 257 c 128,-1,59
 51 285 51 285 51 320 c 0,60,61
 51 421 51 421 105.5 489 c 128,-1,62
 160 557 160 557 261 586 c 1,63,64
 298 564 298 564 336 524 c 1,65,66
 382 561 382 561 426 586 c 1,67,0
 502 566 502 566 535.5 526.5 c 128,-1,1
EndSplineSet
EndChar

StartChar: uni0E06
Encoding: 3590 3590 435
Width: 669
GlyphClass: 2
Flags: W
AnchorPoint: "Anchor-12" 601 550 basechar 0
AnchorPoint: "Anchor-11" 524 0 basechar 0
LayerCount: 2
Fore
SplineSet
605 576 m 1,0,-1
 541 120 l 2,1,2
 537 92 537 92 534 40 c 2,3,-1
 532 17 l 2,4,5
 529 0 529 0 516 0 c 2,6,-1
 435 0 l 1,7,8
 417 82 417 82 366 131 c 128,-1,9
 315 180 315 180 244 196 c 1,10,-1
 237 127 l 2,11,12
 233 64 233 64 204 27.5 c 128,-1,13
 175 -9 175 -9 115 -9 c 0,14,15
 70 -9 70 -9 43 20 c 128,-1,16
 16 49 16 49 16 100 c 0,17,18
 16 173 16 173 58 215 c 128,-1,19
 100 257 100 257 167 263 c 1,20,21
 177 289 177 289 192.5 309 c 128,-1,22
 208 329 208 329 222.5 344.5 c 128,-1,23
 237 360 237 360 241 364 c 0,24,25
 271 395 271 395 288 424 c 128,-1,26
 305 453 305 453 305 485 c 0,27,28
 305 516 305 516 274 516 c 0,29,30
 244 516 244 516 218 481 c 1,31,32
 203 520 203 520 166 520 c 0,33,34
 145 520 145 520 130.5 506.5 c 128,-1,35
 116 493 116 493 116 469 c 0,36,37
 116 452 116 452 127 442 c 128,-1,38
 138 432 138 432 155 432 c 0,39,40
 191 432 191 432 205 466 c 1,41,42
 221 463 221 463 221 445 c 0,43,44
 221 419 221 419 199.5 400.5 c 128,-1,45
 178 382 178 382 145 382 c 0,46,47
 105 382 105 382 79 406 c 128,-1,48
 53 430 53 430 53 469 c 0,49,50
 53 518 53 518 82.5 549 c 128,-1,51
 112 580 112 580 157 580 c 0,52,53
 206 580 206 580 225 541 c 1,54,55
 248 579 248 579 305 579 c 0,56,57
 343 579 343 579 367 556 c 128,-1,58
 391 533 391 533 391 491 c 0,59,60
 391 448 391 448 371.5 413.5 c 128,-1,61
 352 379 352 379 315 336 c 0,62,63
 293 310 293 310 280 292.5 c 128,-1,64
 267 275 267 275 259 257 c 1,65,66
 322 243 322 243 374 207.5 c 128,-1,67
 426 172 426 172 451 126 c 1,68,-1
 514 576 l 1,69,-1
 605 576 l 1,0,-1
136 68 m 128,-1,71
 142 86 142 86 146 127 c 2,72,-1
 153 201 l 1,73,74
 79 187 79 187 79 102 c 0,75,76
 79 77 79 77 87 63.5 c 128,-1,77
 95 50 95 50 109 50 c 0,78,70
 130 50 130 50 136 68 c 128,-1,71
EndSplineSet
EndChar

StartChar: uni0E07
Encoding: 3591 3591 436
Width: 533
GlyphClass: 2
Flags: W
AnchorPoint: "Anchor-12" 479 550 basechar 0
AnchorPoint: "Anchor-11" 375 0 basechar 0
LayerCount: 2
Fore
SplineSet
144 2 m 128,-1,1
 106 10 106 10 106 21 c 0,2,3
 102 139 102 139 82 216 c 128,-1,4
 62 293 62 293 23 361 c 1,5,6
 34 375 34 375 50.5 383 c 128,-1,7
 67 391 67 391 85 391 c 0,8,9
 105 391 105 391 115.5 382 c 128,-1,10
 126 373 126 373 133 353 c 0,11,12
 179 240 179 240 180 69 c 0,13,14
 180 63 180 63 195.5 59.5 c 128,-1,15
 211 56 211 56 235 56 c 0,16,17
 261 56 261 56 277 60 c 128,-1,18
 293 64 293 64 295 71 c 0,19,20
 332 208 332 208 358 316 c 128,-1,21
 384 424 384 424 384 472 c 0,22,23
 384 522 384 522 341 522 c 0,24,25
 320 522 320 522 307 511 c 128,-1,26
 294 500 294 500 294 481 c 0,27,28
 294 465 294 465 303.5 456 c 128,-1,29
 313 447 313 447 329 447 c 0,30,31
 346 447 346 447 360 454 c 1,32,33
 363 450 363 450 363 441 c 0,34,35
 363 426 363 426 350 414.5 c 128,-1,36
 337 403 337 403 310 403 c 0,37,38
 277 403 277 403 255 424 c 128,-1,39
 233 445 233 445 233 478 c 0,40,41
 233 527 233 527 266 554.5 c 128,-1,42
 299 582 299 582 356 582 c 256,43,44
 413 582 413 582 444.5 553 c 128,-1,45
 476 524 476 524 476 473 c 0,46,47
 476 425 476 425 452.5 334 c 128,-1,48
 429 243 429 243 386 98 c 2,49,-1
 363 21 l 2,50,51
 359 9 359 9 319 1.5 c 128,-1,52
 279 -6 279 -6 231 -6 c 0,53,0
 182 -6 182 -6 144 2 c 128,-1,1
EndSplineSet
EndChar

StartChar: uni0E08
Encoding: 3592 3592 437
Width: 598
GlyphClass: 2
Flags: W
AnchorPoint: "Anchor-12" 553 550 basechar 0
AnchorPoint: "Anchor-11" 434 0 basechar 0
LayerCount: 2
Fore
SplineSet
231 -0.5 m 128,-1,1
 200 8 200 8 201 19 c 0,2,3
 208 117 208 117 208 218 c 0,4,5
 208 257 208 257 198.5 275.5 c 128,-1,6
 189 294 189 294 165 294 c 0,7,8
 146 294 146 294 133.5 282.5 c 128,-1,9
 121 271 121 271 121 254 c 256,10,11
 121 237 121 237 130 227 c 128,-1,12
 139 217 139 217 155 217 c 0,13,14
 169 217 169 217 183 226 c 1,15,16
 188 219 188 219 188 210 c 0,17,18
 188 195 188 195 175.5 184.5 c 128,-1,19
 163 174 163 174 140 174 c 0,20,21
 107 174 107 174 86 195.5 c 128,-1,22
 65 217 65 217 65 253 c 0,23,24
 65 296 65 296 93.5 324 c 128,-1,25
 122 352 122 352 169 352 c 0,26,27
 226 352 226 352 254 319 c 128,-1,28
 282 286 282 286 282 224 c 0,29,30
 282 193 282 193 280 117 c 0,31,32
 278 75 278 75 278 61 c 0,33,34
 278 56 278 56 288 53 c 128,-1,35
 298 50 298 50 313 50 c 0,36,37
 343 50 343 50 348 62 c 2,38,-1
 371 126 l 2,39,40
 401 207 401 207 417 264 c 128,-1,41
 433 321 433 321 433 377 c 0,42,43
 433 446 433 446 396.5 480.5 c 128,-1,44
 360 515 360 515 295 515 c 0,45,46
 245 515 245 515 207.5 499.5 c 128,-1,47
 170 484 170 484 127 455 c 0,48,49
 117 448 117 448 111 445 c 128,-1,50
 105 442 105 442 96 442 c 0,51,52
 83 442 83 442 70 460 c 128,-1,53
 57 478 57 478 50 501 c 1,54,55
 99 538 99 538 158 562 c 128,-1,56
 217 586 217 586 300 586 c 0,57,58
 364 586 364 586 415 562.5 c 128,-1,59
 466 539 466 539 496 493 c 128,-1,60
 526 447 526 447 526 383 c 0,61,62
 526 323 526 323 506.5 260 c 128,-1,63
 487 197 487 197 449 104 c 0,64,65
 435 69 435 69 416 19 c 0,66,67
 412 8 412 8 380 -0.5 c 128,-1,68
 348 -9 348 -9 305 -9 c 256,69,0
 262 -9 262 -9 231 -0.5 c 128,-1,1
EndSplineSet
EndChar

StartChar: uni0E09
Encoding: 3593 3593 438
Width: 636
GlyphClass: 2
Flags: W
AnchorPoint: "Anchor-12" 588 550 basechar 0
AnchorPoint: "Anchor-11" 511 0 basechar 0
LayerCount: 2
Fore
SplineSet
568 112 m 0,1,2
 568 60 568 60 534 28 c 128,-1,3
 500 -4 500 -4 446 -4 c 0,4,5
 403 -4 403 -4 372 24 c 128,-1,6
 341 52 341 52 341 93 c 0,7,8
 341 141 341 141 377 179 c 1,9,10
 318 170 318 170 268.5 118 c 128,-1,11
 219 66 219 66 202 0 c 1,12,-1
 139 0 l 2,13,14
 128 0 128 0 124 4.5 c 128,-1,15
 120 9 120 9 121 19 c 2,16,-1
 133 103 l 2,17,18
 137 131 137 131 149 179 c 0,19,20
 163 233 163 233 165 260 c 0,21,22
 166 280 166 280 154.5 293.5 c 128,-1,23
 143 307 143 307 123 307 c 0,24,25
 101 307 101 307 86 294.5 c 128,-1,26
 71 282 71 282 71 260 c 0,27,28
 71 240 71 240 82 229 c 128,-1,29
 93 218 93 218 111 218 c 0,30,31
 130 218 130 218 140 226 c 1,32,33
 143 220 143 220 143 212 c 0,34,35
 143 197 143 197 129.5 186 c 128,-1,36
 116 175 116 175 92 175 c 0,37,38
 61 175 61 175 39 196.5 c 128,-1,39
 17 218 17 218 17 256 c 0,40,41
 17 303 17 303 51 332 c 128,-1,42
 85 361 85 361 139 361 c 0,43,44
 188 361 188 361 219.5 332.5 c 128,-1,45
 251 304 251 304 251 261 c 0,46,47
 251 243 251 243 245 215 c 128,-1,48
 239 187 239 187 233 162 c 1,49,50
 268 198 268 198 312.5 217.5 c 128,-1,51
 357 237 357 237 406 237 c 0,52,53
 417 237 417 237 437 235 c 1,54,55
 455 256 455 256 459 281 c 2,56,-1
 469 353 l 2,57,58
 472 383 472 383 472 385 c 0,59,60
 472 450 472 450 431 482.5 c 128,-1,61
 390 515 390 515 322 515 c 0,62,63
 220 515 220 515 132 452 c 0,64,65
 129 450 129 450 121 444.5 c 128,-1,66
 113 439 113 439 103 439 c 0,67,68
 91 439 91 439 78 455 c 128,-1,69
 65 471 65 471 57 494 c 1,70,71
 104 531 104 531 173 558.5 c 128,-1,72
 242 586 242 586 330 586 c 0,73,74
 431 586 431 586 498 536.5 c 128,-1,75
 565 487 565 487 565 393 c 0,76,77
 565 379 565 379 561 357 c 2,78,-1
 549 273 l 2,79,80
 544 238 544 238 512 210 c 1,81,0
 568 175 568 175 568 112 c 0,1,2
490.5 67.5 m 128,-1,83
 505 84 505 84 505 110 c 0,84,85
 505 151 505 151 460 170 c 1,86,87
 435 151 435 151 421.5 134 c 128,-1,88
 408 117 408 117 408 94 c 0,89,90
 408 75 408 75 419.5 63 c 128,-1,91
 431 51 431 51 451 51 c 0,92,82
 476 51 476 51 490.5 67.5 c 128,-1,83
EndSplineSet
EndChar

StartChar: uni0E0A
Encoding: 3594 3594 439
Width: 615
GlyphClass: 2
Flags: W
AnchorPoint: "Anchor-12" 544 550 basechar 0
AnchorPoint: "Anchor-11" 467 0 basechar 0
LayerCount: 2
Fore
SplineSet
543 490 m 128,-1,1
 510 451 510 451 464 434 c 1,2,3
 515 411 515 411 515 349 c 0,4,5
 515 341 515 341 513 325 c 2,6,-1
 491 163 l 2,7,8
 477 68 477 68 423 29.5 c 128,-1,9
 369 -9 369 -9 266 -9 c 0,10,11
 185 -9 185 -9 133 25 c 128,-1,12
 81 59 81 59 81 126 c 0,13,14
 81 133 81 133 83 151 c 2,15,-1
 96 246 l 2,16,17
 99 265 99 265 117 275 c 0,18,19
 174 310 174 310 201.5 330 c 128,-1,20
 229 350 229 350 249.5 380 c 128,-1,21
 270 410 270 410 270 451 c 0,22,23
 270 486 270 486 249 505.5 c 128,-1,24
 228 525 228 525 192 525 c 0,25,26
 153 525 153 525 131 506 c 128,-1,27
 109 487 109 487 109 457 c 0,28,29
 109 437 109 437 120 425.5 c 128,-1,30
 131 414 131 414 148 414 c 0,31,32
 169 414 169 414 180 425 c 128,-1,33
 191 436 191 436 191 456 c 0,34,35
 191 477 191 477 182 491 c 1,36,37
 188 494 188 494 198 494 c 0,38,39
 214 494 214 494 225 482 c 128,-1,40
 236 470 236 470 236 450 c 0,41,42
 236 412 236 412 211 386.5 c 128,-1,43
 186 361 186 361 143 361 c 0,44,45
 105 361 105 361 79 387.5 c 128,-1,46
 53 414 53 414 53 455 c 0,47,48
 53 511 53 511 93 545 c 128,-1,49
 133 579 133 579 197 579 c 0,50,51
 256 579 256 579 296 545.5 c 128,-1,52
 336 512 336 512 338 458 c 1,53,54
 478 477 478 477 511 618 c 1,55,56
 542 618 542 618 559 606.5 c 128,-1,57
 576 595 576 595 576 573 c 0,58,0
 576 529 576 529 543 490 c 128,-1,1
424 354 m 0,60,61
 424 379 424 379 413 392.5 c 128,-1,62
 402 406 402 406 390 406 c 0,63,64
 381 406 381 406 370 404 c 128,-1,65
 359 402 359 402 353 402 c 0,66,67
 344 402 344 402 335 415 c 1,68,69
 324 361 324 361 286 321 c 128,-1,70
 248 281 248 281 187 241 c 1,71,-1
 175 159 l 1,72,-1
 173 135 l 2,73,74
 173 94 173 94 197 75 c 128,-1,75
 221 56 221 56 271 56 c 0,76,77
 332 56 332 56 361.5 81 c 128,-1,78
 391 106 391 106 399 166 c 2,79,-1
 422 331 l 2,80,59
 424 349 424 349 424 354 c 0,60,61
EndSplineSet
EndChar

StartChar: uni0E0B
Encoding: 3595 3595 440
Width: 628
GlyphClass: 2
Flags: W
AnchorPoint: "Anchor-12" 565 550 basechar 0
AnchorPoint: "Anchor-11" 488 0 basechar 0
LayerCount: 2
Fore
SplineSet
565.5 494.5 m 128,-1,1
 533 459 533 459 489 441 c 1,2,3
 537 419 537 419 537 359 c 0,4,5
 537 351 537 351 535 329 c 2,6,-1
 511 162 l 2,7,8
 500 80 500 80 438 35.5 c 128,-1,9
 376 -9 376 -9 271 -9 c 0,10,11
 183 -9 183 -9 132 26.5 c 128,-1,12
 81 62 81 62 81 135 c 0,13,14
 81 155 81 155 83 166 c 2,15,-1
 92 229 l 2,16,17
 99 272 99 272 124.5 301 c 128,-1,18
 150 330 150 330 197 366 c 0,19,20
 242 400 242 400 263.5 425.5 c 128,-1,21
 285 451 285 451 285 486 c 0,22,23
 285 518 285 518 254 518 c 0,24,25
 224 518 224 518 197 480 c 1,26,27
 187 501 187 501 176 510.5 c 128,-1,28
 165 520 165 520 146 520 c 0,29,30
 125 520 125 520 111 507.5 c 128,-1,31
 97 495 97 495 97 472 c 0,32,33
 97 453 97 453 108 442.5 c 128,-1,34
 119 432 119 432 135 432 c 0,35,36
 170 432 170 432 185 463 c 1,37,38
 198 456 198 456 197 439 c 0,39,40
 196 416 196 416 173.5 399 c 128,-1,41
 151 382 151 382 118 382 c 0,42,43
 80 382 80 382 56.5 405.5 c 128,-1,44
 33 429 33 429 33 467 c 0,45,46
 33 517 33 517 62.5 548.5 c 128,-1,47
 92 580 92 580 137 580 c 0,48,49
 163 580 163 580 178.5 570.5 c 128,-1,50
 194 561 194 561 206 541 c 1,51,52
 233 580 233 580 285 580 c 0,53,54
 322 580 322 580 346.5 559 c 128,-1,55
 371 538 371 538 371 499 c 0,56,57
 371 481 371 481 366 461 c 1,58,59
 434 476 434 476 471 512 c 128,-1,60
 508 548 508 548 528 618 c 1,61,62
 598 616 598 616 598 568 c 0,63,0
 598 530 598 530 565.5 494.5 c 128,-1,1
446 361 m 0,65,66
 446 386 446 386 436.5 398.5 c 128,-1,67
 427 411 427 411 415 411 c 0,68,69
 409 411 409 411 397.5 408.5 c 128,-1,70
 386 406 386 406 379 406 c 0,71,72
 375 406 375 406 367.5 414 c 128,-1,73
 360 422 360 422 355 432 c 1,74,75
 342 406 342 406 322 384.5 c 128,-1,76
 302 363 302 363 269 334 c 0,77,78
 230 300 230 300 210.5 276.5 c 128,-1,79
 191 253 191 253 186 224 c 2,80,-1
 178 166 l 2,81,82
 176 158 176 158 176 144 c 0,83,84
 176 100 176 100 204 79 c 128,-1,85
 232 58 232 58 282 58 c 0,86,87
 346 58 346 58 379.5 84 c 128,-1,88
 413 110 413 110 420 166 c 2,89,-1
 444 336 l 2,90,64
 446 354 446 354 446 361 c 0,65,66
EndSplineSet
EndChar

StartChar: uni0E0C
Encoding: 3596 3596 441
Width: 917
GlyphClass: 2
Flags: W
AnchorPoint: "Anchor-12" 850 550 basechar 0
AnchorPoint: "Anchor-11" 773 0 basechar 0
LayerCount: 2
Fore
SplineSet
854 576 m 1,0,-1
 792 138 l 2,1,2
 785 77 785 77 783 44 c 0,3,4
 781 18 781 18 781 20 c 1,5,6
 778 0 778 0 763 0 c 2,7,-1
 683 0 l 1,8,9
 660 76 660 76 615.5 118 c 128,-1,10
 571 160 571 160 510 172 c 1,11,-1
 501 106 l 2,12,13
 493 44 493 44 469.5 17.5 c 128,-1,14
 446 -9 446 -9 392 -9 c 0,15,16
 352 -9 352 -9 326 18 c 128,-1,17
 300 45 300 45 300 92 c 0,18,19
 300 148 300 148 335 186.5 c 128,-1,20
 370 225 370 225 428 235 c 1,21,-1
 448 380 l 2,22,23
 450 404 450 404 450 413 c 0,24,25
 450 466 450 466 414.5 493.5 c 128,-1,26
 379 521 379 521 311 521 c 0,27,28
 258 521 258 521 219.5 508 c 128,-1,29
 181 495 181 495 161 477 c 128,-1,30
 141 459 141 459 141 443 c 0,31,32
 141 422 141 422 158 406.5 c 128,-1,33
 175 391 175 391 194 391 c 0,34,35
 204 391 204 391 229 396 c 0,36,37
 247 400 247 400 253 400 c 0,38,39
 262 400 262 400 274 381.5 c 128,-1,40
 286 363 286 363 286 349 c 0,41,42
 286 338 286 338 278 338 c 0,43,44
 217 338 217 338 186.5 310.5 c 128,-1,45
 156 283 156 283 148 221 c 2,46,-1
 133 119 l 2,47,48
 131 103 131 103 131 97 c 0,49,50
 131 74 131 74 143.5 61 c 128,-1,51
 156 48 156 48 179 48 c 0,52,53
 201 48 201 48 213 60.5 c 128,-1,54
 225 73 225 73 225 96 c 0,55,56
 225 114 225 114 215 124.5 c 128,-1,57
 205 135 205 135 188 135 c 0,58,59
 173 135 173 135 155 130 c 0,60,61
 154 133 154 133 154 139 c 0,62,63
 154 157 154 157 168 169 c 128,-1,64
 182 181 182 181 207 181 c 0,65,66
 239 181 239 181 261 160 c 128,-1,67
 283 139 283 139 283 102 c 0,68,69
 283 51 283 51 252 22 c 128,-1,70
 221 -7 221 -7 164 -7 c 0,71,72
 110 -7 110 -7 75 22.5 c 128,-1,73
 40 52 40 52 40 99 c 0,74,75
 40 106 40 106 42 126 c 2,76,-1
 56 221 l 2,77,78
 67 307 67 307 124 348 c 1,79,80
 96 362 96 362 75 387.5 c 128,-1,81
 54 413 54 413 54 440 c 0,82,83
 54 472 54 472 86 506.5 c 128,-1,84
 118 541 118 541 176.5 563.5 c 128,-1,85
 235 586 235 586 310 586 c 0,86,87
 422 586 422 586 482 543.5 c 128,-1,88
 542 501 542 501 542 418 c 0,89,90
 542 401 542 401 539 383 c 2,91,-1
 519 234 l 1,92,93
 575 224 575 224 621.5 195.5 c 128,-1,94
 668 167 668 167 698 123 c 1,95,-1
 762 576 l 1,96,-1
 854 576 l 1,0,-1
402 63 m 128,-1,98
 408 76 408 76 413 115 c 0,99,100
 415 123 415 123 417 145 c 2,101,-1
 421 173 l 1,102,103
 357 159 357 159 357 90 c 0,104,105
 357 72 357 72 364 61 c 128,-1,106
 371 50 371 50 384 50 c 0,107,97
 396 50 396 50 402 63 c 128,-1,98
EndSplineSet
EndChar

StartChar: uni0E240E45
Encoding: 65537 -1 442
Width: 942
Flags: W
LayerCount: 2
Fore
SplineSet
448 380 m 2,0,1
 450 404 450 404 450 413 c 0,2,3
 450 466 450 466 414.5 493.5 c 128,-1,4
 379 521 379 521 311 521 c 0,5,6
 258 521 258 521 219.5 508 c 128,-1,7
 181 495 181 495 161 477 c 128,-1,8
 141 459 141 459 141 443 c 0,9,10
 141 422 141 422 158 406.5 c 128,-1,11
 175 391 175 391 194 391 c 0,12,13
 204 391 204 391 229 396 c 0,14,15
 247 400 247 400 253 400 c 0,16,17
 262 400 262 400 274 381.5 c 128,-1,18
 286 363 286 363 286 349 c 0,19,20
 286 338 286 338 278 338 c 0,21,22
 216 338 216 338 186.5 310.5 c 128,-1,23
 157 283 157 283 148 221 c 2,24,-1
 133 119 l 2,25,26
 131 103 131 103 131 97 c 0,27,28
 131 74 131 74 143.5 61 c 128,-1,29
 156 48 156 48 179 48 c 0,30,31
 201 48 201 48 213 60.5 c 128,-1,32
 225 73 225 73 225 96 c 0,33,34
 225 114 225 114 215 124.5 c 128,-1,35
 205 135 205 135 188 135 c 0,36,37
 173 135 173 135 155 130 c 0,38,39
 154 133 154 133 154 139 c 0,40,41
 154 157 154 157 168 169 c 128,-1,42
 182 181 182 181 207 181 c 0,43,44
 239 181 239 181 261 159.5 c 128,-1,45
 283 138 283 138 283 102 c 0,46,47
 283 51 283 51 252 22 c 128,-1,48
 221 -7 221 -7 164 -7 c 0,49,50
 110 -7 110 -7 75 22.5 c 128,-1,51
 40 52 40 52 40 99 c 0,52,53
 40 106 40 106 42 126 c 2,54,-1
 56 221 l 2,55,56
 67 306 67 306 124 349 c 1,57,58
 97 361 97 361 75.5 387 c 128,-1,59
 54 413 54 413 54 440 c 0,60,61
 54 472 54 472 86 506.5 c 128,-1,62
 118 541 118 541 176.5 563.5 c 128,-1,63
 235 586 235 586 310 586 c 0,64,65
 449 586 449 586 506 522 c 1,66,67
 544 551 544 551 592 568.5 c 128,-1,68
 640 586 640 586 694 586 c 0,69,70
 778 586 778 586 825.5 545.5 c 128,-1,71
 873 505 873 505 873 431 c 0,72,73
 873 409 873 409 871 396 c 2,74,-1
 785 -217 l 1,75,-1
 693 -217 l 1,76,-1
 779 397 l 2,77,78
 781 415 781 415 781 424 c 0,79,80
 781 469 781 469 754.5 492.5 c 128,-1,81
 728 516 728 516 680 516 c 0,82,83
 603 516 603 516 537 458 c 1,84,85
 542 443 542 443 542 418 c 0,86,87
 542 401 542 401 539 383 c 2,88,-1
 455 -220 l 1,89,-1
 364 -220 l 1,90,-1
 448 380 l 2,0,1
EndSplineSet
Ligature2: "'liga' Standard Ligatures lookup 13 subtable" uni0E24 uni0E45
EndChar

StartChar: uni0E260E45
Encoding: 65538 -1 443
Width: 949
Flags: W
LayerCount: 2
Fore
SplineSet
458 372 m 2,0,1
 461 392 461 392 461 409 c 0,2,3
 461 470 461 470 426.5 495.5 c 128,-1,4
 392 521 392 521 326 521 c 0,5,6
 279 521 279 521 239 508 c 128,-1,7
 199 495 199 495 175.5 476.5 c 128,-1,8
 152 458 152 458 152 443 c 0,9,10
 152 425 152 425 171 409 c 128,-1,11
 190 393 190 393 203 393 c 0,12,13
 211 393 211 393 235 401 c 0,14,15
 240 402 240 402 250.5 405 c 128,-1,16
 261 408 261 408 267 408 c 0,17,18
 276 408 276 408 287 390.5 c 128,-1,19
 298 373 298 373 298 360 c 256,20,21
 298 347 298 347 290 347 c 0,22,23
 241 347 241 347 210 320.5 c 128,-1,24
 179 294 179 294 179 244 c 2,25,-1
 181 187 l 2,26,27
 184 150 184 150 184 118 c 0,28,29
 184 58 184 58 149 25 c 128,-1,30
 114 -8 114 -8 56 -8 c 0,31,32
 13 -8 13 -8 -11.5 15.5 c 128,-1,33
 -36 39 -36 39 -36 74 c 0,34,35
 -36 116 -36 116 -11 137 c 128,-1,36
 14 158 14 158 46 158 c 0,37,38
 64 158 64 158 73.5 148.5 c 128,-1,39
 83 139 83 139 81 122 c 1,40,-1
 63 122 l 2,41,42
 43 122 43 122 30 111 c 128,-1,43
 17 100 17 100 17 82 c 0,44,45
 17 66 17 66 25.5 56 c 128,-1,46
 34 46 34 46 52 46 c 0,47,48
 101 46 101 46 101 121 c 0,49,50
 101 145 101 145 97 183 c 0,51,52
 93 217 93 217 93 234 c 0,53,54
 93 314 93 314 145 350 c 1,55,56
 112 360 112 360 87.5 386 c 128,-1,57
 63 412 63 412 63 442 c 256,58,59
 63 472 63 472 95 506 c 128,-1,60
 127 540 127 540 186.5 563 c 128,-1,61
 246 586 246 586 325 586 c 0,62,63
 387 586 387 586 435.5 570.5 c 128,-1,64
 484 555 484 555 514 523 c 1,65,66
 599 586 599 586 701 586 c 0,67,68
 784 586 784 586 832 545.5 c 128,-1,69
 880 505 880 505 880 431 c 0,70,71
 880 416 880 416 877 396 c 2,72,-1
 791 -217 l 1,73,-1
 700 -217 l 1,74,-1
 786 397 l 2,75,76
 788 415 788 415 788 424 c 0,77,78
 788 469 788 469 761.5 492.5 c 128,-1,79
 735 516 735 516 687 516 c 0,80,81
 611 516 611 516 547 460 c 1,82,83
 553 439 553 439 553 413 c 0,84,85
 553 393 553 393 550 372 c 2,86,-1
 467 -220 l 1,87,-1
 375 -220 l 1,88,-1
 458 372 l 2,0,1
EndSplineSet
Ligature2: "'liga' Standard Ligatures lookup 13 subtable" uni0E26 uni0E45
EndChar

StartChar: uni0E0D
Encoding: 3597 3597 444
Width: 940
GlyphClass: 2
Flags: W
AnchorPoint: "Anchor-12" 887 550 basechar 0
AnchorPoint: "Anchor-11" 741 -235 basechar 0
LayerCount: 2
Fore
SplineSet
454.5 22 m 128,-1,1
 409 53 409 53 409 127 c 0,2,3
 409 148 409 148 412 173 c 2,4,-1
 441 380 l 2,5,6
 444 398 444 398 444 413 c 0,7,8
 444 466 444 466 408.5 493.5 c 128,-1,9
 373 521 373 521 305 521 c 0,10,11
 252 521 252 521 215 508.5 c 128,-1,12
 178 496 178 496 159.5 477.5 c 128,-1,13
 141 459 141 459 141 443 c 0,14,15
 141 422 141 422 158 406.5 c 128,-1,16
 175 391 175 391 194 391 c 0,17,18
 204 391 204 391 229 396 c 0,19,20
 247 400 247 400 253 400 c 0,21,22
 262 400 262 400 274 381.5 c 128,-1,23
 286 363 286 363 286 349 c 0,24,25
 286 338 286 338 278 338 c 0,26,27
 217 338 217 338 186.5 310.5 c 128,-1,28
 156 283 156 283 148 221 c 2,29,-1
 133 119 l 2,30,31
 131 103 131 103 131 97 c 0,32,33
 131 74 131 74 143.5 61 c 128,-1,34
 156 48 156 48 179 48 c 0,35,36
 201 48 201 48 213 60.5 c 128,-1,37
 225 73 225 73 225 96 c 0,38,39
 225 114 225 114 215 124.5 c 128,-1,40
 205 135 205 135 188 135 c 0,41,42
 173 135 173 135 155 130 c 0,43,44
 154 133 154 133 154 139 c 0,45,46
 154 157 154 157 168 169 c 128,-1,47
 182 181 182 181 207 181 c 0,48,49
 239 181 239 181 261 160 c 128,-1,50
 283 139 283 139 283 102 c 0,51,52
 283 51 283 51 252 22 c 128,-1,53
 221 -7 221 -7 164 -7 c 0,54,55
 110 -7 110 -7 75 22.5 c 128,-1,56
 40 52 40 52 40 99 c 0,57,58
 40 106 40 106 42 126 c 2,59,-1
 56 221 l 2,60,61
 67 306 67 306 124 349 c 1,62,63
 97 361 97 361 75.5 387 c 128,-1,64
 54 413 54 413 54 440 c 0,65,66
 54 472 54 472 84.5 506.5 c 128,-1,67
 115 541 115 541 172 563.5 c 128,-1,68
 229 586 229 586 304 586 c 0,69,70
 416 586 416 586 476 543.5 c 128,-1,71
 536 501 536 501 536 418 c 0,72,73
 536 401 536 401 533 383 c 2,74,-1
 504 172 l 2,75,76
 501 153 501 153 501 135 c 0,77,78
 501 91 501 91 525 74.5 c 128,-1,79
 549 58 549 58 607 58 c 0,80,81
 655 58 655 58 681.5 68.5 c 128,-1,82
 708 79 708 79 722 103 c 128,-1,83
 736 127 736 127 742 172 c 2,84,-1
 799 576 l 1,85,-1
 891 576 l 1,86,-1
 834 177 l 2,87,88
 824 106 824 106 796 65.5 c 128,-1,89
 768 25 768 25 719.5 8 c 128,-1,90
 671 -9 671 -9 597 -9 c 0,91,0
 500 -9 500 -9 454.5 22 c 128,-1,1
431 -213.5 m 128,-1,93
 391 -186 391 -186 391 -135 c 0,94,95
 391 -97 391 -97 418 -73 c 128,-1,96
 445 -49 445 -49 487 -49 c 0,97,98
 519 -49 519 -49 538.5 -66 c 128,-1,99
 558 -83 558 -83 558 -108 c 0,100,101
 558 -129 558 -129 546 -143.5 c 128,-1,102
 534 -158 534 -158 517 -158 c 0,103,104
 508 -158 508 -158 498 -152 c 1,105,106
 510 -142 510 -142 510 -126 c 0,107,108
 512 -113 512 -113 505.5 -104.5 c 128,-1,109
 499 -96 499 -96 486 -96 c 0,110,111
 470 -96 470 -96 461 -104 c 128,-1,112
 452 -112 452 -112 452 -129 c 0,113,114
 452 -152 452 -152 474.5 -167 c 128,-1,115
 497 -182 497 -182 542 -182 c 0,116,117
 598 -182 598 -182 632 -160 c 128,-1,118
 666 -138 666 -138 686 -90 c 0,119,120
 697 -67 697 -67 716 -67 c 0,121,122
 741 -67 741 -67 773 -82 c 1,123,124
 751 -161 751 -161 685.5 -201 c 128,-1,125
 620 -241 620 -241 537 -241 c 0,126,92
 471 -241 471 -241 431 -213.5 c 128,-1,93
EndSplineSet
Substitution2: "Single Substitution lookup 14 subtable" yoYingthai.less
Substitution2: "'aalt' Access All Alternates lookup 0 subtable" yoYingthai.less
EndChar

StartChar: yoYingthai.less
Encoding: 65539 -1 445
Width: 940
GlyphClass: 2
Flags: W
AnchorPoint: "Anchor-12" 887 550 basechar 0
AnchorPoint: "Anchor-11" 810 0 basechar 0
LayerCount: 2
Fore
SplineSet
454.5 22 m 128,-1,1
 409 53 409 53 409 127 c 0,2,3
 409 148 409 148 412 173 c 2,4,-1
 441 380 l 2,5,6
 444 398 444 398 444 413 c 0,7,8
 444 466 444 466 408.5 493.5 c 128,-1,9
 373 521 373 521 305 521 c 0,10,11
 252 521 252 521 215 508.5 c 128,-1,12
 178 496 178 496 159.5 477.5 c 128,-1,13
 141 459 141 459 141 443 c 0,14,15
 141 422 141 422 158 406.5 c 128,-1,16
 175 391 175 391 194 391 c 0,17,18
 204 391 204 391 229 396 c 0,19,20
 247 400 247 400 253 400 c 0,21,22
 262 400 262 400 274 381.5 c 128,-1,23
 286 363 286 363 286 349 c 0,24,25
 286 338 286 338 278 338 c 0,26,27
 217 338 217 338 186.5 310.5 c 128,-1,28
 156 283 156 283 148 221 c 2,29,-1
 133 119 l 2,30,31
 131 103 131 103 131 97 c 0,32,33
 131 74 131 74 143.5 61 c 128,-1,34
 156 48 156 48 179 48 c 0,35,36
 201 48 201 48 213 60.5 c 128,-1,37
 225 73 225 73 225 96 c 0,38,39
 225 114 225 114 215 124.5 c 128,-1,40
 205 135 205 135 188 135 c 0,41,42
 173 135 173 135 155 130 c 0,43,44
 154 133 154 133 154 139 c 0,45,46
 154 157 154 157 168 169 c 128,-1,47
 182 181 182 181 207 181 c 0,48,49
 239 181 239 181 261 160 c 128,-1,50
 283 139 283 139 283 102 c 0,51,52
 283 51 283 51 252 22 c 128,-1,53
 221 -7 221 -7 164 -7 c 0,54,55
 110 -7 110 -7 75 22.5 c 128,-1,56
 40 52 40 52 40 99 c 0,57,58
 40 106 40 106 42 126 c 2,59,-1
 56 221 l 2,60,61
 67 306 67 306 124 349 c 1,62,63
 97 361 97 361 75.5 387 c 128,-1,64
 54 413 54 413 54 440 c 0,65,66
 54 472 54 472 84.5 506.5 c 128,-1,67
 115 541 115 541 172 563.5 c 128,-1,68
 229 586 229 586 304 586 c 0,69,70
 416 586 416 586 476 543.5 c 128,-1,71
 536 501 536 501 536 418 c 0,72,73
 536 401 536 401 533 383 c 2,74,-1
 504 172 l 2,75,76
 501 153 501 153 501 135 c 0,77,78
 501 91 501 91 525 74.5 c 128,-1,79
 549 58 549 58 607 58 c 0,80,81
 655 58 655 58 681.5 68.5 c 128,-1,82
 708 79 708 79 722 103 c 128,-1,83
 736 127 736 127 742 172 c 2,84,-1
 799 576 l 1,85,-1
 891 576 l 1,86,-1
 834 177 l 2,87,88
 824 106 824 106 796 65.5 c 128,-1,89
 768 25 768 25 719.5 8 c 128,-1,90
 671 -9 671 -9 597 -9 c 0,91,0
 500 -9 500 -9 454.5 22 c 128,-1,1
EndSplineSet
EndChar

StartChar: uni0E0E
Encoding: 3598 3598 446
Width: 624
GlyphClass: 2
Flags: W
AnchorPoint: "Anchor-12" 575 550 basechar 0
AnchorPoint: "Anchor-11" 463 -245 basechar 0
LayerCount: 2
Fore
SplineSet
490 544.5 m 128,-1,1
 553 503 553 503 553 413 c 0,2,3
 553 393 553 393 550 372 c 2,4,-1
 463 -245 l 1,5,-1
 370 -245 l 1,6,7
 338 -191 338 -191 283 -155 c 1,8,9
 250 -198 250 -198 202 -223.5 c 128,-1,10
 154 -249 154 -249 99 -249 c 0,11,12
 49 -249 49 -249 17.5 -226.5 c 128,-1,13
 -14 -204 -14 -204 -14 -167 c 0,14,15
 -14 -137 -14 -137 8.5 -111.5 c 128,-1,16
 31 -86 31 -86 70 -71 c 128,-1,17
 109 -56 109 -56 155 -56 c 0,18,19
 202 -56 202 -56 246 -70 c 1,20,21
 257 -38 257 -38 262 -9 c 1,22,23
 327 -9 327 -9 324 -52 c 0,24,25
 320 -80 320 -80 313 -99 c 1,26,27
 358 -124 358 -124 383 -159 c 1,28,-1
 458 372 l 2,29,30
 461 392 461 392 461 409 c 0,31,32
 461 470 461 470 426.5 495.5 c 128,-1,33
 392 521 392 521 326 521 c 0,34,35
 279 521 279 521 239 508 c 128,-1,36
 199 495 199 495 175.5 476.5 c 128,-1,37
 152 458 152 458 152 443 c 0,38,39
 152 425 152 425 171 409 c 128,-1,40
 190 393 190 393 203 393 c 0,41,42
 211 393 211 393 235 401 c 0,43,44
 240 402 240 402 250.5 405 c 128,-1,45
 261 408 261 408 267 408 c 0,46,47
 276 408 276 408 287 390.5 c 128,-1,48
 298 373 298 373 298 360 c 256,49,50
 298 347 298 347 290 347 c 0,51,52
 241 347 241 347 210 320.5 c 128,-1,53
 179 294 179 294 179 244 c 2,54,-1
 181 187 l 2,55,56
 184 150 184 150 184 118 c 0,57,58
 184 58 184 58 149 25 c 128,-1,59
 114 -8 114 -8 56 -8 c 0,60,61
 13 -8 13 -8 -11.5 15.5 c 128,-1,62
 -36 39 -36 39 -36 74 c 0,63,64
 -36 116 -36 116 -11 137 c 128,-1,65
 14 158 14 158 46 158 c 0,66,67
 64 158 64 158 73.5 148.5 c 128,-1,68
 83 139 83 139 81 122 c 1,69,-1
 63 122 l 2,70,71
 43 122 43 122 30 111 c 128,-1,72
 17 100 17 100 17 82 c 0,73,74
 17 66 17 66 25.5 56 c 128,-1,75
 34 46 34 46 52 46 c 0,76,77
 101 46 101 46 101 121 c 0,78,79
 101 145 101 145 97 183 c 0,80,81
 93 217 93 217 93 234 c 0,82,83
 93 313 93 313 147 349 c 1,84,85
 113 360 113 360 88 386 c 128,-1,86
 63 412 63 412 63 442 c 256,87,88
 63 472 63 472 95 506 c 128,-1,89
 127 540 127 540 186.5 563 c 128,-1,90
 246 586 246 586 325 586 c 0,91,0
 427 586 427 586 490 544.5 c 128,-1,1
221 -125 m 1,93,94
 190 -113 190 -113 153 -113 c 0,95,96
 112 -113 112 -113 87.5 -127.5 c 128,-1,97
 63 -142 63 -142 63 -161 c 0,98,99
 63 -176 63 -176 76.5 -185 c 128,-1,100
 90 -194 90 -194 113 -194 c 0,101,92
 179 -194 179 -194 221 -125 c 1,93,94
EndSplineSet
Substitution2: "Single Substitution lookup 14 subtable" doChadathai.short
Substitution2: "'aalt' Access All Alternates lookup 0 subtable" doChadathai.short
EndChar

StartChar: doChadathai.short
Encoding: 65540 -1 447
Width: 624
GlyphClass: 2
Flags: W
AnchorPoint: "Anchor-12" 575 550 basechar 0
AnchorPoint: "Anchor-11" 469 -195 basechar 0
LayerCount: 2
Fore
SplineSet
490 544.5 m 128,-1,1
 553 503 553 503 553 413 c 0,2,3
 553 393 553 393 550 372 c 2,4,-1
 469 -195 l 1,5,-1
 377 -195 l 1,6,7
 346 -142 346 -142 289 -105 c 1,8,9
 256 -148 256 -148 208 -173.5 c 128,-1,10
 160 -199 160 -199 106 -199 c 0,11,12
 56 -199 56 -199 24.5 -176.5 c 128,-1,13
 -7 -154 -7 -154 -7 -117 c 0,14,15
 -7 -87 -7 -87 15.5 -62.5 c 128,-1,16
 38 -38 38 -38 76.5 -23.5 c 128,-1,17
 115 -9 115 -9 161 -9 c 256,18,19
 207 -9 207 -9 252 -22 c 1,20,21
 260 -1 260 -1 269 41 c 1,22,23
 333 41 333 41 330 -2 c 0,24,25
 327 -24 327 -24 319 -51 c 1,26,27
 365 -77 365 -77 389 -110 c 1,28,-1
 458 372 l 2,29,30
 461 392 461 392 461 409 c 0,31,32
 461 470 461 470 426.5 495.5 c 128,-1,33
 392 521 392 521 326 521 c 0,34,35
 279 521 279 521 239 508 c 128,-1,36
 199 495 199 495 175.5 476.5 c 128,-1,37
 152 458 152 458 152 443 c 0,38,39
 152 425 152 425 171 409 c 128,-1,40
 190 393 190 393 203 393 c 0,41,42
 211 393 211 393 235 401 c 0,43,44
 240 402 240 402 250.5 405 c 128,-1,45
 261 408 261 408 267 408 c 0,46,47
 276 408 276 408 287 390.5 c 128,-1,48
 298 373 298 373 298 360 c 256,49,50
 298 347 298 347 290 347 c 0,51,52
 241 347 241 347 210 320.5 c 128,-1,53
 179 294 179 294 179 244 c 2,54,-1
 181 187 l 2,55,56
 184 150 184 150 184 118 c 0,57,58
 184 58 184 58 149 25 c 128,-1,59
 114 -8 114 -8 56 -8 c 0,60,61
 13 -8 13 -8 -11.5 15.5 c 128,-1,62
 -36 39 -36 39 -36 74 c 0,63,64
 -36 116 -36 116 -11 137 c 128,-1,65
 14 158 14 158 46 158 c 0,66,67
 64 158 64 158 73.5 148.5 c 128,-1,68
 83 139 83 139 81 122 c 1,69,-1
 63 122 l 2,70,71
 43 122 43 122 30 111 c 128,-1,72
 17 100 17 100 17 82 c 0,73,74
 17 66 17 66 25.5 56 c 128,-1,75
 34 46 34 46 52 46 c 0,76,77
 101 46 101 46 101 121 c 0,78,79
 101 145 101 145 97 183 c 0,80,81
 93 217 93 217 93 234 c 0,82,83
 93 313 93 313 147 349 c 1,84,85
 113 360 113 360 88 386 c 128,-1,86
 63 412 63 412 63 442 c 256,87,88
 63 472 63 472 95 506 c 128,-1,89
 127 540 127 540 186.5 563 c 128,-1,90
 246 586 246 586 325 586 c 0,91,0
 427 586 427 586 490 544.5 c 128,-1,1
179 -127 m 128,-1,93
 207 -110 207 -110 228 -75 c 1,94,95
 195 -63 195 -63 159 -63 c 0,96,97
 118 -63 118 -63 93.5 -77.5 c 128,-1,98
 69 -92 69 -92 69 -111 c 0,99,100
 69 -126 69 -126 82.5 -135 c 128,-1,101
 96 -144 96 -144 119 -144 c 0,102,92
 151 -144 151 -144 179 -127 c 128,-1,93
EndSplineSet
EndChar

StartChar: uni0E0F
Encoding: 3599 3599 448
Width: 624
GlyphClass: 2
Flags: W
AnchorPoint: "Anchor-12" 575 550 basechar 0
AnchorPoint: "Anchor-11" 461 -250 basechar 0
LayerCount: 2
Fore
SplineSet
490 544.5 m 128,-1,1
 553 503 553 503 553 413 c 0,2,3
 553 393 553 393 550 372 c 2,4,-1
 461 -250 l 1,5,-1
 366 -250 l 1,6,-1
 310 -198 l 1,7,-1
 235 -247 l 1,8,-1
 196 -205 l 1,9,10
 169 -228 169 -228 135.5 -240.5 c 128,-1,11
 102 -253 102 -253 66 -253 c 0,12,13
 21 -253 21 -253 -9.5 -231 c 128,-1,14
 -40 -209 -40 -209 -40 -174 c 0,15,16
 -40 -131 -40 -131 -5 -106 c 128,-1,17
 30 -81 30 -81 78 -81 c 0,18,19
 131 -81 131 -81 182 -116 c 1,20,21
 195 -75 195 -75 195 -26 c 1,22,23
 225 -26 225 -26 242 -39 c 128,-1,24
 259 -52 259 -52 259 -76 c 0,25,26
 259 -121 259 -121 233 -163 c 1,27,-1
 249 -180 l 1,28,-1
 319 -139 l 1,29,-1
 380 -185 l 1,30,-1
 458 372 l 2,31,32
 461 392 461 392 461 409 c 0,33,34
 461 470 461 470 426.5 495.5 c 128,-1,35
 392 521 392 521 326 521 c 0,36,37
 279 521 279 521 239 508 c 128,-1,38
 199 495 199 495 175.5 476.5 c 128,-1,39
 152 458 152 458 152 443 c 0,40,41
 152 425 152 425 171 409 c 128,-1,42
 190 393 190 393 203 393 c 0,43,44
 211 393 211 393 235 401 c 0,45,46
 240 402 240 402 250.5 405 c 128,-1,47
 261 408 261 408 267 408 c 0,48,49
 276 408 276 408 287 390.5 c 128,-1,50
 298 373 298 373 298 360 c 256,51,52
 298 347 298 347 290 347 c 0,53,54
 241 347 241 347 210 320.5 c 128,-1,55
 179 294 179 294 179 244 c 2,56,-1
 181 187 l 2,57,58
 184 150 184 150 184 118 c 0,59,60
 184 58 184 58 149 25 c 128,-1,61
 114 -8 114 -8 56 -8 c 0,62,63
 13 -8 13 -8 -11.5 15.5 c 128,-1,64
 -36 39 -36 39 -36 74 c 0,65,66
 -36 116 -36 116 -11 137 c 128,-1,67
 14 158 14 158 46 158 c 0,68,69
 64 158 64 158 73.5 148.5 c 128,-1,70
 83 139 83 139 81 122 c 1,71,-1
 63 122 l 2,72,73
 43 122 43 122 30 111 c 128,-1,74
 17 100 17 100 17 82 c 0,75,76
 17 66 17 66 25.5 56 c 128,-1,77
 34 46 34 46 52 46 c 0,78,79
 101 46 101 46 101 121 c 0,80,81
 101 145 101 145 97 183 c 0,82,83
 93 217 93 217 93 234 c 0,84,85
 93 313 93 313 147 349 c 1,86,87
 113 360 113 360 88 386 c 128,-1,88
 63 412 63 412 63 442 c 256,89,90
 63 472 63 472 95 506 c 128,-1,91
 127 540 127 540 186.5 563 c 128,-1,92
 246 586 246 586 325 586 c 0,93,0
 427 586 427 586 490 544.5 c 128,-1,1
156 -164 m 1,95,96
 118 -131 118 -131 83 -131 c 0,97,98
 62 -131 62 -131 48 -141.5 c 128,-1,99
 34 -152 34 -152 34 -168 c 0,100,101
 34 -183 34 -183 47.5 -192.5 c 128,-1,102
 61 -202 61 -202 82 -202 c 0,103,94
 126 -202 126 -202 156 -164 c 1,95,96
EndSplineSet
Substitution2: "Single Substitution lookup 14 subtable" toPatakthai.short
Substitution2: "'aalt' Access All Alternates lookup 0 subtable" toPatakthai.short
EndChar

StartChar: toPatakthai.short
Encoding: 65541 -1 449
Width: 624
GlyphClass: 2
Flags: W
AnchorPoint: "Anchor-12" 575 550 basechar 0
AnchorPoint: "Anchor-11" 469 -197 basechar 0
LayerCount: 2
Fore
SplineSet
490 544.5 m 128,-1,1
 553 503 553 503 553 413 c 0,2,3
 553 393 553 393 550 372 c 2,4,-1
 469 -197 l 1,5,-1
 375 -197 l 1,6,-1
 318 -145 l 1,7,-1
 244 -194 l 1,8,-1
 206 -153 l 1,9,10
 179 -175 179 -175 145.5 -187.5 c 128,-1,11
 112 -200 112 -200 75 -200 c 0,12,13
 29 -200 29 -200 -1.5 -178 c 128,-1,14
 -32 -156 -32 -156 -32 -121 c 0,15,16
 -32 -78 -32 -78 3 -53 c 128,-1,17
 38 -28 38 -28 86 -28 c 0,18,19
 142 -28 142 -28 193 -65 c 1,20,21
 203 -30 203 -30 203 10 c 1,22,23
 234 10 234 10 249.5 -1 c 128,-1,24
 265 -12 265 -12 265 -36 c 0,25,26
 265 -75 265 -75 243 -111 c 1,27,-1
 258 -127 l 1,28,-1
 327 -86 l 1,29,-1
 388 -135 l 1,30,-1
 458 372 l 2,31,32
 461 392 461 392 461 409 c 0,33,34
 461 470 461 470 426.5 495.5 c 128,-1,35
 392 521 392 521 326 521 c 0,36,37
 279 521 279 521 239 508 c 128,-1,38
 199 495 199 495 175.5 476.5 c 128,-1,39
 152 458 152 458 152 443 c 0,40,41
 152 425 152 425 171 409 c 128,-1,42
 190 393 190 393 203 393 c 0,43,44
 211 393 211 393 235 401 c 0,45,46
 240 402 240 402 250.5 405 c 128,-1,47
 261 408 261 408 267 408 c 0,48,49
 276 408 276 408 287 390.5 c 128,-1,50
 298 373 298 373 298 360 c 256,51,52
 298 347 298 347 290 347 c 0,53,54
 241 347 241 347 210 320.5 c 128,-1,55
 179 294 179 294 179 244 c 2,56,-1
 181 187 l 2,57,58
 184 150 184 150 184 118 c 0,59,60
 184 58 184 58 149 25 c 128,-1,61
 114 -8 114 -8 56 -8 c 0,62,63
 13 -8 13 -8 -11.5 15.5 c 128,-1,64
 -36 39 -36 39 -36 74 c 0,65,66
 -36 116 -36 116 -11 137 c 128,-1,67
 14 158 14 158 46 158 c 0,68,69
 64 158 64 158 73.5 148.5 c 128,-1,70
 83 139 83 139 81 122 c 1,71,-1
 63 122 l 2,72,73
 43 122 43 122 30 111 c 128,-1,74
 17 100 17 100 17 82 c 0,75,76
 17 66 17 66 25.5 56 c 128,-1,77
 34 46 34 46 52 46 c 0,78,79
 101 46 101 46 101 121 c 0,80,81
 101 145 101 145 97 183 c 0,82,83
 93 217 93 217 93 234 c 0,84,85
 93 313 93 313 147 349 c 1,86,87
 113 360 113 360 88 386 c 128,-1,88
 63 412 63 412 63 442 c 256,89,90
 63 472 63 472 95 506 c 128,-1,91
 127 540 127 540 186.5 563 c 128,-1,92
 246 586 246 586 325 586 c 0,93,0
 427 586 427 586 490 544.5 c 128,-1,1
167 -114 m 1,95,96
 126 -78 126 -78 92 -78 c 0,97,98
 70 -78 70 -78 56 -88.5 c 128,-1,99
 42 -99 42 -99 42 -115 c 0,100,101
 42 -130 42 -130 55.5 -139.5 c 128,-1,102
 69 -149 69 -149 90 -149 c 0,103,94
 138 -149 138 -149 167 -114 c 1,95,96
EndSplineSet
EndChar

StartChar: uni0E10
Encoding: 3600 3600 450
Width: 589
GlyphClass: 2
Flags: W
AnchorPoint: "Anchor-12" 535 550 basechar 0
AnchorPoint: "Anchor-11" 403 -282 basechar 0
LayerCount: 2
Fore
SplineSet
180 491.5 m 128,-1,1
 160 472 160 472 160 436 c 0,2,3
 160 418 160 418 165 408 c 1,4,5
 199 410 199 410 247 410 c 0,6,7
 306 410 306 410 350 405 c 0,8,9
 415 400 415 400 450 368 c 128,-1,10
 485 336 485 336 485 277 c 0,11,12
 485 243 485 243 476 206 c 128,-1,13
 467 169 467 169 446 102 c 0,14,15
 428 48 428 48 420 19 c 0,16,17
 416 7 416 7 382 -1 c 128,-1,18
 348 -9 348 -9 305 -9 c 0,19,20
 260 -9 260 -9 228 0 c 128,-1,21
 196 9 196 9 198 20 c 0,22,23
 209 134 209 134 209 178 c 0,24,25
 209 204 209 204 198 218 c 128,-1,26
 187 232 187 232 168 232 c 256,27,28
 149 232 149 232 138 222 c 128,-1,29
 127 212 127 212 127 194 c 0,30,31
 127 178 127 178 136 168 c 128,-1,32
 145 158 145 158 160 158 c 0,33,34
 178 158 178 158 193 169 c 1,35,36
 196 163 196 163 196 155 c 0,37,38
 196 140 196 140 182 129.5 c 128,-1,39
 168 119 168 119 146 119 c 0,40,41
 112 119 112 119 90.5 139.5 c 128,-1,42
 69 160 69 160 69 195 c 0,43,44
 69 237 69 237 98.5 261.5 c 128,-1,45
 128 286 128 286 175 286 c 0,46,47
 224 286 224 286 252 257.5 c 128,-1,48
 280 229 280 229 281 182 c 0,49,50
 282 154 282 154 277 89 c 2,51,-1
 275 61 l 2,52,53
 275 56 275 56 284.5 53 c 128,-1,54
 294 50 294 50 309 50 c 0,55,56
 325 50 325 50 334.5 53.5 c 128,-1,57
 344 57 344 57 346 62 c 0,58,59
 356 99 356 99 359 109 c 0,60,61
 375 169 375 169 383.5 204 c 128,-1,62
 392 239 392 239 392 262 c 0,63,64
 392 299 392 299 369.5 318.5 c 128,-1,65
 347 338 347 338 298 341 c 0,66,67
 278 343 278 343 235 343 c 0,68,69
 221 343 221 343 131 340 c 0,70,71
 101 338 101 338 92 338 c 1,72,73
 68 377 68 377 68 426 c 0,74,75
 68 497 68 497 111 540 c 128,-1,76
 154 583 154 583 229 583 c 0,77,78
 271 583 271 583 343 571 c 0,79,80
 354 570 354 570 382 566 c 128,-1,81
 410 562 410 562 429 562 c 0,82,83
 469 562 469 562 495.5 568.5 c 128,-1,84
 522 575 522 575 539 589 c 1,85,86
 555 569 555 569 555 545 c 0,87,88
 555 478 555 478 451 478 c 0,89,90
 412 478 412 478 344 495 c 0,91,92
 307 503 307 503 284.5 507 c 128,-1,93
 262 511 262 511 239 511 c 0,94,0
 200 511 200 511 180 491.5 c 128,-1,1
416 -73 m 128,-1,96
 439 -95 439 -95 439 -127 c 0,97,98
 439 -147 439 -147 433.5 -163 c 128,-1,99
 428 -179 428 -179 416 -203 c 0,100,101
 405 -225 405 -225 398 -242.5 c 128,-1,102
 391 -260 391 -260 388 -282 c 1,103,-1
 298 -282 l 1,104,-1
 255 -248 l 1,105,-1
 197 -285 l 1,106,-1
 160 -243 l 1,107,108
 138 -263 138 -263 111 -274 c 128,-1,109
 84 -285 84 -285 57 -285 c 0,110,111
 17 -285 17 -285 -7 -261.5 c 128,-1,112
 -31 -238 -31 -238 -31 -203 c 0,113,114
 -31 -164 -31 -164 -5.5 -142.5 c 128,-1,115
 20 -121 20 -121 62 -121 c 0,116,117
 108 -121 108 -121 146 -155 c 1,118,119
 154 -128 154 -128 156 -92 c 1,120,121
 186 -92 186 -92 200 -99 c 128,-1,122
 214 -106 214 -106 214 -125 c 0,123,124
 214 -167 214 -167 192 -203 c 1,125,-1
 211 -222 l 1,126,-1
 259 -196 l 1,127,-1
 320 -233 l 1,128,129
 325 -212 325 -212 346 -185 c 0,130,131
 360 -164 360 -164 366 -152.5 c 128,-1,132
 372 -141 372 -141 372 -126 c 0,133,134
 372 -113 372 -113 363.5 -105 c 128,-1,135
 355 -97 355 -97 343 -97 c 0,136,137
 328 -97 328 -97 318.5 -105.5 c 128,-1,138
 309 -114 309 -114 309 -128 c 256,139,140
 309 -142 309 -142 317 -151 c 128,-1,141
 325 -160 325 -160 340 -163 c 1,142,143
 338 -170 338 -170 330.5 -174.5 c 128,-1,144
 323 -179 323 -179 311 -179 c 0,145,146
 291 -179 291 -179 278 -164 c 128,-1,147
 265 -149 265 -149 265 -126 c 0,148,149
 265 -90 265 -90 290 -70.5 c 128,-1,150
 315 -51 315 -51 354 -51 c 256,151,95
 393 -51 393 -51 416 -73 c 128,-1,96
123 -202 m 1,153,154
 92 -171 92 -171 66 -171 c 0,155,156
 49 -171 49 -171 39 -179 c 128,-1,157
 29 -187 29 -187 29 -203 c 0,158,159
 29 -217 29 -217 39 -225.5 c 128,-1,160
 49 -234 49 -234 64 -234 c 0,161,152
 100 -234 100 -234 123 -202 c 1,153,154
EndSplineSet
Substitution2: "Single Substitution lookup 14 subtable" thoThanthai.less
Substitution2: "'aalt' Access All Alternates lookup 0 subtable" thoThanthai.less
EndChar

StartChar: thoThanthai.less
Encoding: 65542 -1 451
Width: 578
GlyphClass: 2
Flags: W
AnchorPoint: "Anchor-12" 541 550 basechar 0
AnchorPoint: "Anchor-11" 438 0 basechar 0
LayerCount: 2
Fore
SplineSet
228 0 m 128,-1,1
 196 9 196 9 198 20 c 0,2,3
 209 134 209 134 209 178 c 0,4,5
 209 204 209 204 198 218 c 128,-1,6
 187 232 187 232 168 232 c 256,7,8
 149 232 149 232 138 222 c 128,-1,9
 127 212 127 212 127 194 c 0,10,11
 127 178 127 178 136 168 c 128,-1,12
 145 158 145 158 160 158 c 0,13,14
 178 158 178 158 193 169 c 1,15,16
 196 163 196 163 196 155 c 0,17,18
 196 140 196 140 182 129.5 c 128,-1,19
 168 119 168 119 146 119 c 0,20,21
 112 119 112 119 90.5 139.5 c 128,-1,22
 69 160 69 160 69 195 c 0,23,24
 69 237 69 237 98.5 261.5 c 128,-1,25
 128 286 128 286 175 286 c 0,26,27
 224 286 224 286 252 257.5 c 128,-1,28
 280 229 280 229 281 182 c 0,29,30
 282 154 282 154 277 89 c 2,31,-1
 275 61 l 2,32,33
 275 56 275 56 284.5 53 c 128,-1,34
 294 50 294 50 309 50 c 0,35,36
 325 50 325 50 334.5 53.5 c 128,-1,37
 344 57 344 57 346 62 c 0,38,39
 356 99 356 99 359 109 c 0,40,41
 375 169 375 169 383.5 204 c 128,-1,42
 392 239 392 239 392 262 c 0,43,44
 392 299 392 299 369.5 318.5 c 128,-1,45
 347 338 347 338 298 341 c 0,46,47
 278 343 278 343 235 343 c 0,48,49
 221 343 221 343 131 340 c 0,50,51
 101 338 101 338 92 338 c 1,52,53
 68 377 68 377 68 426 c 0,54,55
 68 497 68 497 111 540 c 128,-1,56
 154 583 154 583 229 583 c 0,57,58
 271 583 271 583 343 571 c 0,59,60
 354 570 354 570 382 566 c 128,-1,61
 410 562 410 562 429 562 c 0,62,63
 469 562 469 562 495.5 568.5 c 128,-1,64
 522 575 522 575 539 589 c 1,65,66
 555 569 555 569 555 545 c 0,67,68
 555 478 555 478 451 478 c 0,69,70
 412 478 412 478 344 495 c 0,71,72
 307 503 307 503 284.5 507 c 128,-1,73
 262 511 262 511 239 511 c 0,74,75
 200 511 200 511 180 491.5 c 128,-1,76
 160 472 160 472 160 436 c 0,77,78
 160 418 160 418 165 408 c 1,79,80
 199 410 199 410 247 410 c 0,81,82
 306 410 306 410 350 405 c 0,83,84
 415 400 415 400 450 368 c 128,-1,85
 485 336 485 336 485 277 c 0,86,87
 485 243 485 243 476 206 c 128,-1,88
 467 169 467 169 446 102 c 0,89,90
 428 48 428 48 420 19 c 0,91,92
 416 7 416 7 382 -1 c 128,-1,93
 348 -9 348 -9 305 -9 c 0,94,0
 260 -9 260 -9 228 0 c 128,-1,1
EndSplineSet
EndChar

StartChar: uni0E11
Encoding: 3601 3601 452
Width: 663
GlyphClass: 2
Flags: W
AnchorPoint: "Anchor-12" 613 550 basechar 0
AnchorPoint: "Anchor-11" 536 0 basechar 0
LayerCount: 2
Fore
SplineSet
569 550.5 m 128,-1,1
 599 521 599 521 599 468 c 0,2,3
 599 449 599 449 597 438 c 2,4,-1
 536 0 l 1,5,-1
 445 0 l 1,6,-1
 503 419 l 2,7,8
 507 447 507 447 507 460 c 0,9,10
 507 486 507 486 496.5 496 c 128,-1,11
 486 506 486 506 463 506 c 256,12,13
 440 506 440 506 419 494 c 128,-1,14
 398 482 398 482 368.5 452 c 128,-1,15
 339 422 339 422 283 357 c 0,16,17
 247 316 247 316 227.5 284 c 128,-1,18
 208 252 208 252 203 212 c 2,19,-1
 172 0 l 1,20,-1
 96 0 l 2,21,22
 79 0 79 0 79 16 c 0,23,24
 79 29 79 29 85 51 c 0,25,26
 93 90 93 90 96 106 c 2,27,-1
 112 219 l 2,28,29
 117 254 117 254 131.5 282 c 128,-1,30
 146 310 146 310 161.5 329 c 128,-1,31
 177 348 177 348 211 384 c 0,32,33
 235 411 235 411 250.5 438.5 c 128,-1,34
 266 466 266 466 266 488 c 0,35,36
 266 518 266 518 240 518 c 256,37,38
 214 518 214 518 187 480 c 1,39,40
 177 502 177 502 167 511 c 128,-1,41
 157 520 157 520 139 520 c 0,42,43
 118 520 118 520 104.5 506 c 128,-1,44
 91 492 91 492 91 469 c 0,45,46
 91 452 91 452 101 442 c 128,-1,47
 111 432 111 432 127 432 c 0,48,49
 156 432 156 432 176 463 c 1,50,51
 189 457 189 457 189 441 c 0,52,53
 189 418 189 418 166.5 400 c 128,-1,54
 144 382 144 382 113 382 c 0,55,56
 75 382 75 382 52 403.5 c 128,-1,57
 29 425 29 425 29 463 c 0,58,59
 29 512 29 512 59.5 546 c 128,-1,60
 90 580 90 580 135 580 c 0,61,62
 161 580 161 580 175.5 570.5 c 128,-1,63
 190 561 190 561 200 541 c 1,64,65
 229 580 229 580 277 580 c 0,66,67
 306 580 306 580 325 563.5 c 128,-1,68
 344 547 344 547 348 517 c 1,69,70
 376 546 376 546 411 563 c 128,-1,71
 446 580 446 580 485 580 c 0,72,0
 539 580 539 580 569 550.5 c 128,-1,1
EndSplineSet
EndChar

StartChar: uni0E12
Encoding: 3602 3602 453
Width: 947
GlyphClass: 2
Flags: W
AnchorPoint: "Anchor-12" 880 550 basechar 0
AnchorPoint: "Anchor-11" 803 0 basechar 0
LayerCount: 2
Fore
SplineSet
884 576 m 1,0,-1
 820 130 l 2,1,2
 816 99 816 99 813 45 c 0,3,4
 812 38 812 38 812 31.5 c 128,-1,5
 812 25 812 25 811 20 c 0,6,7
 808 0 808 0 791 0 c 2,8,-1
 713 0 l 1,9,10
 653 139 653 139 540 166 c 1,11,-1
 533 107 l 2,12,13
 528 53 528 53 499.5 22 c 128,-1,14
 471 -9 471 -9 420 -9 c 0,15,16
 380 -9 380 -9 354.5 19.5 c 128,-1,17
 329 48 329 48 328 95 c 0,18,19
 328 148 328 148 364 185 c 128,-1,20
 400 222 400 222 457 231 c 1,21,-1
 477 370 l 2,22,23
 480 394 480 394 480 416 c 0,24,25
 480 457 480 457 465 479.5 c 128,-1,26
 450 502 450 502 415 509 c 1,27,28
 380 484 380 484 326 453 c 1,29,30
 291 477 291 477 251 509 c 1,31,32
 194 487 194 487 166 439.5 c 128,-1,33
 138 392 138 392 138 325 c 0,34,35
 138 238 138 238 183 173 c 1,36,37
 199 187 199 187 248 217 c 2,38,-1
 278 236 l 2,39,40
 310 256 310 256 323 271.5 c 128,-1,41
 336 287 336 287 336 309 c 0,42,43
 336 330 336 330 325.5 341 c 128,-1,44
 315 352 315 352 296 352 c 0,45,46
 275 352 275 352 262 339.5 c 128,-1,47
 249 327 249 327 249 307 c 0,48,49
 249 278 249 278 278 259 c 1,50,51
 271 252 271 252 264 248.5 c 128,-1,52
 257 245 257 245 246 245 c 0,53,54
 225 245 225 245 210.5 263.5 c 128,-1,55
 196 282 196 282 196 308 c 0,56,57
 196 351 196 351 226 377 c 128,-1,58
 256 403 256 403 303 403 c 0,59,60
 345 403 345 403 369.5 377.5 c 128,-1,61
 394 352 394 352 394 314 c 0,62,63
 394 285 394 285 381.5 263.5 c 128,-1,64
 369 242 369 242 352.5 228.5 c 128,-1,65
 336 215 336 215 300 190 c 0,66,67
 243 151 243 151 217 130.5 c 128,-1,68
 191 110 191 110 171.5 78.5 c 128,-1,69
 152 47 152 47 145 0 c 1,70,-1
 62 0 l 2,71,72
 57 0 57 0 54 2 c 128,-1,73
 51 4 51 4 52 11 c 0,74,75
 53 30 53 30 62.5 47.5 c 128,-1,76
 72 65 72 65 90 89 c 0,77,78
 92 92 92 92 101.5 105.5 c 128,-1,79
 111 119 111 119 111 127 c 256,80,81
 111 135 111 135 96 162 c 0,82,83
 75 200 75 200 61.5 237.5 c 128,-1,84
 48 275 48 275 48 326 c 0,85,86
 48 537 48 537 255 586 c 1,87,88
 298 560 298 560 332 524 c 1,89,90
 370 555 370 555 426 586 c 1,91,92
 501 570 501 570 536.5 529.5 c 128,-1,93
 572 489 572 489 572 422 c 0,94,95
 572 395 572 395 568 370 c 2,96,-1
 548 229 l 1,97,98
 602 218 602 218 648 189 c 128,-1,99
 694 160 694 160 728 113 c 1,100,-1
 792 576 l 1,101,-1
 884 576 l 1,0,-1
434.5 63 m 128,-1,103
 442 76 442 76 445 110 c 2,104,-1
 450 169 l 1,105,106
 422 162 422 162 404.5 143 c 128,-1,107
 387 124 387 124 387 91 c 0,108,109
 387 71 387 71 394 60.5 c 128,-1,110
 401 50 401 50 414 50 c 256,111,102
 427 50 427 50 434.5 63 c 128,-1,103
EndSplineSet
EndChar

StartChar: uni0E13
Encoding: 3603 3603 454
Width: 938
GlyphClass: 2
Flags: W
AnchorPoint: "Anchor-12" 885 550 basechar 0
AnchorPoint: "Anchor-11" 808 0 basechar 0
LayerCount: 2
Fore
SplineSet
859.5 179 m 128,-1,1
 876 153 876 153 876 120 c 0,2,3
 876 62 876 62 840.5 29 c 128,-1,4
 805 -4 805 -4 750 -4 c 0,5,6
 699 -4 699 -4 668.5 24 c 128,-1,7
 638 52 638 52 638 97 c 0,8,9
 638 128 638 128 649.5 149 c 128,-1,10
 661 170 661 170 682 190 c 1,11,12
 637 188 637 188 592.5 160 c 128,-1,13
 548 132 548 132 517 88.5 c 128,-1,14
 486 45 486 45 480 0 c 1,15,-1
 405 0 l 2,16,17
 388 0 388 0 388 15 c 0,18,19
 388 16 388 16 392 40 c 0,20,21
 401 76 401 76 405 113 c 2,22,-1
 441 380 l 2,23,24
 444 398 444 398 444 413 c 0,25,26
 444 466 444 466 408.5 493.5 c 128,-1,27
 373 521 373 521 305 521 c 0,28,29
 252 521 252 521 215 508.5 c 128,-1,30
 178 496 178 496 159.5 477.5 c 128,-1,31
 141 459 141 459 141 443 c 0,32,33
 141 422 141 422 158 406.5 c 128,-1,34
 175 391 175 391 194 391 c 0,35,36
 204 391 204 391 229 396 c 0,37,38
 247 400 247 400 253 400 c 0,39,40
 262 400 262 400 274 381.5 c 128,-1,41
 286 363 286 363 286 349 c 0,42,43
 286 338 286 338 278 338 c 0,44,45
 216 338 216 338 186.5 310.5 c 128,-1,46
 157 283 157 283 148 221 c 2,47,-1
 133 119 l 2,48,49
 131 103 131 103 131 97 c 0,50,51
 131 74 131 74 143.5 61 c 128,-1,52
 156 48 156 48 179 48 c 0,53,54
 201 48 201 48 213 60.5 c 128,-1,55
 225 73 225 73 225 96 c 0,56,57
 225 114 225 114 215 124.5 c 128,-1,58
 205 135 205 135 188 135 c 0,59,60
 173 135 173 135 155 130 c 0,61,62
 154 133 154 133 154 139 c 0,63,64
 154 157 154 157 168 169 c 128,-1,65
 182 181 182 181 207 181 c 0,66,67
 239 181 239 181 261 160 c 128,-1,68
 283 139 283 139 283 102 c 0,69,70
 283 51 283 51 252 22 c 128,-1,71
 221 -7 221 -7 164 -7 c 0,72,73
 110 -7 110 -7 75 22.5 c 128,-1,74
 40 52 40 52 40 99 c 0,75,76
 40 106 40 106 42 126 c 2,77,-1
 56 221 l 2,78,79
 69 308 69 308 124 349 c 1,80,81
 96 362 96 362 75 387.5 c 128,-1,82
 54 413 54 413 54 440 c 0,83,84
 54 472 54 472 84.5 506.5 c 128,-1,85
 115 541 115 541 172 563.5 c 128,-1,86
 229 586 229 586 304 586 c 0,87,88
 416 586 416 586 476 543.5 c 128,-1,89
 536 501 536 501 536 418 c 0,90,91
 536 401 536 401 533 383 c 2,92,-1
 502 159 l 1,93,94
 579 247 579 247 701 247 c 0,95,96
 721 247 721 247 740 244 c 1,97,98
 754 271 754 271 761 316 c 2,99,-1
 798 576 l 1,100,-1
 889 576 l 1,101,-1
 853 318 l 2,102,103
 843 253 843 253 814 221 c 1,104,0
 843 205 843 205 859.5 179 c 128,-1,1
795.5 71 m 128,-1,106
 812 88 812 88 812 117 c 0,107,108
 812 161 812 161 760 180 c 1,109,110
 733 162 733 162 718 145 c 128,-1,111
 703 128 703 128 703 106 c 0,112,113
 703 81 703 81 715.5 67.5 c 128,-1,114
 728 54 728 54 751 54 c 0,115,105
 779 54 779 54 795.5 71 c 128,-1,106
EndSplineSet
EndChar

StartChar: uni0E14
Encoding: 3604 3604 455
Width: 632
GlyphClass: 2
Flags: W
AnchorPoint: "Anchor-12" 582 550 basechar 0
AnchorPoint: "Anchor-11" 505 0 basechar 0
LayerCount: 2
Fore
SplineSet
496.5 535.5 m 128,-1,1
 557 485 557 485 557 394 c 0,2,3
 557 371 557 371 554 347 c 2,4,-1
 505 0 l 1,5,-1
 413 0 l 1,6,-1
 461 342 l 2,7,8
 464 368 464 368 464 389 c 0,9,10
 464 454 464 454 427 487.5 c 128,-1,11
 390 521 390 521 317 521 c 0,12,13
 228 521 228 521 183 469.5 c 128,-1,14
 138 418 138 418 138 325 c 0,15,16
 138 239 138 239 179 173 c 1,17,18
 205 195 205 195 254 223 c 0,19,20
 257 225 257 225 279 239 c 0,21,22
 311 260 311 260 324 275 c 128,-1,23
 337 290 337 290 337 312 c 0,24,25
 337 332 337 332 326.5 342.5 c 128,-1,26
 316 353 316 353 297 353 c 0,27,28
 276 353 276 353 263 340 c 128,-1,29
 250 327 250 327 250 306 c 0,30,31
 250 279 250 279 278 260 c 1,32,33
 271 253 271 253 264 249.5 c 128,-1,34
 257 246 257 246 246 246 c 0,35,36
 225 246 225 246 211 264 c 128,-1,37
 197 282 197 282 197 308 c 0,38,39
 197 351 197 351 227.5 377.5 c 128,-1,40
 258 404 258 404 304 404 c 0,41,42
 347 404 347 404 371 379.5 c 128,-1,43
 395 355 395 355 395 319 c 0,44,45
 395 276 395 276 372 250 c 128,-1,46
 349 224 349 224 300 191 c 0,47,48
 242 152 242 152 215 131 c 128,-1,49
 188 110 188 110 168.5 78.5 c 128,-1,50
 149 47 149 47 142 0 c 1,51,-1
 58 0 l 2,52,53
 53 0 53 0 50.5 2 c 128,-1,54
 48 4 48 4 48 11 c 0,55,56
 50 42 50 42 86 88 c 0,57,58
 94 99 94 99 100.5 110 c 128,-1,59
 107 121 107 121 107 127 c 0,60,61
 107 134 107 134 100.5 147 c 128,-1,62
 94 160 94 160 93 162 c 0,63,64
 72 203 72 203 60 239.5 c 128,-1,65
 48 276 48 276 48 326 c 0,66,67
 48 406 48 406 81.5 464.5 c 128,-1,68
 115 523 115 523 176 554.5 c 128,-1,69
 237 586 237 586 319 586 c 0,70,0
 436 586 436 586 496.5 535.5 c 128,-1,1
EndSplineSet
EndChar

StartChar: uni0E15
Encoding: 3605 3605 456
Width: 640
GlyphClass: 2
Flags: W
AnchorPoint: "Anchor-12" 590 550 basechar 0
AnchorPoint: "Anchor-11" 513 0 basechar 0
LayerCount: 2
Fore
SplineSet
535 530.5 m 128,-1,1
 569 490 569 490 569 423 c 0,2,3
 569 395 569 395 565 370 c 2,4,-1
 513 0 l 1,5,-1
 421 0 l 1,6,-1
 473 370 l 2,7,8
 477 391 477 391 477 417 c 0,9,10
 477 456 477 456 462 478.5 c 128,-1,11
 447 501 447 501 414 509 c 1,12,13
 364 475 364 475 326 453 c 1,14,15
 291 477 291 477 251 509 c 1,16,17
 194 487 194 487 166 439.5 c 128,-1,18
 138 392 138 392 138 325 c 0,19,20
 138 240 138 240 184 173 c 1,21,22
 200 187 200 187 249 217 c 2,23,-1
 279 236 l 2,24,25
 310 256 310 256 323.5 271.5 c 128,-1,26
 337 287 337 287 337 309 c 0,27,28
 337 329 337 329 326 340 c 128,-1,29
 315 351 315 351 296 351 c 0,30,31
 275 351 275 351 262.5 338.5 c 128,-1,32
 250 326 250 326 250 305 c 0,33,34
 250 278 250 278 278 259 c 1,35,36
 271 252 271 252 264.5 248.5 c 128,-1,37
 258 245 258 245 247 245 c 0,38,39
 226 245 226 245 211.5 263 c 128,-1,40
 197 281 197 281 197 307 c 0,41,42
 197 350 197 350 227 376 c 128,-1,43
 257 402 257 402 304 402 c 0,44,45
 346 402 346 402 370.5 377 c 128,-1,46
 395 352 395 352 395 313 c 0,47,48
 395 284 395 284 382.5 262.5 c 128,-1,49
 370 241 370 241 352 227 c 128,-1,50
 334 213 334 213 299 190 c 0,51,52
 243 152 243 152 216.5 131 c 128,-1,53
 190 110 190 110 171 78.5 c 128,-1,54
 152 47 152 47 145 0 c 1,55,-1
 62 0 l 2,56,57
 57 0 57 0 54 2 c 128,-1,58
 51 4 51 4 52 11 c 0,59,60
 53 30 53 30 62.5 47.5 c 128,-1,61
 72 65 72 65 90 89 c 0,62,63
 92 92 92 92 101.5 105.5 c 128,-1,64
 111 119 111 119 111 127 c 0,65,66
 111 136 111 136 96 161 c 0,67,68
 74 202 74 202 61 239 c 128,-1,69
 48 276 48 276 48 326 c 0,70,71
 48 537 48 537 255 586 c 1,72,73
 298 560 298 560 332 524 c 1,74,75
 375 558 375 558 424 586 c 1,76,0
 501 571 501 571 535 530.5 c 128,-1,1
EndSplineSet
EndChar

StartChar: uni0E16
Encoding: 3606 3606 457
Width: 613
GlyphClass: 2
Flags: W
AnchorPoint: "Anchor-12" 563 550 basechar 0
AnchorPoint: "Anchor-11" 486 0 basechar 0
LayerCount: 2
Fore
SplineSet
482 543.5 m 128,-1,1
 542 501 542 501 542 418 c 0,2,3
 542 401 542 401 539 383 c 2,4,-1
 486 0 l 1,5,-1
 395 0 l 1,6,-1
 448 380 l 2,7,8
 450 404 450 404 450 413 c 0,9,10
 450 466 450 466 414.5 493.5 c 128,-1,11
 379 521 379 521 311 521 c 0,12,13
 258 521 258 521 219.5 508 c 128,-1,14
 181 495 181 495 161 477 c 128,-1,15
 141 459 141 459 141 443 c 0,16,17
 141 422 141 422 158 406.5 c 128,-1,18
 175 391 175 391 194 391 c 0,19,20
 204 391 204 391 229 396 c 0,21,22
 247 400 247 400 253 400 c 0,23,24
 262 400 262 400 274 381.5 c 128,-1,25
 286 363 286 363 286 349 c 0,26,27
 286 338 286 338 278 338 c 0,28,29
 217 338 217 338 186.5 310.5 c 128,-1,30
 156 283 156 283 148 221 c 2,31,-1
 133 119 l 2,32,33
 131 103 131 103 131 97 c 0,34,35
 131 74 131 74 143.5 61 c 128,-1,36
 156 48 156 48 179 48 c 0,37,38
 201 48 201 48 213 60.5 c 128,-1,39
 225 73 225 73 225 96 c 0,40,41
 225 114 225 114 215 124.5 c 128,-1,42
 205 135 205 135 188 135 c 0,43,44
 173 135 173 135 155 130 c 0,45,46
 154 133 154 133 154 139 c 0,47,48
 154 157 154 157 168 169 c 128,-1,49
 182 181 182 181 207 181 c 0,50,51
 239 181 239 181 261 159.5 c 128,-1,52
 283 138 283 138 283 102 c 0,53,54
 283 51 283 51 252 22 c 128,-1,55
 221 -7 221 -7 164 -7 c 0,56,57
 110 -7 110 -7 75 22.5 c 128,-1,58
 40 52 40 52 40 99 c 0,59,60
 40 106 40 106 42 126 c 2,61,-1
 56 221 l 2,62,63
 67 307 67 307 124 348 c 1,64,65
 96 362 96 362 75 387.5 c 128,-1,66
 54 413 54 413 54 440 c 0,67,68
 54 472 54 472 86 506.5 c 128,-1,69
 118 541 118 541 176.5 563.5 c 128,-1,70
 235 586 235 586 310 586 c 0,71,0
 422 586 422 586 482 543.5 c 128,-1,1
EndSplineSet
EndChar

StartChar: uni0E17
Encoding: 3607 3607 458
Width: 682
GlyphClass: 2
Flags: W
AnchorPoint: "Anchor-12" 632 550 basechar 0
AnchorPoint: "Anchor-11" 555 0 basechar 0
LayerCount: 2
Fore
SplineSet
594.5 560.5 m 128,-1,1
 621 535 621 535 621 487 c 0,2,3
 621 479 621 479 619 459 c 2,4,-1
 555 0 l 1,5,-1
 463 0 l 1,6,-1
 524 435 l 2,7,8
 526 453 526 453 526 459 c 0,9,10
 526 503 526 503 486 503 c 0,11,12
 455 503 455 503 425 475 c 128,-1,13
 395 447 395 447 359 387 c 0,14,15
 288 269 288 269 254.5 190 c 128,-1,16
 221 111 221 111 210 42 c 2,17,-1
 203 0 l 1,18,-1
 122 0 l 2,19,20
 114 0 114 0 111 4 c 128,-1,21
 108 8 108 8 109 18 c 0,22,23
 110 24 110 24 116 50 c 128,-1,24
 122 76 122 76 127 112 c 2,25,-1
 177 465 l 2,26,27
 180 479 180 479 180 492 c 0,28,29
 180 510 180 510 170.5 520.5 c 128,-1,30
 161 531 161 531 142 531 c 0,31,32
 120 531 120 531 107.5 517.5 c 128,-1,33
 95 504 95 504 95 481 c 0,34,35
 95 463 95 463 106.5 452.5 c 128,-1,36
 118 442 118 442 137 442 c 2,37,-1
 159 442 l 1,38,39
 159 422 159 422 146.5 410.5 c 128,-1,40
 134 399 134 399 111 399 c 0,41,42
 83 399 83 399 61.5 421 c 128,-1,43
 40 443 40 443 40 477 c 0,44,45
 40 525 40 525 75 555.5 c 128,-1,46
 110 586 110 586 163 586 c 0,47,48
 213 586 213 586 242.5 561 c 128,-1,49
 272 536 272 536 272 491 c 0,50,51
 272 482 272 482 271 475.5 c 128,-1,52
 270 469 270 469 269 464 c 2,53,-1
 245 291 l 1,54,55
 287 377 287 377 327 442 c 0,56,57
 369 511 369 511 415.5 548.5 c 128,-1,58
 462 586 462 586 521 586 c 0,59,0
 568 586 568 586 594.5 560.5 c 128,-1,1
EndSplineSet
EndChar

StartChar: uni0E18
Encoding: 3608 3608 459
Width: 590
GlyphClass: 2
Flags: W
AnchorPoint: "Anchor-12" 527 550 basechar 0
AnchorPoint: "Anchor-11" 426 0 basechar 0
LayerCount: 2
Fore
SplineSet
96 17.5 m 128,-1,1
 51 44 51 44 51 109 c 0,2,3
 51 129 51 129 62 210 c 0,4,5
 63 216 63 216 70 264 c 1,6,7
 92 270 92 270 118 270 c 0,8,9
 161 270 161 270 158 241 c 0,10,11
 152 197 152 197 150 187 c 0,12,13
 143 138 143 138 143 120 c 0,14,15
 143 86 143 86 164 72 c 128,-1,16
 185 58 185 58 244 58 c 0,17,18
 294 58 294 58 321.5 67 c 128,-1,19
 349 76 349 76 362 94.5 c 128,-1,20
 375 113 375 113 380 146 c 0,21,22
 393 221 393 221 393 244 c 0,23,24
 393 276 393 276 377 291 c 128,-1,25
 361 306 361 306 325 313 c 0,26,27
 256 327 256 327 123 327 c 2,28,-1
 84 327 l 1,29,30
 73 342 73 342 65.5 367 c 128,-1,31
 58 392 58 392 58 416 c 0,32,33
 58 497 58 497 104 539.5 c 128,-1,34
 150 582 150 582 229 582 c 0,35,36
 265 582 265 582 335 574 c 0,37,38
 397 568 397 568 419 568 c 0,39,40
 489 568 489 568 532 595 c 1,41,42
 538 584 538 584 541.5 569.5 c 128,-1,43
 545 555 545 555 544 542 c 0,44,45
 543 514 543 514 513.5 499 c 128,-1,46
 484 484 484 484 441 484 c 0,47,48
 411 484 411 484 341 498 c 0,49,50
 275 513 275 513 239 513 c 0,51,52
 193 513 193 513 169.5 489.5 c 128,-1,53
 146 466 146 466 146 422 c 0,54,55
 146 406 146 406 152 395 c 1,56,57
 238 394 238 394 287.5 390.5 c 128,-1,58
 337 387 337 387 380 376 c 0,59,60
 431 363 431 363 458 336 c 128,-1,61
 485 309 485 309 485 256 c 0,62,63
 485 233 485 233 473 150 c 0,64,65
 464 88 464 88 437 53.5 c 128,-1,66
 410 19 410 19 362.5 5 c 128,-1,67
 315 -9 315 -9 239 -9 c 0,68,0
 141 -9 141 -9 96 17.5 c 128,-1,1
EndSplineSet
EndChar

StartChar: uni0E19
Encoding: 3609 3609 460
Width: 654
GlyphClass: 2
Flags: W
AnchorPoint: "Anchor-12" 600 550 basechar 0
AnchorPoint: "Anchor-11" 523 0 basechar 0
LayerCount: 2
Fore
SplineSet
574.5 179 m 128,-1,1
 591 153 591 153 591 120 c 0,2,3
 591 62 591 62 555.5 29 c 128,-1,4
 520 -4 520 -4 465 -4 c 0,5,6
 414 -4 414 -4 383.5 24 c 128,-1,7
 353 52 353 52 353 97 c 0,8,9
 353 128 353 128 364.5 149 c 128,-1,10
 376 170 376 170 397 190 c 1,11,12
 351 188 351 188 304 160.5 c 128,-1,13
 257 133 257 133 223.5 90 c 128,-1,14
 190 47 190 47 184 0 c 1,15,-1
 109 0 l 2,16,17
 92 0 92 0 92 15 c 0,18,19
 92 21 92 21 97 44 c 0,20,21
 107 96 107 96 109 113 c 2,22,-1
 157 465 l 2,23,24
 158 470 158 470 159 476.5 c 128,-1,25
 160 483 160 483 160 492 c 0,26,27
 160 510 160 510 150.5 520.5 c 128,-1,28
 141 531 141 531 122 531 c 0,29,30
 100 531 100 531 87.5 517.5 c 128,-1,31
 75 504 75 504 75 481 c 0,32,33
 75 463 75 463 86.5 452.5 c 128,-1,34
 98 442 98 442 117 442 c 2,35,-1
 139 442 l 1,36,37
 139 422 139 422 126.5 410.5 c 128,-1,38
 114 399 114 399 91 399 c 0,39,40
 63 399 63 399 41.5 421 c 128,-1,41
 20 443 20 443 20 477 c 0,42,43
 20 525 20 525 55 555.5 c 128,-1,44
 90 586 90 586 143 586 c 0,45,46
 193 586 193 586 222.5 561 c 128,-1,47
 252 536 252 536 252 491 c 0,48,49
 252 482 252 482 251 475.5 c 128,-1,50
 250 469 250 469 249 464 c 2,51,-1
 205 153 l 1,52,53
 245 198 245 198 299.5 222.5 c 128,-1,54
 354 247 354 247 416 247 c 0,55,56
 436 247 436 247 455 244 c 1,57,58
 469 271 469 271 476 316 c 2,59,-1
 513 576 l 1,60,-1
 604 576 l 1,61,-1
 568 318 l 2,62,63
 558 253 558 253 529 221 c 1,64,0
 558 205 558 205 574.5 179 c 128,-1,1
510.5 71 m 128,-1,66
 527 88 527 88 527 117 c 0,67,68
 527 161 527 161 475 180 c 1,69,70
 448 162 448 162 433 145 c 128,-1,71
 418 128 418 128 418 106 c 0,72,73
 418 81 418 81 430.5 67.5 c 128,-1,74
 443 54 443 54 466 54 c 0,75,65
 494 54 494 54 510.5 71 c 128,-1,66
EndSplineSet
EndChar

StartChar: uni0E1A
Encoding: 3610 3610 461
Width: 678
GlyphClass: 2
Flags: W
AnchorPoint: "Anchor-12" 625 550 basechar 0
AnchorPoint: "Anchor-11" 548 0 basechar 0
LayerCount: 2
Fore
SplineSet
204 4.5 m 128,-1,1
 151 18 151 18 129 50 c 0,2,3
 113 73 113 73 113 120 c 0,4,5
 113 145 113 145 118 187 c 2,6,-1
 158 465 l 2,7,8
 160 483 160 483 160 492 c 0,9,10
 160 510 160 510 150.5 520.5 c 128,-1,11
 141 531 141 531 122 531 c 0,12,13
 100 531 100 531 87.5 517.5 c 128,-1,14
 75 504 75 504 75 481 c 0,15,16
 75 463 75 463 86.5 452.5 c 128,-1,17
 98 442 98 442 117 442 c 2,18,-1
 139 442 l 1,19,20
 139 422 139 422 126.5 410.5 c 128,-1,21
 114 399 114 399 91 399 c 0,22,23
 63 399 63 399 41.5 421 c 128,-1,24
 20 443 20 443 20 477 c 0,25,26
 20 525 20 525 55 555.5 c 128,-1,27
 90 586 90 586 143 586 c 0,28,29
 193 586 193 586 222.5 561 c 128,-1,30
 252 536 252 536 252 491 c 0,31,32
 252 482 252 482 251 475.5 c 128,-1,33
 250 469 250 469 249 464 c 2,34,-1
 208 180 l 2,35,36
 204 144 204 144 204 131 c 0,37,38
 204 99 204 99 214 88 c 0,39,40
 242 56 242 56 330 56 c 0,41,42
 419 56 419 56 452 88 c 0,43,44
 465 100 465 100 469.5 116 c 128,-1,45
 474 132 474 132 480 169 c 2,46,-1
 537 576 l 1,47,-1
 629 576 l 1,48,-1
 574 190 l 2,49,50
 566 132 566 132 555.5 102 c 128,-1,51
 545 72 545 72 523 50 c 0,52,53
 490 19 490 19 434.5 5 c 128,-1,54
 379 -9 379 -9 320 -9 c 0,55,0
 257 -9 257 -9 204 4.5 c 128,-1,1
EndSplineSet
EndChar

StartChar: uni0E1B
Encoding: 3611 3611 462
Width: 678
GlyphClass: 2
Flags: W
AnchorPoint: "Anchor-12" 474 550 basechar 0
AnchorPoint: "Anchor-11" 548 0 basechar 0
LayerCount: 2
Fore
SplineSet
204 4.5 m 128,-1,1
 151 18 151 18 129 50 c 0,2,3
 113 73 113 73 113 120 c 0,4,5
 113 145 113 145 118 187 c 2,6,-1
 157 465 l 2,7,8
 160 479 160 479 160 492 c 0,9,10
 160 510 160 510 150.5 520.5 c 128,-1,11
 141 531 141 531 122 531 c 0,12,13
 100 531 100 531 87.5 517.5 c 128,-1,14
 75 504 75 504 75 481 c 0,15,16
 75 463 75 463 86.5 452.5 c 128,-1,17
 98 442 98 442 117 442 c 2,18,-1
 139 442 l 1,19,20
 139 422 139 422 126.5 410.5 c 128,-1,21
 114 399 114 399 91 399 c 0,22,23
 63 399 63 399 41.5 421 c 128,-1,24
 20 443 20 443 20 477 c 0,25,26
 20 525 20 525 55 555.5 c 128,-1,27
 90 586 90 586 143 586 c 0,28,29
 193 586 193 586 222.5 561 c 128,-1,30
 252 536 252 536 252 491 c 0,31,32
 252 482 252 482 251 475.5 c 128,-1,33
 250 469 250 469 249 464 c 2,34,-1
 208 180 l 2,35,36
 204 144 204 144 204 131 c 0,37,38
 204 99 204 99 214 88 c 0,39,40
 242 56 242 56 330 56 c 0,41,42
 419 56 419 56 452 88 c 0,43,44
 465 100 465 100 469.5 116 c 128,-1,45
 474 132 474 132 480 169 c 2,46,-1
 566 783 l 1,47,-1
 658 783 l 1,48,-1
 574 190 l 2,49,50
 566 132 566 132 555.5 102 c 128,-1,51
 545 72 545 72 523 50 c 0,52,53
 490 19 490 19 434.5 5 c 128,-1,54
 379 -9 379 -9 320 -9 c 0,55,0
 257 -9 257 -9 204 4.5 c 128,-1,1
EndSplineSet
EndChar

StartChar: uni0E1C
Encoding: 3612 3612 463
Width: 637
GlyphClass: 2
Flags: W
AnchorPoint: "Anchor-12" 580 550 basechar 0
AnchorPoint: "Anchor-11" 503 0 basechar 0
LayerCount: 2
Fore
SplineSet
584 576 m 1,0,-1
 521 132 l 2,1,2
 512 63 512 63 510 22 c 0,3,4
 509 10 509 10 505 5 c 128,-1,5
 501 0 501 0 492 0 c 2,6,-1
 414 0 l 1,7,8
 417 18 417 18 417 29 c 0,9,10
 417 75 417 75 383 130.5 c 128,-1,11
 349 186 349 186 293 236 c 1,12,13
 217 182 217 182 163 122.5 c 128,-1,14
 109 63 109 63 102 14 c 2,15,-1
 100 0 l 1,16,-1
 20 0 l 2,17,18
 13 0 13 0 9.5 3 c 128,-1,19
 6 6 6 6 6 14 c 0,20,21
 6 21 6 21 13 49 c 0,22,23
 25 99 25 99 31 135 c 2,24,-1
 76 452 l 2,25,26
 84 515 84 515 123 550.5 c 128,-1,27
 162 586 162 586 220 586 c 0,28,29
 271 586 271 586 299.5 562.5 c 128,-1,30
 328 539 328 539 328 498 c 0,31,32
 328 451 328 451 300 423.5 c 128,-1,33
 272 396 272 396 228 396 c 0,34,35
 206 396 206 396 193 406 c 128,-1,36
 180 416 180 416 180 429 c 0,37,38
 180 438 180 438 185 448 c 1,39,40
 203 441 203 441 221 441 c 0,41,42
 244 441 244 441 257 454.5 c 128,-1,43
 270 468 270 468 270 492 c 0,44,45
 270 509 270 509 259 518 c 128,-1,46
 248 527 248 527 228 527 c 0,47,48
 204 527 204 527 188 510 c 128,-1,49
 172 493 172 493 168 461 c 2,50,-1
 128 174 l 1,51,52
 188 248 188 248 296 314 c 1,53,-1
 307 314 l 1,54,55
 349 280 349 280 382.5 240.5 c 128,-1,56
 416 201 416 201 434 163 c 1,57,-1
 492 576 l 1,58,-1
 584 576 l 1,0,-1
EndSplineSet
EndChar

StartChar: uni0E1D
Encoding: 3613 3613 464
Width: 637
GlyphClass: 2
Flags: W
AnchorPoint: "Anchor-12" 434 550 basechar 0
AnchorPoint: "Anchor-11" 503 0 basechar 0
LayerCount: 2
Fore
SplineSet
613 783 m 1,0,-1
 521 132 l 2,1,2
 512 67 512 67 511 47 c 128,-1,3
 510 27 510 27 510 22 c 0,4,5
 509 10 509 10 505 5 c 128,-1,6
 501 0 501 0 492 0 c 2,7,-1
 414 0 l 1,8,9
 417 18 417 18 417 29 c 0,10,11
 417 75 417 75 383 130.5 c 128,-1,12
 349 186 349 186 293 236 c 1,13,14
 217 182 217 182 163 122.5 c 128,-1,15
 109 63 109 63 102 14 c 2,16,-1
 100 0 l 1,17,-1
 20 0 l 2,18,19
 13 0 13 0 9.5 3 c 128,-1,20
 6 6 6 6 6 14 c 0,21,22
 6 21 6 21 13 49 c 0,23,24
 25 99 25 99 31 135 c 2,25,-1
 76 452 l 2,26,27
 84 515 84 515 123 550.5 c 128,-1,28
 162 586 162 586 220 586 c 0,29,30
 271 586 271 586 299.5 562.5 c 128,-1,31
 328 539 328 539 328 498 c 0,32,33
 328 451 328 451 300 423.5 c 128,-1,34
 272 396 272 396 228 396 c 0,35,36
 206 396 206 396 193 406 c 128,-1,37
 180 416 180 416 180 429 c 0,38,39
 180 438 180 438 185 448 c 1,40,41
 203 441 203 441 221 441 c 0,42,43
 244 441 244 441 257 454.5 c 128,-1,44
 270 468 270 468 270 492 c 0,45,46
 270 509 270 509 259 518 c 128,-1,47
 248 527 248 527 228 527 c 0,48,49
 204 527 204 527 188 510 c 128,-1,50
 172 493 172 493 168 461 c 2,51,-1
 128 174 l 1,52,53
 188 248 188 248 296 314 c 1,54,-1
 307 314 l 1,55,56
 349 280 349 280 382.5 240.5 c 128,-1,57
 416 201 416 201 434 163 c 1,58,-1
 522 783 l 1,59,-1
 613 783 l 1,0,-1
EndSplineSet
EndChar

StartChar: uni0E1E
Encoding: 3614 3614 465
Width: 739
GlyphClass: 2
Flags: W
AnchorPoint: "Anchor-12" 681 550 basechar 0
AnchorPoint: "Anchor-11" 604 0 basechar 0
LayerCount: 2
Fore
SplineSet
685 576 m 1,0,-1
 630 190 l 2,1,2
 613 65 613 65 611 20 c 0,3,4
 611 0 611 0 597 0 c 2,5,-1
 515 0 l 1,6,7
 518 23 518 23 518 36 c 0,8,9
 518 92 518 92 483.5 196 c 128,-1,10
 449 300 449 300 407 382 c 1,11,12
 334 281 334 281 271.5 173 c 128,-1,13
 209 65 209 65 202 14 c 2,14,-1
 200 0 l 1,15,-1
 119 0 l 2,16,17
 106 0 106 0 106 13 c 0,18,19
 106 19 106 19 111 42 c 0,20,21
 124 94 124 94 138 190 c 2,22,-1
 177 465 l 2,23,24
 178 470 178 470 179 476.5 c 128,-1,25
 180 483 180 483 180 492 c 0,26,27
 180 510 180 510 170.5 520.5 c 128,-1,28
 161 531 161 531 142 531 c 0,29,30
 120 531 120 531 107.5 517.5 c 128,-1,31
 95 504 95 504 95 481 c 0,32,33
 95 463 95 463 106.5 452.5 c 128,-1,34
 118 442 118 442 137 442 c 2,35,-1
 159 442 l 1,36,37
 159 422 159 422 146.5 410.5 c 128,-1,38
 134 399 134 399 111 399 c 0,39,40
 83 399 83 399 61.5 421 c 128,-1,41
 40 443 40 443 40 477 c 0,42,43
 40 525 40 525 75 555.5 c 128,-1,44
 110 586 110 586 163 586 c 0,45,46
 213 586 213 586 242.5 561 c 128,-1,47
 272 536 272 536 272 491 c 0,48,49
 272 482 272 482 271 475.5 c 128,-1,50
 270 469 270 469 269 464 c 2,51,-1
 237 236 l 1,52,53
 267 301 267 301 313 375.5 c 128,-1,54
 359 450 359 450 412 520 c 1,55,-1
 426 520 l 1,56,57
 462 458 462 458 495.5 376.5 c 128,-1,58
 529 295 529 295 545 227 c 1,59,-1
 594 576 l 1,60,-1
 685 576 l 1,0,-1
EndSplineSet
EndChar

StartChar: uni0E1F
Encoding: 3615 3615 466
Width: 739
GlyphClass: 2
Flags: W
AnchorPoint: "Anchor-12" 535 550 basechar 0
AnchorPoint: "Anchor-11" 604 0 basechar 0
LayerCount: 2
Fore
SplineSet
714 783 m 1,0,-1
 630 190 l 2,1,2
 613 65 613 65 611 20 c 0,3,4
 611 0 611 0 597 0 c 2,5,-1
 515 0 l 1,6,7
 518 23 518 23 518 36 c 0,8,9
 518 92 518 92 483.5 196 c 128,-1,10
 449 300 449 300 407 382 c 1,11,12
 334 281 334 281 271.5 173 c 128,-1,13
 209 65 209 65 202 14 c 2,14,-1
 200 0 l 1,15,-1
 119 0 l 2,16,17
 106 0 106 0 106 13 c 0,18,19
 106 19 106 19 111 42 c 0,20,21
 124 94 124 94 138 190 c 2,22,-1
 177 465 l 2,23,24
 178 470 178 470 179 476.5 c 128,-1,25
 180 483 180 483 180 492 c 0,26,27
 180 510 180 510 170.5 520.5 c 128,-1,28
 161 531 161 531 142 531 c 0,29,30
 120 531 120 531 107.5 517.5 c 128,-1,31
 95 504 95 504 95 481 c 0,32,33
 95 463 95 463 106.5 452.5 c 128,-1,34
 118 442 118 442 137 442 c 2,35,-1
 159 442 l 1,36,37
 159 422 159 422 146.5 410.5 c 128,-1,38
 134 399 134 399 111 399 c 0,39,40
 83 399 83 399 61.5 421 c 128,-1,41
 40 443 40 443 40 477 c 0,42,43
 40 525 40 525 75 555.5 c 128,-1,44
 110 586 110 586 163 586 c 0,45,46
 213 586 213 586 242.5 561 c 128,-1,47
 272 536 272 536 272 491 c 0,48,49
 272 482 272 482 271 475.5 c 128,-1,50
 270 469 270 469 269 464 c 2,51,-1
 237 236 l 1,52,53
 267 301 267 301 313 375.5 c 128,-1,54
 359 450 359 450 412 520 c 1,55,-1
 426 520 l 1,56,57
 463 457 463 457 496 376.5 c 128,-1,58
 529 296 529 296 544 228 c 1,59,-1
 622 783 l 1,60,-1
 714 783 l 1,0,-1
EndSplineSet
EndChar

StartChar: uni0E20
Encoding: 3616 3616 467
Width: 625
GlyphClass: 2
Flags: W
AnchorPoint: "Anchor-12" 575 550 basechar 0
AnchorPoint: "Anchor-11" 498 0 basechar 0
LayerCount: 2
Fore
SplineSet
490 544.5 m 128,-1,1
 553 503 553 503 553 413 c 0,2,3
 553 393 553 393 550 372 c 2,4,-1
 498 0 l 1,5,-1
 406 0 l 1,6,-1
 458 372 l 2,7,8
 461 392 461 392 461 409 c 0,9,10
 461 470 461 470 426.5 495.5 c 128,-1,11
 392 521 392 521 326 521 c 0,12,13
 279 521 279 521 239 508 c 128,-1,14
 199 495 199 495 175.5 476.5 c 128,-1,15
 152 458 152 458 152 443 c 0,16,17
 152 425 152 425 171 409 c 128,-1,18
 190 393 190 393 203 393 c 0,19,20
 211 393 211 393 235 401 c 0,21,22
 240 402 240 402 250.5 405 c 128,-1,23
 261 408 261 408 267 408 c 0,24,25
 276 408 276 408 287 390.5 c 128,-1,26
 298 373 298 373 298 360 c 256,27,28
 298 347 298 347 290 347 c 0,29,30
 241 347 241 347 210 320.5 c 128,-1,31
 179 294 179 294 179 244 c 2,32,-1
 181 187 l 2,33,34
 184 150 184 150 184 118 c 0,35,36
 184 58 184 58 149 25 c 128,-1,37
 114 -8 114 -8 56 -8 c 0,38,39
 13 -8 13 -8 -11.5 15.5 c 128,-1,40
 -36 39 -36 39 -36 74 c 0,41,42
 -36 116 -36 116 -11 137 c 128,-1,43
 14 158 14 158 46 158 c 0,44,45
 64 158 64 158 73.5 148.5 c 128,-1,46
 83 139 83 139 81 122 c 1,47,-1
 63 122 l 2,48,49
 43 122 43 122 30 111 c 128,-1,50
 17 100 17 100 17 82 c 0,51,52
 17 66 17 66 25.5 56 c 128,-1,53
 34 46 34 46 52 46 c 0,54,55
 101 46 101 46 101 121 c 0,56,57
 101 145 101 145 97 183 c 0,58,59
 93 217 93 217 93 234 c 0,60,61
 93 313 93 313 147 349 c 1,62,63
 113 360 113 360 88 386 c 128,-1,64
 63 412 63 412 63 442 c 256,65,66
 63 472 63 472 95 506 c 128,-1,67
 127 540 127 540 186.5 563 c 128,-1,68
 246 586 246 586 325 586 c 0,69,0
 427 586 427 586 490 544.5 c 128,-1,1
EndSplineSet
EndChar

StartChar: uni0E21
Encoding: 3617 3617 468
Width: 674
GlyphClass: 2
Flags: W
AnchorPoint: "Anchor-12" 606 550 basechar 0
AnchorPoint: "Anchor-11" 529 0 basechar 0
LayerCount: 2
Fore
SplineSet
611 576 m 1,0,-1
 549 138 l 2,1,2
 542 77 542 77 540 44 c 0,3,4
 538 18 538 18 538 20 c 1,5,6
 535 0 535 0 520 0 c 2,7,-1
 440 0 l 1,8,9
 431 89 431 89 378.5 141.5 c 128,-1,10
 326 194 326 194 252 200 c 1,11,-1
 249 162 l 2,12,13
 247 134 247 134 245 120 c 0,14,15
 236 55 236 55 205.5 23 c 128,-1,16
 175 -9 175 -9 120 -9 c 0,17,18
 77 -9 77 -9 50 17.5 c 128,-1,19
 23 44 23 44 23 89 c 0,20,21
 23 137 23 137 44 174.5 c 128,-1,22
 65 212 65 212 98.5 234 c 128,-1,23
 132 256 132 256 170 261 c 1,24,25
 171 281 171 281 175 307 c 2,26,-1
 197 465 l 2,27,28
 198 470 198 470 199 476.5 c 128,-1,29
 200 483 200 483 200 492 c 0,30,31
 200 510 200 510 190.5 520.5 c 128,-1,32
 181 531 181 531 162 531 c 0,33,34
 140 531 140 531 127.5 517.5 c 128,-1,35
 115 504 115 504 115 481 c 0,36,37
 115 463 115 463 126.5 452.5 c 128,-1,38
 138 442 138 442 157 442 c 2,39,-1
 179 442 l 1,40,41
 179 422 179 422 166.5 410.5 c 128,-1,42
 154 399 154 399 131 399 c 0,43,44
 103 399 103 399 81.5 421 c 128,-1,45
 60 443 60 443 60 477 c 0,46,47
 60 525 60 525 95 555.5 c 128,-1,48
 130 586 130 586 183 586 c 0,49,50
 233 586 233 586 262.5 561 c 128,-1,51
 292 536 292 536 292 491 c 0,52,53
 292 482 292 482 291 475.5 c 128,-1,54
 290 469 290 469 289 464 c 2,55,-1
 260 263 l 1,56,57
 324 261 324 261 377.5 229 c 128,-1,58
 431 197 431 197 458 143 c 1,59,-1
 519 576 l 1,60,-1
 611 576 l 1,0,-1
163 200 m 1,62,63
 129 193 129 193 107.5 165 c 128,-1,64
 86 137 86 137 86 93 c 0,65,66
 86 50 86 50 116 50 c 0,67,68
 132 50 132 50 141 65.5 c 128,-1,69
 150 81 150 81 156 124 c 0,70,61
 159 141 159 141 163 200 c 1,62,63
EndSplineSet
EndChar

StartChar: uni0E22
Encoding: 3618 3618 469
Width: 627
GlyphClass: 2
Flags: W
AnchorPoint: "Anchor-12" 573 550 basechar 0
AnchorPoint: "Anchor-11" 496 0 basechar 0
LayerCount: 2
Fore
SplineSet
577 576 m 1,0,-1
 532 257 l 2,1,2
 523 192 523 192 516.5 158.5 c 128,-1,3
 510 125 510 125 497 96.5 c 128,-1,4
 484 68 484 68 461 48 c 0,5,6
 426 16 426 16 375 3.5 c 128,-1,7
 324 -9 324 -9 260 -9 c 256,8,9
 196 -9 196 -9 147.5 3.5 c 128,-1,10
 99 16 99 16 71 48 c 0,11,12
 39 87 39 87 39 133 c 0,13,14
 39 153 39 153 45 184 c 0,15,16
 52 230 52 230 78 257.5 c 128,-1,17
 104 285 104 285 138 297 c 1,18,19
 109 312 109 312 89 345.5 c 128,-1,20
 69 379 69 379 69 424 c 0,21,22
 69 498 69 498 116 542 c 128,-1,23
 163 586 163 586 233 586 c 0,24,25
 282 586 282 586 308.5 562 c 128,-1,26
 335 538 335 538 335 500 c 0,27,28
 335 457 335 457 309.5 433 c 128,-1,29
 284 409 284 409 241 409 c 0,30,31
 217 409 217 409 202 420 c 128,-1,32
 187 431 187 431 187 447 c 0,33,34
 187 457 187 457 191 465 c 1,35,36
 211 453 211 453 231 453 c 0,37,38
 253 453 253 453 265.5 464.5 c 128,-1,39
 278 476 278 476 278 497 c 0,40,41
 278 513 278 513 268 522 c 128,-1,42
 258 531 258 531 240 531 c 0,43,44
 200 531 200 531 178 501 c 128,-1,45
 156 471 156 471 156 424 c 0,46,47
 156 371 156 371 194 345.5 c 128,-1,48
 232 320 232 320 320 320 c 0,49,50
 326 320 326 320 326 312 c 0,51,52
 326 298 326 298 311 276.5 c 128,-1,53
 296 255 296 255 282 255 c 0,54,55
 270 255 270 255 252 260 c 0,56,57
 222 267 222 267 206 267 c 0,58,59
 180 267 180 267 160 243.5 c 128,-1,60
 140 220 140 220 136 184 c 0,61,62
 132 153 132 153 132 139 c 0,63,64
 132 110 132 110 146 92 c 0,65,66
 174 58 174 58 267 58 c 0,67,68
 356 58 356 58 394 92 c 0,69,70
 412 109 412 109 420.5 140 c 128,-1,71
 429 171 429 171 437 233 c 2,72,-1
 440 254 l 1,73,-1
 486 576 l 1,74,-1
 577 576 l 1,0,-1
EndSplineSet
EndChar

StartChar: uni0E23
Encoding: 3619 3619 470
Width: 518
GlyphClass: 2
Flags: W
AnchorPoint: "Anchor-12" 474 550 basechar 0
AnchorPoint: "Anchor-11" 367 0 basechar 0
LayerCount: 2
Fore
SplineSet
161.5 19.5 m 128,-1,1
 133 47 133 47 133 87 c 0,2,3
 133 132 133 132 161.5 159.5 c 128,-1,4
 190 187 190 187 232 187 c 0,5,6
 279 187 279 187 277 138 c 1,7,8
 262 141 262 141 242 141 c 0,9,10
 221 141 221 141 207 128.5 c 128,-1,11
 193 116 193 116 193 95 c 0,12,13
 193 76 193 76 203.5 64 c 128,-1,14
 214 52 214 52 233 52 c 0,15,16
 261 52 261 52 277 69.5 c 128,-1,17
 293 87 293 87 302 128 c 0,18,19
 314 187 314 187 314 225 c 0,20,21
 314 261 314 261 297.5 280.5 c 128,-1,22
 281 300 281 300 247 309 c 0,23,24
 205 318 205 318 168.5 321 c 128,-1,25
 132 324 132 324 66 324 c 1,26,27
 54 337 54 337 47.5 359.5 c 128,-1,28
 41 382 41 382 41 408 c 0,29,30
 41 461 41 461 65.5 500.5 c 128,-1,31
 90 540 90 540 130.5 561 c 128,-1,32
 171 582 171 582 218 582 c 0,33,34
 251 582 251 582 307 574 c 0,35,36
 355 568 355 568 376 568 c 0,37,38
 438 568 438 568 481 595 c 1,39,40
 492 577 492 577 492 552 c 0,41,42
 492 520 492 520 462 502 c 128,-1,43
 432 484 432 484 388 484 c 0,44,45
 355 484 355 484 304 499 c 0,46,47
 283 504 283 504 260.5 508.5 c 128,-1,48
 238 513 238 513 219 513 c 0,49,50
 178 513 178 513 155.5 488.5 c 128,-1,51
 133 464 133 464 133 420 c 0,52,53
 133 401 133 401 138 391 c 1,54,55
 223 391 223 391 302 372 c 0,56,57
 407 348 407 348 407 239 c 0,58,59
 407 201 407 201 394 129 c 0,60,61
 380 59 380 59 340.5 25.5 c 128,-1,62
 301 -8 301 -8 236 -8 c 0,63,0
 190 -8 190 -8 161.5 19.5 c 128,-1,1
EndSplineSet
EndChar

StartChar: uni0E24
Encoding: 3620 3620 471
Width: 613
GlyphClass: 2
Flags: W
AnchorPoint: "Anchor-12" 563 550 basechar 0
AnchorPoint: "Anchor-11" 455 -220 basechar 0
LayerCount: 2
Fore
SplineSet
448 380 m 2,0,1
 450 404 450 404 450 413 c 0,2,3
 450 466 450 466 414.5 493.5 c 128,-1,4
 379 521 379 521 311 521 c 0,5,6
 258 521 258 521 219.5 508 c 128,-1,7
 181 495 181 495 161 477 c 128,-1,8
 141 459 141 459 141 443 c 0,9,10
 141 422 141 422 158 406.5 c 128,-1,11
 175 391 175 391 194 391 c 0,12,13
 204 391 204 391 229 396 c 0,14,15
 247 400 247 400 253 400 c 0,16,17
 262 400 262 400 274 381.5 c 128,-1,18
 286 363 286 363 286 349 c 0,19,20
 286 338 286 338 278 338 c 0,21,22
 216 338 216 338 186.5 310.5 c 128,-1,23
 157 283 157 283 148 221 c 2,24,-1
 133 119 l 2,25,26
 131 103 131 103 131 97 c 0,27,28
 131 74 131 74 143.5 61 c 128,-1,29
 156 48 156 48 179 48 c 0,30,31
 201 48 201 48 213 60.5 c 128,-1,32
 225 73 225 73 225 96 c 0,33,34
 225 114 225 114 215 124.5 c 128,-1,35
 205 135 205 135 188 135 c 0,36,37
 173 135 173 135 155 130 c 0,38,39
 154 133 154 133 154 139 c 0,40,41
 154 157 154 157 168 169 c 128,-1,42
 182 181 182 181 207 181 c 0,43,44
 239 181 239 181 261 159.5 c 128,-1,45
 283 138 283 138 283 102 c 0,46,47
 283 51 283 51 252 22 c 128,-1,48
 221 -7 221 -7 164 -7 c 0,49,50
 110 -7 110 -7 75 22.5 c 128,-1,51
 40 52 40 52 40 99 c 0,52,53
 40 106 40 106 42 126 c 2,54,-1
 56 221 l 2,55,56
 67 306 67 306 124 349 c 1,57,58
 97 361 97 361 75.5 387 c 128,-1,59
 54 413 54 413 54 440 c 0,60,61
 54 472 54 472 86 506.5 c 128,-1,62
 118 541 118 541 176.5 563.5 c 128,-1,63
 235 586 235 586 310 586 c 0,64,65
 422 586 422 586 482 543.5 c 128,-1,66
 542 501 542 501 542 418 c 0,67,68
 542 401 542 401 539 383 c 2,69,-1
 455 -220 l 1,70,-1
 364 -220 l 1,71,-1
 448 380 l 2,0,1
EndSplineSet
Substitution2: "Single Substitution lookup 14 subtable" uni0E24.short
Substitution2: "'aalt' Access All Alternates lookup 0 subtable" uni0E24.short
EndChar

StartChar: uni0E24.short
Encoding: 65543 -1 472
Width: 612
GlyphClass: 2
Flags: W
AnchorPoint: "Anchor-12" 563 550 basechar 0
AnchorPoint: "Anchor-11" 463 -159 basechar 0
LayerCount: 2
Fore
SplineSet
448 380 m 2,0,1
 450 404 450 404 450 413 c 0,2,3
 450 466 450 466 414.5 493.5 c 128,-1,4
 379 521 379 521 311 521 c 0,5,6
 258 521 258 521 219.5 508 c 128,-1,7
 181 495 181 495 161 477 c 128,-1,8
 141 459 141 459 141 443 c 0,9,10
 141 422 141 422 158 406.5 c 128,-1,11
 175 391 175 391 194 391 c 0,12,13
 204 391 204 391 229 396 c 0,14,15
 247 400 247 400 253 400 c 0,16,17
 262 400 262 400 274 381.5 c 128,-1,18
 286 363 286 363 286 349 c 0,19,20
 286 338 286 338 278 338 c 0,21,22
 216 338 216 338 186.5 310.5 c 128,-1,23
 157 283 157 283 148 221 c 2,24,-1
 133 119 l 2,25,26
 131 103 131 103 131 97 c 0,27,28
 131 74 131 74 143.5 61 c 128,-1,29
 156 48 156 48 179 48 c 0,30,31
 201 48 201 48 213 60.5 c 128,-1,32
 225 73 225 73 225 96 c 0,33,34
 225 114 225 114 215 124.5 c 128,-1,35
 205 135 205 135 188 135 c 0,36,37
 173 135 173 135 155 130 c 0,38,39
 154 133 154 133 154 139 c 0,40,41
 154 157 154 157 168 169 c 128,-1,42
 182 181 182 181 207 181 c 0,43,44
 239 181 239 181 261 159.5 c 128,-1,45
 283 138 283 138 283 102 c 0,46,47
 283 51 283 51 252 22 c 128,-1,48
 221 -7 221 -7 164 -7 c 0,49,50
 110 -7 110 -7 75 22.5 c 128,-1,51
 40 52 40 52 40 99 c 0,52,53
 40 106 40 106 42 126 c 2,54,-1
 56 221 l 2,55,56
 67 306 67 306 124 349 c 1,57,58
 97 361 97 361 75.5 387 c 128,-1,59
 54 413 54 413 54 440 c 0,60,61
 54 472 54 472 86 506.5 c 128,-1,62
 118 541 118 541 176.5 563.5 c 128,-1,63
 235 586 235 586 310 586 c 0,64,65
 422 586 422 586 482 543.5 c 128,-1,66
 542 501 542 501 542 418 c 0,67,68
 542 401 542 401 539 383 c 2,69,-1
 463 -159 l 1,70,-1
 372 -159 l 1,71,-1
 448 380 l 2,0,1
EndSplineSet
EndChar

StartChar: uni0E25
Encoding: 3621 3621 473
Width: 628
GlyphClass: 2
Flags: W
AnchorPoint: "Anchor-12" 569 550 basechar 0
AnchorPoint: "Anchor-11" 492 0 basechar 0
LayerCount: 2
Fore
SplineSet
441.5 566.5 m 128,-1,1
 493 547 493 547 522 510 c 128,-1,2
 551 473 551 473 551 423 c 0,3,4
 551 382 551 382 524 268 c 0,5,6
 512 212 512 212 508 187 c 0,7,8
 505 165 505 165 501 87 c 0,9,10
 500 73 500 73 499 54.5 c 128,-1,11
 498 36 498 36 496 19 c 0,12,13
 493 0 493 0 480 0 c 2,14,-1
 396 0 l 1,15,16
 404 61 404 61 404 104 c 0,17,18
 404 207 404 207 367.5 257 c 128,-1,19
 331 307 331 307 265 307 c 0,20,21
 198 307 198 307 163 261.5 c 128,-1,22
 128 216 128 216 128 141 c 0,23,24
 128 97 128 97 143.5 72 c 128,-1,25
 159 47 159 47 184 47 c 0,26,27
 207 47 207 47 218 59.5 c 128,-1,28
 229 72 229 72 229 94 c 0,29,30
 229 109 229 109 220 118 c 128,-1,31
 211 127 211 127 194 127 c 0,32,33
 175 127 175 127 154 114 c 1,34,35
 152 120 152 120 152 127 c 0,36,37
 152 145 152 145 168 157.5 c 128,-1,38
 184 170 184 170 209 170 c 0,39,40
 241 170 241 170 263 148.5 c 128,-1,41
 285 127 285 127 285 96 c 0,42,43
 285 48 285 48 256.5 19.5 c 128,-1,44
 228 -9 228 -9 178 -9 c 0,45,46
 119 -9 119 -9 80 29 c 128,-1,47
 41 67 41 67 41 139 c 0,48,49
 41 208 41 208 69 261.5 c 128,-1,50
 97 315 97 315 147 344.5 c 128,-1,51
 197 374 197 374 261 374 c 256,52,53
 325 374 325 374 369.5 346 c 128,-1,54
 414 318 414 318 434 271 c 1,55,56
 456 381 456 381 456 409 c 0,57,58
 456 460 456 460 422 487.5 c 128,-1,59
 388 515 388 515 325 515 c 0,60,61
 269 515 269 515 228 496.5 c 128,-1,62
 187 478 187 478 146 442 c 0,63,64
 140 438 140 438 134 435 c 128,-1,65
 128 432 128 432 121 432 c 0,66,67
 108 432 108 432 94 447.5 c 128,-1,68
 80 463 80 463 73 487 c 1,69,70
 117 529 117 529 180.5 557.5 c 128,-1,71
 244 586 244 586 326 586 c 0,72,0
 390 586 390 586 441.5 566.5 c 128,-1,1
EndSplineSet
EndChar

StartChar: uni0E26
Encoding: 3622 3622 474
Width: 625
GlyphClass: 2
Flags: W
AnchorPoint: "Anchor-12" 575 550 basechar 0
AnchorPoint: "Anchor-11" 467 -220 basechar 0
LayerCount: 2
Fore
SplineSet
458 372 m 2,0,1
 461 392 461 392 461 409 c 0,2,3
 461 470 461 470 426.5 495.5 c 128,-1,4
 392 521 392 521 326 521 c 0,5,6
 279 521 279 521 239 508 c 128,-1,7
 199 495 199 495 175.5 476.5 c 128,-1,8
 152 458 152 458 152 443 c 0,9,10
 152 425 152 425 171 409 c 128,-1,11
 190 393 190 393 203 393 c 0,12,13
 211 393 211 393 235 401 c 0,14,15
 240 402 240 402 250.5 405 c 128,-1,16
 261 408 261 408 267 408 c 0,17,18
 276 408 276 408 287 390.5 c 128,-1,19
 298 373 298 373 298 360 c 256,20,21
 298 347 298 347 290 347 c 0,22,23
 241 347 241 347 210 320.5 c 128,-1,24
 179 294 179 294 179 244 c 2,25,-1
 181 187 l 2,26,27
 184 150 184 150 184 118 c 0,28,29
 184 58 184 58 149 25 c 128,-1,30
 114 -8 114 -8 56 -8 c 0,31,32
 13 -8 13 -8 -11.5 15.5 c 128,-1,33
 -36 39 -36 39 -36 74 c 0,34,35
 -36 116 -36 116 -11 137 c 128,-1,36
 14 158 14 158 46 158 c 0,37,38
 64 158 64 158 73.5 148.5 c 128,-1,39
 83 139 83 139 81 122 c 1,40,-1
 63 122 l 2,41,42
 43 122 43 122 30 111 c 128,-1,43
 17 100 17 100 17 82 c 0,44,45
 17 66 17 66 25.5 56 c 128,-1,46
 34 46 34 46 52 46 c 0,47,48
 101 46 101 46 101 121 c 0,49,50
 101 145 101 145 97 183 c 0,51,52
 93 217 93 217 93 234 c 0,53,54
 93 314 93 314 145 350 c 1,55,56
 112 360 112 360 87.5 386 c 128,-1,57
 63 412 63 412 63 442 c 256,58,59
 63 472 63 472 95 506 c 128,-1,60
 127 540 127 540 186.5 563 c 128,-1,61
 246 586 246 586 325 586 c 0,62,63
 427 586 427 586 490 544.5 c 128,-1,64
 553 503 553 503 553 413 c 0,65,66
 553 393 553 393 550 372 c 2,67,-1
 467 -220 l 1,68,-1
 375 -220 l 1,69,-1
 458 372 l 2,0,1
EndSplineSet
Substitution2: "Single Substitution lookup 14 subtable" uni0E26.short
Substitution2: "'aalt' Access All Alternates lookup 0 subtable" uni0E26.short
EndChar

StartChar: uni0E26.short
Encoding: 65544 -1 475
Width: 624
GlyphClass: 2
Flags: W
AnchorPoint: "Anchor-12" 575 550 basechar 0
AnchorPoint: "Anchor-11" 475 -160 basechar 0
LayerCount: 2
Fore
SplineSet
458 372 m 2,0,1
 461 392 461 392 461 409 c 0,2,3
 461 470 461 470 426.5 495.5 c 128,-1,4
 392 521 392 521 326 521 c 0,5,6
 279 521 279 521 239 508 c 128,-1,7
 199 495 199 495 175.5 476.5 c 128,-1,8
 152 458 152 458 152 443 c 0,9,10
 152 425 152 425 171 409 c 128,-1,11
 190 393 190 393 203 393 c 0,12,13
 211 393 211 393 235 401 c 0,14,15
 240 402 240 402 250.5 405 c 128,-1,16
 261 408 261 408 267 408 c 0,17,18
 276 408 276 408 287 390.5 c 128,-1,19
 298 373 298 373 298 360 c 256,20,21
 298 347 298 347 290 347 c 0,22,23
 241 347 241 347 210 320.5 c 128,-1,24
 179 294 179 294 179 244 c 2,25,-1
 181 187 l 2,26,27
 184 150 184 150 184 118 c 0,28,29
 184 58 184 58 149 25 c 128,-1,30
 114 -8 114 -8 56 -8 c 0,31,32
 13 -8 13 -8 -11.5 15.5 c 128,-1,33
 -36 39 -36 39 -36 74 c 0,34,35
 -36 116 -36 116 -11 137 c 128,-1,36
 14 158 14 158 46 158 c 0,37,38
 64 158 64 158 73.5 148.5 c 128,-1,39
 83 139 83 139 81 122 c 1,40,-1
 63 122 l 2,41,42
 43 122 43 122 30 111 c 128,-1,43
 17 100 17 100 17 82 c 0,44,45
 17 66 17 66 25.5 56 c 128,-1,46
 34 46 34 46 52 46 c 0,47,48
 101 46 101 46 101 121 c 0,49,50
 101 145 101 145 97 183 c 0,51,52
 93 217 93 217 93 234 c 0,53,54
 93 314 93 314 145 350 c 1,55,56
 112 360 112 360 87.5 386 c 128,-1,57
 63 412 63 412 63 442 c 256,58,59
 63 472 63 472 95 506 c 128,-1,60
 127 540 127 540 186.5 563 c 128,-1,61
 246 586 246 586 325 586 c 0,62,63
 427 586 427 586 490 544.5 c 128,-1,64
 553 503 553 503 553 413 c 0,65,66
 553 393 553 393 550 372 c 2,67,-1
 475 -160 l 1,68,-1
 383 -160 l 1,69,-1
 458 372 l 2,0,1
EndSplineSet
EndChar

StartChar: uni0E27
Encoding: 3623 3623 476
Width: 528
GlyphClass: 2
Flags: W
AnchorPoint: "Anchor-12" 475 550 basechar 0
AnchorPoint: "Anchor-11" 398 0 basechar 0
LayerCount: 2
Fore
SplineSet
184 17.5 m 128,-1,1
 153 44 153 44 153 87 c 0,2,3
 153 131 153 131 181 156.5 c 128,-1,4
 209 182 209 182 249 182 c 0,5,6
 274 182 274 182 287 171 c 128,-1,7
 300 160 300 160 300 143 c 0,8,9
 300 136 300 136 297 131 c 1,10,11
 279 137 279 137 259 137 c 0,12,13
 238 137 238 137 225.5 125.5 c 128,-1,14
 213 114 213 114 213 91 c 0,15,16
 213 72 213 72 225 61.5 c 128,-1,17
 237 51 237 51 257 51 c 0,18,19
 288 51 288 51 304.5 70.5 c 128,-1,20
 321 90 321 90 327 130 c 2,21,-1
 362 382 l 2,22,23
 364 393 364 393 364 418 c 0,24,25
 364 466 364 466 338 491.5 c 128,-1,26
 312 517 312 517 258 517 c 0,27,28
 208 517 208 517 172.5 496.5 c 128,-1,29
 137 476 137 476 106 437 c 0,30,31
 99 429 99 429 86 429 c 256,32,33
 73 429 73 429 58.5 443 c 128,-1,34
 44 457 44 457 35 478 c 1,35,36
 74 525 74 525 131 555.5 c 128,-1,37
 188 586 188 586 264 586 c 0,38,39
 351 586 351 586 402 543 c 128,-1,40
 453 500 453 500 453 421 c 0,41,42
 453 394 453 394 451 380 c 2,43,-1
 415 125 l 2,44,45
 405 58 405 58 366 24.5 c 128,-1,46
 327 -9 327 -9 266 -9 c 0,47,0
 215 -9 215 -9 184 17.5 c 128,-1,1
EndSplineSet
EndChar

StartChar: uni0E28
Encoding: 3624 3624 477
Width: 617
GlyphClass: 2
Flags: W
AnchorPoint: "Anchor-12" 577 550 basechar 0
AnchorPoint: "Anchor-11" 500 0 basechar 0
LayerCount: 2
Fore
SplineSet
607 528.5 m 128,-1,1
 577 509 577 509 529 502 c 1,2,3
 553 462 553 462 553 405 c 0,4,5
 553 381 553 381 550 357 c 2,6,-1
 500 0 l 1,7,-1
 409 0 l 1,8,-1
 458 352 l 2,9,10
 462 386 462 386 462 400 c 0,11,12
 462 521 462 521 330 521 c 0,13,14
 236 521 236 521 189.5 464 c 128,-1,15
 143 407 143 407 143 309 c 0,16,17
 143 286 143 286 146 266 c 1,18,19
 176 316 176 316 218.5 346.5 c 128,-1,20
 261 377 261 377 313 377 c 0,21,22
 353 377 353 377 377.5 355 c 128,-1,23
 402 333 402 333 402 295 c 0,24,25
 402 246 402 246 371.5 217.5 c 128,-1,26
 341 189 341 189 295 189 c 0,27,28
 270 189 270 189 252 201.5 c 128,-1,29
 234 214 234 214 234 234 c 0,30,31
 234 245 234 245 239.5 254.5 c 128,-1,32
 245 264 245 264 255 268 c 1,33,34
 262 251 262 251 272 243.5 c 128,-1,35
 282 236 282 236 299 236 c 0,36,37
 320 236 320 236 332.5 249.5 c 128,-1,38
 345 263 345 263 346 285 c 0,39,40
 346 302 346 302 335 311.5 c 128,-1,41
 324 321 324 321 304 321 c 0,42,43
 242 321 242 321 193 235.5 c 128,-1,44
 144 150 144 150 120 0 c 1,45,-1
 43 0 l 2,46,47
 27 0 27 0 30 17 c 0,48,49
 34 54 34 54 71 135 c 0,50,51
 85 168 85 168 85 172 c 0,52,53
 85 178 85 178 76 198 c 0,54,55
 65 225 65 225 58 251 c 128,-1,56
 51 277 51 277 51 312 c 0,57,58
 51 394 51 394 85 456 c 128,-1,59
 119 518 119 518 182.5 552 c 128,-1,60
 246 586 246 586 332 586 c 0,61,62
 419 586 419 586 475 554 c 1,63,64
 556 567 556 567 587 631 c 1,65,66
 609 630 609 630 623 615.5 c 128,-1,67
 637 601 637 601 637 582 c 0,68,0
 637 548 637 548 607 528.5 c 128,-1,1
EndSplineSet
EndChar

StartChar: uni0E29
Encoding: 3625 3625 478
Width: 678
GlyphClass: 2
Flags: W
AnchorPoint: "Anchor-12" 625 550 basechar 0
AnchorPoint: "Anchor-11" 548 0 basechar 0
LayerCount: 2
Fore
SplineSet
629 576 m 1,0,-1
 574 190 l 2,1,2
 566 132 566 132 555.5 102 c 128,-1,3
 545 72 545 72 523 50 c 0,4,5
 490 19 490 19 434.5 5 c 128,-1,6
 379 -9 379 -9 320 -9 c 0,7,8
 257 -9 257 -9 204 4.5 c 128,-1,9
 151 18 151 18 129 50 c 0,10,11
 113 73 113 73 113 120 c 0,12,13
 113 145 113 145 118 187 c 2,14,-1
 158 465 l 2,15,16
 160 483 160 483 160 492 c 0,17,18
 160 510 160 510 150.5 520.5 c 128,-1,19
 141 531 141 531 122 531 c 0,20,21
 100 531 100 531 87.5 517.5 c 128,-1,22
 75 504 75 504 75 481 c 0,23,24
 75 463 75 463 86.5 452.5 c 128,-1,25
 98 442 98 442 117 442 c 2,26,-1
 139 442 l 1,27,28
 139 422 139 422 126.5 410.5 c 128,-1,29
 114 399 114 399 91 399 c 0,30,31
 63 399 63 399 41.5 421 c 128,-1,32
 20 443 20 443 20 477 c 0,33,34
 20 525 20 525 55 555.5 c 128,-1,35
 90 586 90 586 143 586 c 0,36,37
 193 586 193 586 222.5 561 c 128,-1,38
 252 536 252 536 252 491 c 0,39,40
 252 482 252 482 251 475.5 c 128,-1,41
 250 469 250 469 249 464 c 2,42,-1
 208 180 l 2,43,44
 204 144 204 144 204 131 c 0,45,46
 204 99 204 99 214 88 c 0,47,48
 242 56 242 56 330 56 c 0,49,50
 419 56 419 56 452 88 c 0,51,52
 465 100 465 100 469.5 116 c 128,-1,53
 474 132 474 132 480 169 c 2,54,-1
 488 224 l 1,55,56
 471 205 471 205 443 192.5 c 128,-1,57
 415 180 415 180 382 180 c 0,58,59
 333 180 333 180 299.5 205 c 128,-1,60
 266 230 266 230 266 274 c 0,61,62
 266 320 266 320 296 345 c 128,-1,63
 326 370 326 370 365 370 c 0,64,65
 396 370 396 370 415.5 354.5 c 128,-1,66
 435 339 435 339 435 311 c 0,67,68
 435 284 435 284 421 269.5 c 128,-1,69
 407 255 407 255 385 255 c 0,70,71
 378 255 378 255 367 263 c 1,72,73
 388 277 388 277 388 299 c 0,74,75
 388 310 388 310 381.5 317.5 c 128,-1,76
 375 325 375 325 364 325 c 0,77,78
 348 325 348 325 336.5 314 c 128,-1,79
 325 303 325 303 325 283 c 0,80,81
 325 260 325 260 343.5 247 c 128,-1,82
 362 234 362 234 394 234 c 0,83,84
 438 234 438 234 465.5 257.5 c 128,-1,85
 493 281 493 281 503 332 c 2,86,-1
 537 576 l 1,87,-1
 629 576 l 1,0,-1
EndSplineSet
EndChar

StartChar: uni0E2A
Encoding: 3626 3626 479
Width: 627
GlyphClass: 2
Flags: W
AnchorPoint: "Anchor-12" 566 550 basechar 0
AnchorPoint: "Anchor-11" 489 0 basechar 0
LayerCount: 2
Fore
SplineSet
607 528.5 m 128,-1,1
 577 509 577 509 528 502 c 1,2,3
 551 467 551 467 551 423 c 0,4,5
 551 382 551 382 524 268 c 0,6,7
 512 212 512 212 508 187 c 0,8,9
 505 165 505 165 501 87 c 0,10,11
 500 73 500 73 499 54.5 c 128,-1,12
 498 36 498 36 496 19 c 0,13,14
 493 0 493 0 480 0 c 2,15,-1
 396 0 l 1,16,17
 404 61 404 61 404 104 c 0,18,19
 404 207 404 207 367.5 257 c 128,-1,20
 331 307 331 307 265 307 c 0,21,22
 198 307 198 307 163 261.5 c 128,-1,23
 128 216 128 216 128 141 c 0,24,25
 128 97 128 97 143.5 72 c 128,-1,26
 159 47 159 47 184 47 c 0,27,28
 207 47 207 47 218 59.5 c 128,-1,29
 229 72 229 72 229 94 c 0,30,31
 229 109 229 109 220 118 c 128,-1,32
 211 127 211 127 194 127 c 0,33,34
 175 127 175 127 154 114 c 1,35,36
 152 120 152 120 152 127 c 0,37,38
 152 145 152 145 168 157.5 c 128,-1,39
 184 170 184 170 209 170 c 0,40,41
 241 170 241 170 263 148.5 c 128,-1,42
 285 127 285 127 285 96 c 0,43,44
 285 48 285 48 256.5 19.5 c 128,-1,45
 228 -9 228 -9 178 -9 c 0,46,47
 119 -9 119 -9 80 29 c 128,-1,48
 41 67 41 67 41 139 c 0,49,50
 41 208 41 208 69 261.5 c 128,-1,51
 97 315 97 315 147 344.5 c 128,-1,52
 197 374 197 374 261 374 c 256,53,54
 325 374 325 374 369.5 346 c 128,-1,55
 414 318 414 318 434 271 c 1,56,57
 456 381 456 381 456 409 c 0,58,59
 456 460 456 460 422 487.5 c 128,-1,60
 388 515 388 515 325 515 c 0,61,62
 269 515 269 515 228 496.5 c 128,-1,63
 187 478 187 478 146 442 c 0,64,65
 140 438 140 438 134 435 c 128,-1,66
 128 432 128 432 121 432 c 0,67,68
 108 432 108 432 94 447.5 c 128,-1,69
 80 463 80 463 73 487 c 1,70,71
 117 529 117 529 180.5 557.5 c 128,-1,72
 244 586 244 586 326 586 c 0,73,74
 410 586 410 586 470 553 c 1,75,76
 515 559 515 559 544 580 c 128,-1,77
 573 601 573 601 587 631 c 1,78,79
 609 630 609 630 623 615.5 c 128,-1,80
 637 601 637 601 637 582 c 0,81,0
 637 548 637 548 607 528.5 c 128,-1,1
EndSplineSet
EndChar

